<svg width="168" height="32" viewBox="0 0 168 32" fill="none" xmlns="http://www.w3.org/2000/svg">
<g clip-path="url(#clip0_448_4798)">
<path d="M38.1164 24.0096C37.6178 24.8326 37.0499 25.5998 36.4128 26.3111C33.6566 29.3938 29.7092 31.3745 25.3048 31.486L22.7424 21.4989L30.8865 16.8541L38.1164 24.0096Z" fill="url(#paint0_linear_448_4798)"/>
<path d="M58.6704 5.52789H55.7756V21.206H66.8006V18.7371H58.6704V5.52789Z" fill="white"/>
<path d="M77.5485 10.7028C76.5928 9.62877 75.2632 9.11267 73.7397 9.11267C70.2771 9.11267 67.7424 11.5118 67.7424 15.2221C67.7424 18.9464 70.2771 21.3595 73.7397 21.3595C75.3602 21.3595 76.7452 20.8015 77.6732 19.6577V21.206H80.3186V9.25216H77.5347V10.7028H77.5485ZM74.0582 18.9603C72.0499 18.9603 70.5402 17.5097 70.5402 15.2221C70.5402 12.9346 72.0499 11.4839 74.0582 11.4839C76.0804 11.4839 77.5901 12.9346 77.5901 15.2221C77.5901 17.5097 76.0804 18.9603 74.0582 18.9603Z" fill="white"/>
<path d="M98.9612 9.11267C97.0776 9.11267 95.4709 9.87984 94.5153 11.1073C93.6981 9.76825 92.2438 9.11267 90.5125 9.11267C88.892 9.11267 87.507 9.69851 86.6205 10.7725V9.25216H83.9751V21.206H86.759V15.1384C86.759 12.7672 88.0056 11.5537 89.8477 11.5537C91.5374 11.5537 92.5208 12.5858 92.5208 14.706V21.206H95.2909V15.1384C95.2909 12.7672 96.5651 11.5537 98.3795 11.5537C100.069 11.5537 101.053 12.5858 101.053 14.706V21.206H103.837V14.3573C103.823 10.7446 101.828 9.11267 98.9612 9.11267Z" fill="white"/>
<path d="M113.975 9.11267C112.355 9.11267 110.97 9.67061 110.042 10.8144V9.25216H107.396V25.558H110.18V19.7554C111.136 20.8573 112.465 21.3734 113.989 21.3734C117.452 21.3734 120.014 18.9603 120.014 15.2361C120 11.5258 117.438 9.11267 113.975 9.11267ZM113.656 18.9603C111.662 18.9603 110.125 17.5097 110.125 15.2221C110.125 12.9346 111.662 11.4839 113.656 11.4839C115.651 11.4839 117.175 12.9346 117.175 15.2221C117.175 17.5097 115.665 18.9603 113.656 18.9603Z" fill="white"/>
<path d="M14.626 5.5L8.55956 15.8916L2.38227 5.5H0V21.1781H2.75623V10.926L7.86704 19.3788H9.15512L14.2798 10.7865L14.2936 21.1781H17.036L17.0083 5.5H14.626Z" fill="white"/>
<path d="M50.5125 10.6749C49.5568 9.60087 48.2272 9.08478 46.7037 9.08478C43.241 9.08478 40.7064 11.4839 40.7064 15.1942C40.7064 18.9185 43.241 21.3316 46.7037 21.3316C48.3242 21.3316 49.7092 20.7736 50.6372 19.6298V21.1781H53.2826V9.22426H50.4987V10.6749H50.5125ZM47.0222 18.9324C45.0278 18.9324 43.5042 17.4818 43.5042 15.1942C43.5042 12.9067 45.0139 11.456 47.0222 11.456C49.0444 11.456 50.5541 12.9067 50.5541 15.1942C50.5541 17.4818 49.0444 18.9324 47.0222 18.9324Z" fill="white"/>
<path d="M22.3684 10.3401L23.1856 11.7629C23.4626 11.7908 23.7119 11.9303 23.8781 12.1674C25.1939 11.7908 26.4959 12.2511 27.3546 13.3809L28.7258 14.7339L30.5402 13.6878C30.4294 13.4506 30.277 13.1438 30.1662 12.9485C28.4072 9.85194 25.2493 8.94529 22.3684 10.3401ZM19.6122 18.9743C20.3878 20.3273 21.4959 21.2758 22.7978 21.7221L21.5236 16.7425C21.0111 15.4034 21.2743 14.0644 22.2161 13.1159C22.0914 12.8509 22.0914 12.5579 22.2161 12.2929L21.4128 10.8841C18.7396 12.7532 17.9363 16.059 19.6122 18.9743Z" fill="white"/>
<path d="M31.3989 17.3562C30.9972 18.8069 29.9308 20.0483 28.338 20.9828C26.3989 22.1127 24.4598 22.3079 22.7978 21.7221L21.5236 16.7425L27.3546 13.353L28.7258 14.706L22.4654 18.3466C23.6288 19.6856 25.4294 19.9367 27.2161 18.8906C28.3657 18.221 29.072 17.3283 29.3629 16.1427C29.4321 15.9056 29.4598 15.6545 29.4737 15.4453L31.3989 17.3562Z" fill="#FFA300"/>
<path d="M37.4653 19.03C36.4266 19.03 35.8171 18.4024 35.8171 17.2446V11.5397H39.0027V9.30794H35.8171V6.57404H33.0332V17.3004C33.0332 19.9367 34.529 21.3315 37.1191 21.3315C38.1163 21.3315 39.1274 21.0665 39.7922 20.5225L39.0166 18.5279C38.6011 18.8627 38.0471 19.03 37.4653 19.03Z" fill="white"/>
</g>
<defs>
<linearGradient id="paint0_linear_448_4798" x1="27.1842" y1="19.5798" x2="31.4961" y2="27.2523" gradientUnits="userSpaceOnUse">
<stop stop-color="#FFA300" stop-opacity="0.8"/>
<stop offset="1" stop-color="#FFA300" stop-opacity="0"/>
</linearGradient>
<clipPath id="clip0_448_4798">
<rect width="120" height="26" fill="white" transform="translate(0 5.5)"/>
</clipPath>
</defs>
</svg>
