<svg width="32" height="33" viewBox="0 0 32 33" fill="none" xmlns="http://www.w3.org/2000/svg">
<g clip-path="url(#clip0_542_6222)">
<path d="M2.89282 10.2159V22.7599C2.89282 23.5663 3.31522 24.2959 4.01922 24.7055L14.8864 30.9775C15.5776 31.3743 16.4352 31.3743 17.1264 30.9775L27.9936 24.7055C28.6848 24.3087 29.12 23.5663 29.12 22.7599V10.2159C29.12 9.40948 28.6976 8.67988 27.9936 8.27028L17.1264 1.99828C16.4352 1.60148 15.5776 1.60148 14.8864 1.99828L4.01922 8.27028C3.32802 8.66708 2.90562 9.40948 2.90562 10.2159H2.89282Z" fill="#213147"/>
<path d="M18.368 18.9196L16.8192 23.1692C16.7808 23.2844 16.7808 23.4124 16.8192 23.5404L19.4816 30.8492L22.5664 29.07L18.8672 18.9196C18.7776 18.6892 18.4576 18.6892 18.368 18.9196Z" fill="#12AAFF"/>
<path d="M21.4784 11.7773C21.3888 11.5469 21.0688 11.5469 20.9792 11.7773L19.4304 16.0269C19.392 16.1421 19.392 16.2701 19.4304 16.3981L23.7952 28.3661L26.88 26.5869L21.4784 11.7901V11.7773Z" fill="#12AAFF"/>
<path d="M16 2.47179C16.0768 2.47179 16.1536 2.49739 16.2176 2.53579L27.968 9.31979C28.1088 9.39659 28.1856 9.55019 28.1856 9.70379V23.2718C28.1856 23.4254 28.096 23.579 27.968 23.6558L16.2176 30.4398C16.1536 30.4782 16.0768 30.5038 16 30.5038C15.9232 30.5038 15.8464 30.4782 15.7824 30.4398L4.03203 23.6558C3.89123 23.579 3.81443 23.4254 3.81443 23.2718V9.69099C3.81443 9.53739 3.90403 9.38379 4.03203 9.30699L15.7824 2.52299C15.8464 2.48459 15.9232 2.45899 16 2.45899V2.47179ZM16 0.487793C15.5776 0.487793 15.168 0.590193 14.784 0.807793L3.03363 7.59179C2.27843 8.02699 1.81763 8.82059 1.81763 9.69099V23.259C1.81763 24.1294 2.27843 24.923 3.03363 25.3582L14.784 32.1422C15.1552 32.3598 15.5776 32.4622 16 32.4622C16.4224 32.4622 16.832 32.3598 17.216 32.1422L28.9664 25.3582C29.7216 24.923 30.1824 24.1294 30.1824 23.259V9.69099C30.1824 8.82059 29.7216 8.02699 28.9664 7.59179L17.2032 0.807793C16.832 0.590193 16.4096 0.487793 15.9872 0.487793H16Z" fill="#9DCCED"/>
<path d="M8.21765 28.379L9.30565 25.4094L11.4817 27.2142L9.44645 29.083L8.21765 28.379Z" fill="#213147"/>
<path d="M15.0016 8.73106H12.0192C11.8016 8.73106 11.5968 8.87186 11.52 9.07666L5.13281 26.5871L8.21761 28.3663L15.2576 9.07666C15.3216 8.89746 15.1936 8.71826 15.0144 8.71826L15.0016 8.73106Z" fill="white"/>
<path d="M20.224 8.73106H17.2416C17.024 8.73106 16.8192 8.87186 16.7424 9.07666L9.44641 29.0703L12.5312 30.8495L20.4672 9.07666C20.5312 8.89746 20.4032 8.71826 20.224 8.71826V8.73106Z" fill="white"/>
</g>
<defs>
<clipPath id="clip0_542_6222">
<rect width="32" height="32" fill="white" transform="translate(0 0.487793)"/>
</clipPath>
</defs>
</svg>
