<svg width="41" height="23" viewBox="0 0 41 23" fill="none" xmlns="http://www.w3.org/2000/svg">
<rect width="41" height="23" rx="11.5" fill="#EEEEEE"/>
<path d="M8.8608 7.27273H10.7955L13.3864 13.5966H13.4886L16.0795 7.27273H18.0142V16H16.4972V10.0043H16.4162L14.0043 15.9744H12.8707L10.4588 9.99148H10.3778V16H8.8608V7.27273ZM21.5511 16.1321C21.1364 16.1321 20.7628 16.0582 20.4304 15.9105C20.1009 15.7599 19.8395 15.5384 19.6463 15.2457C19.456 14.9531 19.3608 14.5923 19.3608 14.1634C19.3608 13.794 19.429 13.4886 19.5653 13.2472C19.7017 13.0057 19.8878 12.8125 20.1236 12.6676C20.3594 12.5227 20.625 12.4134 20.9205 12.3395C21.2188 12.2628 21.527 12.2074 21.8452 12.1733C22.2287 12.1335 22.5398 12.098 22.7784 12.0668C23.017 12.0327 23.1903 11.9815 23.2983 11.9134C23.4091 11.8423 23.4645 11.733 23.4645 11.5852V11.5597C23.4645 11.2386 23.3693 10.9901 23.179 10.8139C22.9886 10.6378 22.7145 10.5497 22.3565 10.5497C21.9787 10.5497 21.679 10.6321 21.4574 10.7969C21.2386 10.9616 21.0909 11.1562 21.0142 11.3807L19.5739 11.1761C19.6875 10.7784 19.875 10.446 20.1364 10.179C20.3977 9.90909 20.7173 9.70739 21.0952 9.57386C21.473 9.4375 21.8906 9.36932 22.348 9.36932C22.6634 9.36932 22.9773 9.40625 23.2898 9.48011C23.6023 9.55398 23.8878 9.67614 24.1463 9.84659C24.4048 10.0142 24.6122 10.2429 24.7685 10.5327C24.9276 10.8224 25.0071 11.1847 25.0071 11.6193V16H23.5241V15.1009H23.473C23.3793 15.2827 23.2472 15.4531 23.0767 15.6122C22.9091 15.7685 22.6974 15.8949 22.4418 15.9915C22.1889 16.0852 21.892 16.1321 21.5511 16.1321ZM21.9517 14.9986C22.2614 14.9986 22.5298 14.9375 22.7571 14.8153C22.9844 14.6903 23.1591 14.5256 23.2812 14.321C23.4062 14.1165 23.4688 13.8935 23.4688 13.652V12.8807C23.4205 12.9205 23.3381 12.9574 23.2216 12.9915C23.108 13.0256 22.9801 13.0554 22.8381 13.081C22.696 13.1065 22.5554 13.1293 22.4162 13.1491C22.277 13.169 22.1563 13.1861 22.054 13.2003C21.8239 13.2315 21.6179 13.2827 21.4361 13.3537C21.2543 13.4247 21.1108 13.5241 21.0057 13.652C20.9006 13.777 20.848 13.9389 20.848 14.1378C20.848 14.4219 20.9517 14.6364 21.1591 14.7812C21.3665 14.9261 21.6307 14.9986 21.9517 14.9986ZM27.8196 9.45455L29.1406 11.8707L30.483 9.45455H32.1151L30.142 12.7273L32.1491 16H30.5256L29.1406 13.6435L27.7685 16H26.1321L28.1264 12.7273L26.1832 9.45455H27.8196Z" fill="black"/>
</svg>
