<svg width="32" height="33" viewBox="0 0 32 33" fill="none" xmlns="http://www.w3.org/2000/svg">
<path d="M16 0.487793C24.8374 0.487793 32 7.65186 32 16.4878C32 25.3252 24.8374 32.4878 16 32.4878C7.16407 32.4878 0 25.3244 0 16.4878C0 7.65186 7.16407 0.487793 16 0.487793Z" fill="url(#paint0_linear_542_3238)"/>
<path fill-rule="evenodd" clip-rule="evenodd" d="M8.38018 25.3078V25.3675L8.3773 25.3697V25.3798H15.3174C16.103 25.3906 16.8856 25.3279 17.6575 25.1897C18.4704 25.0306 19.2624 24.78 20.0177 24.4402C20.3451 24.2885 20.6593 24.1052 20.9763 23.9202C21.0566 23.8734 21.137 23.8265 21.2179 23.7799C21.5909 23.5142 21.948 23.2262 22.2878 22.9202C23.2181 22.0793 23.9381 21.0302 24.3881 19.8602C24.4183 19.7292 24.5465 19.6449 24.6783 19.6701H26.5683C26.7188 19.6701 26.7684 19.6197 26.7684 19.4498V18.2395C26.7785 18.1235 26.7785 18.0062 26.7684 17.8903C26.7684 17.86 26.7762 17.8297 26.784 17.7996C26.7995 17.7394 26.815 17.6795 26.7684 17.6195H25.1895C24.9987 17.6195 24.9987 17.5994 24.9987 17.4295C25.0534 16.8203 25.0534 16.209 24.9987 15.5999C24.9886 15.4199 25.0289 15.4199 25.1686 15.4199H26.5488C26.7094 15.4199 26.7692 15.3796 26.7692 15.2197V13.5796C26.7642 13.4709 26.7617 13.4159 26.7328 13.3879C26.7032 13.3592 26.6458 13.3592 26.5294 13.3592H24.7395C24.5998 13.383 24.4659 13.2887 24.4407 13.149C24.2355 12.6126 23.9741 12.0992 23.6594 11.619C23.3426 11.1452 22.9855 10.7003 22.5895 10.2891C22.0632 9.76353 21.4721 9.30705 20.8298 8.92904C19.8614 8.36672 18.8023 7.97288 17.6999 7.76911C17.165 7.67047 16.6243 7.61071 16.0799 7.58911H8.58034C8.38018 7.58911 8.38018 7.62943 8.38018 7.78927V13.1792C8.38018 13.3693 8.33985 13.3693 8.19009 13.3693H6.04015C5.88031 13.3693 5.88031 13.3988 5.88031 13.509V15.2687C5.88031 15.4286 5.92999 15.4286 6.05023 15.4286H8.22033C8.38018 15.4286 8.38018 15.4581 8.38018 15.5783V17.4583C8.38018 17.6282 8.32977 17.6282 8.20017 17.6282H5.88031V19.5283C5.88031 19.6881 5.92999 19.6881 6.05023 19.6881H8.22033C8.38018 19.6881 8.38018 19.7076 8.38018 19.8379V22.188V22.9778V25.3078ZM22.1906 13.198C22.2079 13.2426 22.2079 13.2923 22.1906 13.3376H22.2389C22.2187 13.3974 22.1186 13.4176 22.1186 13.4176H10.5791C10.389 13.4176 10.389 13.3772 10.389 13.2275V9.67785C10.389 9.54753 10.4092 9.48777 10.5589 9.48777H15.9287C16.5004 9.48273 17.0707 9.54249 17.6287 9.66777C18.7346 9.92985 19.7635 10.4511 20.6289 11.1877C20.8017 11.3166 20.9558 11.4685 21.089 11.6377C21.3713 11.9178 21.6189 12.2296 21.8292 12.568C21.9689 12.766 22.0891 12.9769 22.1906 13.198ZM22.6694 17.6174H16.5897H10.6295C10.5079 17.6174 10.448 17.6174 10.4184 17.5874C10.3897 17.5583 10.3897 17.5009 10.3897 17.3877V15.6078C10.3897 15.4674 10.43 15.4178 10.5798 15.4178H22.6795C22.8098 15.4178 22.8696 15.4674 22.8696 15.5877C22.9193 16.2069 22.9193 16.829 22.8696 17.4475C22.8602 17.6174 22.799 17.6174 22.6694 17.6174ZM22.1906 19.6975C22.0207 19.6788 21.8494 19.6788 21.6794 19.6975H10.5899C10.4401 19.6975 10.3897 19.6975 10.3897 19.8976V23.3681C10.3897 23.5279 10.3897 23.5682 10.5899 23.5682H15.7098C15.9547 23.587 16.1995 23.5697 16.4392 23.5186C17.1823 23.4653 17.9131 23.304 18.61 23.0383C18.8635 22.9505 19.1083 22.836 19.3394 22.6985H19.4092C20.6095 22.0742 21.5844 21.0936 22.1993 19.8897C22.1993 19.8897 22.2691 19.7385 22.1906 19.6989V19.6975Z" fill="#FEFEFD"/>
<defs>
<linearGradient id="paint0_linear_542_3238" x1="0" y1="0.487793" x2="0" y2="32.4878" gradientUnits="userSpaceOnUse">
<stop stop-color="#EFD68B"/>
<stop offset="1" stop-color="#F5AC37"/>
</linearGradient>
</defs>
</svg>
