<svg width="32" height="33" viewBox="0 0 32 33" fill="none" xmlns="http://www.w3.org/2000/svg">
<g clip-path="url(#clip0_542_1098)">
<path d="M16 32.4878C24.8366 32.4878 32 25.3244 32 16.4878C32 7.65124 24.8366 0.487793 16 0.487793C7.16344 0.487793 0 7.65124 0 16.4878C0 25.3244 7.16344 32.4878 16 32.4878Z" fill="#988430"/>
<path d="M16 31.9752C24.5535 31.9752 31.4875 25.0412 31.4875 16.4877C31.4875 7.93423 24.5535 1.00024 16 1.00024C7.4465 1.00024 0.512512 7.93423 0.512512 16.4877C0.512512 25.0412 7.4465 31.9752 16 31.9752Z" fill="#7A6A2A"/>
<path d="M16 31.649C24.3733 31.649 31.1612 24.8611 31.1612 16.4878C31.1612 8.11455 24.3733 1.32666 16 1.32666C7.62669 1.32666 0.838806 8.11455 0.838806 16.4878C0.838806 24.8611 7.62669 31.649 16 31.649Z" fill="#BA9F33"/>
<path fill-rule="evenodd" clip-rule="evenodd" d="M6.99543 14.7792C6.9048 14.6964 6.80906 14.6134 6.72099 14.5307C6.63293 14.4479 6.54248 14.365 6.45185 14.2822L6.18254 14.0262C6.13851 13.9822 6.09192 13.9434 6.04788 13.8992C6.00385 13.8605 5.95214 13.8164 5.90811 13.7775C5.55073 13.4384 5.19131 13.0993 4.83888 12.76C5.20394 13.094 5.56131 13.4256 5.92637 13.7646L6.05318 13.8915C6.09721 13.9354 6.1438 13.9743 6.18783 14.0183L6.45697 14.2668C6.5476 14.3496 6.63566 14.4325 6.72628 14.5228C6.81691 14.6131 6.90497 14.6962 6.9956 14.7788L6.99543 14.7792ZM2.25243 14.728C2.25243 14.728 3.55206 14.8625 4.18642 14.9531C4.77403 15.036 6.61228 15.3181 6.61228 15.3181L2.25243 14.728ZM2.25243 14.728C2.61748 14.759 2.98254 14.7978 3.3476 14.8367C3.53396 14.8548 3.71265 14.8754 3.89134 14.8935L4.1656 14.9247C4.25623 14.9375 4.34429 14.9505 4.43491 14.9635L5.5224 15.1369L6.06598 15.2275C6.24466 15.2586 6.42335 15.2924 6.60972 15.3234C6.43103 15.3053 6.24466 15.2794 6.06598 15.2534L5.5224 15.1758L4.43491 15.0154C4.34429 15.0024 4.25623 14.9841 4.1656 14.9713L3.89117 14.9398C3.71248 14.9217 3.52611 14.8957 3.34743 14.8749C2.98237 14.831 2.61731 14.7843 2.25226 14.7275L2.25243 14.728ZM6.48291 15.6567C6.48291 15.6567 5.09522 16.009 4.62657 16.1436C4.16577 16.2705 2.77023 16.6951 2.77023 16.6951L6.48274 15.6569L6.48291 15.6567Z" fill="#CFB66C"/>
<path fill-rule="evenodd" clip-rule="evenodd" d="M6.4828 15.6567C6.17475 15.7474 5.8684 15.8354 5.55591 15.9184L4.62902 16.1669C4.32097 16.2575 4.01462 16.3455 3.70742 16.4362L3.24662 16.563C3.09387 16.607 2.93857 16.6458 2.7807 16.69C2.93328 16.6388 3.08875 16.5864 3.2415 16.5423L3.7023 16.3949C4.01035 16.299 4.3167 16.2083 4.6239 16.1126C4.93707 16.0349 5.2453 15.952 5.55847 15.8769C5.85611 15.8018 6.16946 15.7269 6.4828 15.6569V15.6567ZM2.96451 17.5494C3.11708 17.4924 4.87768 16.6719 5.28677 16.4802C5.49157 16.3843 6.08686 16.173 6.08686 16.173L2.96451 17.5494Z" fill="#CFB66C"/>
<path fill-rule="evenodd" clip-rule="evenodd" d="M2.96447 17.5493C3.09895 17.4981 3.22593 17.4354 3.35529 17.3759L3.73844 17.1972L4.50746 16.827C4.76346 16.7053 5.01229 16.571 5.27632 16.4566C5.41097 16.3998 5.54563 16.3532 5.68011 16.3092L5.88491 16.2445C5.95472 16.2264 6.01957 16.2056 6.08971 16.1875C5.83371 16.3092 5.56423 16.4128 5.30789 16.5317C5.05189 16.6587 4.79009 16.7623 4.52589 16.8761L3.74407 17.2204C3.48159 17.3267 3.22559 17.4405 2.96429 17.5493H2.96447ZM3.13513 18.266C3.13513 18.266 4.72984 17.3315 5.2787 17.0311C5.56611 16.8707 6.49556 16.4097 6.49556 16.4097L3.13513 18.266Z" fill="#CFB66C"/>
<path fill-rule="evenodd" clip-rule="evenodd" d="M3.13531 18.2665C3.40446 18.1008 3.67889 17.9325 3.95332 17.7617L4.36292 17.513C4.5027 17.4302 4.63735 17.3526 4.77986 17.2698C4.91963 17.1869 5.05429 17.1041 5.19663 17.0264C5.26439 16.9846 5.33538 16.9482 5.40894 16.9177L5.62637 16.809C5.91377 16.6692 6.20117 16.5267 6.5041 16.405C6.22967 16.5786 5.94739 16.7262 5.66528 16.8788C5.5255 16.9565 5.38299 17.0264 5.24322 17.1041C5.10344 17.1817 4.96879 17.2647 4.82628 17.3398C4.6865 17.4225 4.55185 17.5002 4.40951 17.5753L3.98745 17.8057L3.13566 18.2665H3.13531ZM6.48277 16.6146C6.48277 16.6146 5.4912 17.3758 5.17017 17.6192C4.84915 17.8625 3.90417 18.546 3.90417 18.546L6.48277 16.6146Z" fill="#CFB66C"/>
<path fill-rule="evenodd" clip-rule="evenodd" d="M12.1735 22.7531L11.6661 21.7926L11.9612 20.5912L14.066 19.7784L13.1702 17.9403L13.6129 16.0839L14.444 14.4216L17.0124 14.0178L18.8996 12.2185L22.9748 12.5266L23.7747 16.8839L22.2343 22.3699L21.3567 25.2102L17.7993 25.3448L16.1476 24.2005L14.2136 23.3926L12.1735 22.7531Z" fill="#E2CC85"/>
<path fill-rule="evenodd" clip-rule="evenodd" d="M18.4131 22.7222C18.4131 22.7222 17.921 22.9475 17.0819 22.8956C16.839 22.5694 15.1381 22.4167 15.1381 22.4167C15.1381 22.4167 14.9258 22.352 14.5504 22.5073C14.1725 22.6609 13.8151 22.642 13.4811 22.7247C13.1472 22.8075 12.8155 22.3727 12.5595 22.282C12.3035 22.1863 11.9641 21.9559 11.9641 21.9559L11.2473 21.8859L9.80789 21.2775L7.52113 18.9993L6.89973 19.9721L6.70807 21.1759L7.39944 22.6026L9.2609 24.2983L12.8906 25.2199L15.0421 24.586L17.7372 23.4468L18.4131 22.722V22.7222Z" fill="#F1D789"/>
<path fill-rule="evenodd" clip-rule="evenodd" d="M5.51712 14.6704L5.97792 13.2751L6.52696 12.3739L8.29506 12.2263L7.76429 13.7746L6.28615 16.4051L6.89969 18.7533L5.81238 19.2969L5.47821 18.7844L5.20907 17.609L5.19098 16.2885L5.51712 14.6704Z" fill="#F4ECB4"/>
<path fill-rule="evenodd" clip-rule="evenodd" d="M7.50031 22.6264L7.1612 22.1526C7.1612 22.1526 7.07057 21.9273 7.12246 21.7305C7.17366 21.5312 7.16632 21.5182 7.14055 21.4431C7.11478 21.368 6.89718 21.1091 6.91015 20.8864C6.92295 20.6611 6.89206 20.586 7.0576 20.4075C7.231 20.2341 7.17929 19.9338 7.17929 19.9338L7.40457 20.0735L7.45577 19.9959C7.45577 19.9959 7.53854 20.0606 7.53854 20.1616C7.55663 20.0218 7.48154 19.3745 7.65238 19.227C7.82321 19.0796 8.12615 19.9182 8.12615 19.9182L7.93978 18.7014L7.46072 17.4536L6.60892 16.3144L6.55772 15.0587V14.95C6.55772 14.95 6.16672 15.5507 6.05801 16.0252C5.98035 16.3513 6.16672 16.7474 6.12798 17.2161C6.09675 17.6822 6.05801 17.6458 6.17184 17.8305C6.28568 18.0151 6.56284 18.3949 6.45413 18.6693C6.35838 18.905 6.03207 18.7393 6.03207 18.7393C6.03207 18.7393 5.96738 18.9308 5.87932 19.0007C5.84826 18.8869 5.81464 18.8144 5.75251 18.7447C5.74722 18.7888 5.73442 18.8483 5.73442 18.8483C5.73442 18.8483 5.67742 18.6696 5.62042 18.4444C5.54294 18.1441 5.45999 17.748 5.3849 17.5357C5.35384 17.6574 5.27618 18.0276 5.27618 18.0276L5.32022 18.5973L5.53253 19.3791L5.73733 19.8911L5.93666 20.5176L6.10989 20.9385L6.24967 21.2595L6.37135 21.9819L6.95896 22.6032L7.2723 22.7431L7.49997 22.6265L7.50031 22.6264Z" fill="#F3E19D"/>
<path fill-rule="evenodd" clip-rule="evenodd" d="M5.82522 13.5312C5.82522 13.5312 5.40316 14.248 5.28165 14.9706C5.16013 15.6932 5.05125 16.4567 5.12805 17.4405C5.2057 18.4322 5.35333 19.0405 5.47245 19.4755C5.67725 20.1979 6.20769 21.2025 6.20769 21.2025L6.22578 21.1636C6.13662 20.9946 6.06546 20.8167 6.01347 20.6328C5.94349 20.3584 5.91755 20.0322 5.85287 19.8846C5.79587 19.7371 5.70012 19.6101 5.65353 19.4289C5.6095 19.2555 5.60233 18.9811 5.46716 18.7766C5.41016 18.6937 5.34019 18.4762 5.31954 18.2588C5.29359 17.9325 5.33251 17.5674 5.30145 17.2672C5.24444 16.7675 5.2057 16.4284 5.25741 16.1668C5.30912 15.9051 5.57861 15.1624 5.74432 14.5721C5.85304 14.194 5.78819 13.8756 5.98752 13.5467C6.18686 13.2206 6.30872 12.9332 6.35258 12.7338C6.40378 12.5526 5.82454 13.5312 5.82454 13.5312H5.82522Z" fill="#F2E8B0"/>
<path fill-rule="evenodd" clip-rule="evenodd" d="M7.8266 13.2437C7.8266 13.2437 7.60917 13.3085 7.50557 13.4223C7.40198 13.5311 7.35795 13.6217 7.21817 13.8055C7.0784 13.9893 7.07054 14.1395 6.95654 14.3699C6.8427 14.5952 6.59148 14.9343 6.56042 15.056C6.52936 15.1776 6.47765 15.7472 6.41297 16.0165C6.35596 16.2858 6.47765 16.6172 6.47765 16.6172L6.6251 16.586C6.6251 16.586 6.6251 16.7776 6.77273 16.9072C6.92019 17.034 6.94613 16.4773 6.94613 16.4773L7.49755 14.6158L8.32853 14.0514L8.41915 13.5957L7.82626 13.2437H7.8266Z" fill="#F5EEC0"/>
<path fill-rule="evenodd" clip-rule="evenodd" d="M8.23043 14.0878C8.23043 14.0878 7.83943 14.1136 7.64794 14.2535C7.57029 14.3104 7.53923 14.3569 7.45646 14.4269C7.30371 14.5537 7.14823 14.6703 7.07331 14.8365C6.99037 15.0021 6.89974 15.2533 6.83762 15.7271C6.81168 15.9264 6.81168 16.1102 6.79359 16.2708C6.76765 16.4882 6.7289 16.6616 6.74956 16.7828C6.7755 17.0313 7.03184 17.1608 7.05676 17.4429L7.58753 17.1738L8.08724 15.2035L9.14879 14.5379L8.54804 13.8647L8.22975 14.0866L8.23043 14.0878Z" fill="#E6DB9D"/>
<path fill-rule="evenodd" clip-rule="evenodd" d="M5.43029 27.3557C5.4325 27.3363 5.43472 27.3168 5.43694 27.2968C5.51442 26.6312 5.52757 26.1268 5.5844 25.8109C5.66717 25.363 5.72417 25.1965 5.7112 25.0289C5.69311 24.7597 5.67246 24.5629 5.6984 24.3557C5.73714 24.0813 6.00646 23.7552 5.99878 23.5299C5.99349 23.3512 5.90286 23.2348 5.82521 23.1261C5.74755 23.0174 5.68543 22.9268 5.68543 22.9268C5.68543 22.9268 6.21621 22.5617 6.21109 21.0911C6.22192 21.0941 6.23235 21.0985 6.24215 21.104L6.50361 21.8469L6.6823 22.0644L7.36838 23.3434L8.25123 24.2004L9.55598 25.078L10.3742 25.9684L10.4569 28.3425L9.3877 29.7302L9.2126 30.0473C7.82145 29.3489 6.54576 28.4411 5.43011 27.3556L5.43029 27.3557Z" fill="#E5CB7A"/>
<path fill-rule="evenodd" clip-rule="evenodd" d="M8.69647 29.627C8.69647 29.627 8.71456 29.3319 8.95793 29.1403C8.99685 29.205 9.02262 29.2672 9.01494 29.3137C9.05897 29.2362 9.36702 28.739 10.0635 28.6095C10.76 28.4827 10.9283 27.9753 10.9283 27.9753L12.4064 26.6316L14.097 25.0757L16.1527 24.3532L17.1134 24.1176C17.1134 24.1176 17.1315 24.1875 17.0953 24.3428C17.2738 24.33 17.67 24.2394 18.0816 24.0943C18.2473 24.0297 18.4028 24.0037 18.4856 24.0892C18.6073 24.2031 18.6253 24.4724 18.633 24.6328C18.8324 24.5888 19.0628 24.3973 19.2474 24.4154C19.5427 24.4464 19.8041 24.7934 20.1045 24.7934C20.5006 24.7934 20.6792 24.55 20.9563 24.3584C21.122 24.2445 21.3601 24.1024 21.4948 24.0063C21.8158 23.7706 25.2126 22.7324 25.2126 22.7324L26.4035 22.8101L26.5951 24.0891L26.4927 27.4324C26.4801 27.4445 26.4675 27.4572 26.4547 27.4693L21.0398 30.2974L13.5338 31.448C11.8525 31.1733 10.23 30.6152 8.73538 29.7975L8.69698 29.6268L8.69647 29.627Z" fill="#D8C173"/>
<path fill-rule="evenodd" clip-rule="evenodd" d="M5.88544 27.781C5.9921 27.558 6.08802 27.3714 6.10491 27.3047C6.11823 27.4392 6.14263 27.7343 6.19178 28.0479C6.08859 27.9602 5.98647 27.8712 5.88544 27.7808V27.781Z" fill="#F1D789"/>
<path fill-rule="evenodd" clip-rule="evenodd" d="M11.3684 30.9273L12.3392 30.6573L12.422 30.6832C12.422 30.6832 12.466 30.7092 12.466 30.7971C12.5877 30.7272 12.6913 30.74 12.7664 30.6936C12.8051 30.7764 12.8439 31.0508 13.0149 31.0845C13.1934 31.1234 13.385 31.0068 13.5793 30.8593C13.7707 30.7066 13.9889 30.5149 14.1539 30.4373C14.2144 30.5486 14.2681 30.6636 14.3145 30.7815C14.5319 30.6081 14.9099 29.904 15.4484 29.9168C15.604 29.549 15.864 29.2349 16.1963 29.0132C16.696 28.6741 17.0091 28.6482 17.4001 28.6792C17.5554 28.4775 17.7468 28.3063 17.9645 28.1744C18.0292 28.2004 18.2079 28.3091 18.4306 28.2055C18.6559 28.1021 18.9095 27.7006 19.2435 27.6489C19.4235 27.6242 19.6065 27.6626 19.7613 27.7576C19.7613 27.7576 20.7341 26.7918 21.4053 26.4708C21.3794 26.3932 21.3277 26.1006 22.1146 25.4533C22.1587 25.4922 22.1276 25.6009 22.1587 25.6069C22.1715 25.6069 22.3635 25.5241 22.6065 25.3376C22.9069 25.1125 23.2666 24.8768 23.4841 24.8121C23.8937 24.6904 24.3282 24.9389 24.3282 24.9389C24.3651 24.913 24.4063 24.8937 24.4499 24.8819C24.5533 24.8638 24.6284 24.8509 24.6854 24.8307C24.6803 24.9654 24.7554 25.1958 24.6854 25.3951C24.7664 25.4407 24.8523 25.4772 24.9414 25.5038C24.8975 25.5996 24.8016 25.8429 24.6412 25.9595C24.7757 26.0242 24.7938 26.0993 24.9854 26.1643C24.9078 26.273 24.7806 26.4596 24.724 26.5739C24.667 26.6956 24.4623 27.2004 24.3717 27.3919C24.276 27.5836 24.1466 27.9357 24.0843 28.0063C24.022 28.077 23.7969 28.3765 23.6235 28.5239C23.7771 28.4669 24.4055 28.2755 24.6721 28.2029C24.5927 28.3193 24.1905 28.9161 23.8037 29.4901C21.9521 30.5999 19.8852 31.3024 17.7407 31.5506C15.5962 31.7989 13.4235 31.5873 11.3672 30.9298L11.3684 30.9273Z" fill="#E0CD81"/>
<path fill-rule="evenodd" clip-rule="evenodd" d="M8.29442 14.018C8.29442 14.018 8.06931 14.018 8.02528 14.0491C7.98125 14.0801 8.25056 14.145 8.33333 14.176C8.4161 14.2071 8.59479 14.3494 8.64138 14.4634C8.68542 14.5721 10.2595 15.2063 10.2595 15.2063L11.3727 15.1493L11.7566 14.6191L11.0265 13.9796L11.5385 12.4702L10.8602 12.5789L9.22916 13.5517L8.41098 13.8651L8.29442 14.018Z" fill="#DFC57C"/>
<path fill-rule="evenodd" clip-rule="evenodd" d="M10.7392 14.5177C10.7553 14.5438 10.778 14.5651 10.8049 14.5796C10.8319 14.5942 10.8622 14.6014 10.8928 14.6005C11.1232 14.6005 11.3353 14.6575 11.4234 14.7739C11.571 14.9604 11.9801 15.5559 11.9801 15.5559L12.9587 15.9079L13.0219 14.7556L11.9526 14.0127L10.7358 14.4605V14.5175H10.7385L10.7392 14.5177Z" fill="#E5CC7C"/>
<path fill-rule="evenodd" clip-rule="evenodd" d="M10.5472 14.9449C10.5472 14.9449 10.7257 14.9578 10.951 14.8749C11.1763 14.7919 11.5465 14.6134 11.7071 14.6834C11.9322 14.7791 11.8856 15.0795 12.1291 15.349C12.2766 15.5147 12.5459 15.5096 12.6986 15.6883C12.8514 15.867 13.3769 15.784 13.3769 15.784L13.5762 16.8592L12.7763 17.8846L12.5147 19.1583H11.433L10.4448 18.7663L9.95807 17.5887L10.2014 16.3977L10.5472 14.9449Z" fill="#D2C281"/>
<path fill-rule="evenodd" clip-rule="evenodd" d="M12.6396 14.9965C12.6664 15.0048 12.6943 15.0092 12.7224 15.0095C12.6913 15.0354 12.6265 15.0923 12.6524 15.2399C12.6783 15.3875 12.7611 15.5739 12.6913 15.6877C12.747 15.7487 12.7886 15.8212 12.813 15.9C12.857 16.027 12.87 16.1434 13.1572 16.1617C13.1158 16.1872 13.0776 16.2176 13.0434 16.2523C13.0434 16.2523 13.2427 16.4257 13.3438 16.5861C13.4472 16.5817 13.7216 16.4963 13.7216 16.4963L13.7786 16.5353L13.9003 16.4841C13.9003 16.4841 13.7865 16.44 13.8693 16.163C13.9469 15.9197 14.0169 15.9326 14.0229 15.9145C14.0288 15.8964 14.0799 15.6401 14.0799 15.5365C14.1186 15.402 14.1497 14.9929 14.1497 14.9929L14.0669 14.0894L13.601 13.8071L13.2221 13.4414L12.8647 14.1145L12.6294 14.3492L12.6113 14.9317L12.6396 14.9965Z" fill="#E2C270"/>
<path fill-rule="evenodd" clip-rule="evenodd" d="M13.7605 14.2405C13.7605 14.2405 13.8433 14.476 13.8745 14.6573C13.8855 14.622 13.8916 14.5855 13.8926 14.5486C13.8926 14.5486 13.9573 14.9059 13.9701 15.0536C13.996 15.0483 14.0213 15.0406 14.0271 15.0664C14.0329 15.0921 14.0919 15.3797 14.0783 15.5401C14.1861 15.3623 14.3353 15.2131 14.5131 15.1053C14.6167 15.0404 14.7384 14.9706 14.8654 14.9653C15.0647 14.9602 15.2096 15.0923 15.4479 15.0923C16.0225 15.0923 16.543 14.6703 16.9262 14.5409C17.2083 14.445 17.4517 14.3752 17.6225 14.2197C17.7055 14.1499 17.8531 13.9946 17.9876 13.764C18.1663 13.4568 18.3526 13.1894 18.5392 13.1558C18.4548 13.1713 18.3689 13.1773 18.2832 13.1738C18.2832 13.1738 18.3402 13.1168 18.4368 13.0392C18.5334 12.9615 18.6491 12.8658 18.8146 12.8658C19.1099 12.8658 19.2573 12.9097 19.423 12.9097C19.5888 12.9045 19.6845 12.8658 19.6845 12.8658C19.6845 12.8658 19.8581 12.9875 20.2489 12.9875C20.6399 12.9926 20.9014 13.0262 21.106 13.0445C21.3106 13.0627 21.9965 12.9875 22.1933 12.9933C22.3216 12.9982 22.4476 13.029 22.5637 13.0839L21.9293 11.2407L19.6505 9.24902L18.2939 10.2095L16.207 12.2963L14.1877 13.0445L13.7656 13.5183V14.2405H13.7605Z" fill="#CCB360"/>
<path fill-rule="evenodd" clip-rule="evenodd" d="M18.2913 13.1841C18.2913 13.1841 18.3483 13.1273 18.4439 13.0496C18.5395 12.972 18.6564 12.8761 18.8219 12.8761C19.117 12.8761 19.2647 12.9201 19.4304 12.9201C19.5961 12.915 19.6918 12.8761 19.6918 12.8761C19.6918 12.8761 19.8656 12.9976 20.2562 12.9976C20.6472 13.0027 20.9087 13.0363 21.1133 13.0544C21.3179 13.0725 22.0039 12.9976 22.2006 13.0032C22.3289 13.008 22.4548 13.0389 22.5708 13.0938L22.2834 12.2627L21.9496 11.6285L20.9968 10.585C20.9968 10.585 19.8533 9.91193 19.8446 9.90681C19.8395 9.90169 19.4485 9.7981 19.4485 9.7981L18.4129 10.4246L17.4732 12.8558L17.4551 13.3678L18.0633 13.6552C18.2161 13.3992 18.3845 13.1944 18.5424 13.1684C18.3999 13.184 18.2912 13.184 18.2912 13.184L18.2913 13.1841Z" fill="#D5B457"/>
<path fill-rule="evenodd" clip-rule="evenodd" d="M18.2784 13.3577C18.1877 13.3629 18.1128 13.3448 18.092 13.2801C18.0143 13.0627 17.9522 13.0316 17.8872 13.0316C17.8222 13.0316 17.7345 13.1714 17.6824 13.1842C17.6303 13.197 17.5686 13.0237 17.5686 13.0237L17.5116 12.9978C17.5116 12.9978 17.1776 13.2152 16.942 13.4716C16.7065 13.7279 16.3207 14.1629 16.1473 14.2404C15.9739 14.3179 15.3782 14.344 15.1745 14.3881C14.9707 14.4321 14.7447 14.5797 14.7137 14.6133C14.6826 14.647 14.8045 14.6831 14.8225 14.7168C14.8406 14.7478 14.623 14.7348 14.6049 14.768C14.5921 14.7939 14.6561 14.9414 14.6879 15.0164C14.7434 14.9888 14.8044 14.9738 14.8664 14.9724C15.0657 14.9673 15.2108 15.0994 15.4489 15.0994C16.0237 15.0994 16.5441 14.6773 16.9272 14.5478C17.2095 14.4521 17.4529 14.3821 17.6237 14.2268C17.7065 14.157 17.8541 14.0015 17.9887 13.7711C18.0871 13.6132 18.183 13.4656 18.2789 13.3569L18.2784 13.3577Z" fill="#D2B257"/>
<path fill-rule="evenodd" clip-rule="evenodd" d="M10.0352 26.1707C10.0352 26.1707 9.984 25.979 9.50955 25.4846C9.3749 25.3449 9.29212 25.2286 9.2015 25.1455C8.97622 24.933 8.84412 24.8762 8.6837 24.7545C8.33161 24.4931 7.94846 24.4931 7.65338 24.172C7.3583 23.851 7.0144 23.2376 6.77547 22.6108C6.53995 21.9843 6.4751 21.7849 6.4751 21.7668C6.4751 21.7487 6.53995 21.627 6.62272 21.6451C6.7055 21.6632 6.7055 21.8237 6.72632 21.8626C6.76756 21.9261 6.81433 21.9858 6.8661 22.0411C6.98778 22.181 7.16118 22.3483 7.24924 22.5978C7.23115 22.3855 7.15862 22.15 7.15862 22.15C7.15862 22.15 7.6143 22.4374 8.00256 22.7376C8.39356 23.0379 8.55399 23.1415 8.66816 23.333C8.78234 23.5245 9.05131 24.0295 9.18016 24.1772C9.30902 24.3248 11.0746 24.8813 11.0746 24.8813L11.9144 25.5075L12.3314 26.4214L12.005 26.9334L11.3785 27.0681L10.361 26.6124L10.0352 26.1705V26.1707Z" fill="#D2B159"/>
<path fill-rule="evenodd" clip-rule="evenodd" d="M7.77472 23.0225C7.77472 23.0225 7.98703 23.3616 8.50483 23.6826C8.97092 23.9649 9.70871 24.2213 10.3665 24.374C10.7443 24.4646 11.1223 24.5344 11.4615 24.5397C12.3754 24.5525 13.0045 24.2912 13.7839 24.2057C14.206 24.1617 14.7238 24.1281 15.2622 24.0009C15.9534 23.8352 16.3625 23.6487 16.9192 23.3865C17.323 23.2002 17.6934 23.0604 17.9936 22.8817C18.4156 22.6332 18.7237 22.3562 19.081 22.2734C19.037 22.3951 18.9904 22.6126 18.6383 22.8378C18.8247 22.8325 19.081 22.8197 19.081 22.8197C19.081 22.8197 18.8326 22.9672 18.395 23.2986C18.1257 23.5034 17.7684 23.8501 17.4034 24.0805C17.1677 24.2281 16.9114 24.3365 16.7431 24.4249C16.3335 24.6501 16.1683 24.764 15.8991 25.0393C15.9949 25.0341 16.0027 25.0393 16.0027 25.0393C16.0027 25.0393 15.6634 25.0833 15.4202 25.2127C15.369 25.2127 15.2803 25.1946 15.125 25.2386C15.0033 25.2773 14.8427 25.3656 14.6772 25.412C14.4415 25.482 14.364 25.4509 14.364 25.4509L14.4027 25.5286C14.4027 25.5286 14.0955 25.5233 13.9931 25.5337C14.0112 25.5388 14.0061 25.5467 14.0061 25.5467C13.9881 25.5497 13.9708 25.5558 13.9549 25.5647C13.9056 25.5967 13.8514 25.6203 13.7945 25.6345C13.7634 25.6397 13.7375 25.6397 13.6986 25.6475C13.7115 25.6786 13.8126 25.8523 13.8592 25.9547C13.8204 25.9807 13.2378 26.4208 13.2378 26.4208C13.2558 26.4492 13.2706 26.4796 13.2818 26.5114C13.2999 26.5683 13.3077 26.6512 13.3258 26.69C13.3697 26.7676 13.3956 26.7806 13.3956 26.7806C13.3956 26.7806 13.3258 26.7935 13.204 26.8246C13.1005 26.8505 12.9736 26.8944 12.7944 26.9204C12.7394 26.9275 12.6841 26.9318 12.6287 26.9333C12.6546 26.9903 12.7684 27.2078 12.5587 27.4588C12.3489 27.7099 12.2842 27.7464 12.2196 27.9068C12.187 27.8822 12.1523 27.8605 12.116 27.842C12.0462 27.8109 11.9502 27.7645 11.9166 27.7022C11.897 27.7852 11.8711 27.8665 11.839 27.9455C11.7743 28.1189 11.6785 28.2899 11.6605 28.4193C11.5905 28.3417 11.4611 28.1889 11.2824 28.22C11.1037 28.251 10.9614 28.4944 10.9303 28.5644C10.9303 28.5203 10.8993 28.4867 10.8916 28.5384C10.8863 28.5954 10.788 29.1907 10.2391 29.6724C10.234 29.5507 10.234 29.2814 10.2211 29.1935C10.1699 29.2447 10.1072 29.3203 9.73431 29.4809C9.36926 29.6413 9.42711 29.8019 9.42711 29.8019C9.42711 29.8019 9.39605 29.5459 9.59283 29.2762C9.79217 29.0071 9.91386 28.8801 9.91386 28.8595C9.91064 28.8384 9.90166 28.8187 9.88791 28.8025C9.86197 28.7765 9.81026 28.7455 9.81026 28.7248C9.84132 28.712 10.1494 28.5644 10.1313 28.2587C10.1132 27.9845 9.9968 27.8419 9.91386 27.7411C9.90106 27.7281 10.0357 27.6324 10.0175 27.6013C10.0045 27.5832 9.83893 27.4614 9.81811 27.3965C9.82301 27.3578 9.83169 27.3197 9.84405 27.2827C9.86214 27.2257 9.87511 27.1868 9.86999 27.148C9.85702 27.0833 9.78705 26.9046 9.7664 26.8866C9.78449 26.8917 9.91386 26.8866 9.91386 26.8866C9.91386 26.8866 9.81043 26.7208 9.79217 26.6432C9.77391 26.5655 9.73517 26.3609 9.71452 26.3222C9.75855 26.3273 9.86726 26.335 9.86726 26.3222C9.87255 26.2833 9.77152 26.2186 9.81606 26.1686C9.84712 26.1737 9.90669 26.1996 9.96352 26.2722C9.93246 26.1892 9.88075 26.0288 9.77186 25.9641C9.82306 25.946 9.99714 25.8993 10.1499 25.9899C10.3026 26.0805 10.3547 26.2073 10.3547 26.2073C10.3547 26.2073 10.4453 26.2773 10.5853 26.3809C10.7457 26.5077 10.9501 26.6881 11.2765 26.8157C11.3464 26.8546 11.5249 26.8546 11.6545 26.8287C11.7109 26.8153 11.765 26.7935 11.8149 26.764C11.8329 26.7534 11.8521 26.7447 11.8719 26.7381C11.8441 26.6822 11.8121 26.6285 11.7762 26.5775C11.8202 26.5775 11.8719 26.5828 11.8719 26.5828C11.8719 26.5828 11.903 26.5128 11.7632 26.378C11.7943 26.3469 11.8332 26.3268 11.8332 26.2744C11.7891 26.2693 11.7115 26.2046 11.6934 26.1786C11.7192 26.1605 11.7581 26.101 11.8021 26.0829C11.7632 26.0518 11.6675 25.9223 11.6234 25.9095C11.6655 25.8939 11.7062 25.8748 11.7451 25.8525C11.7451 25.8525 11.5277 25.7955 11.4577 25.7489C11.3877 25.6977 11.2843 25.6091 11.2222 25.5832C11.1573 25.5572 11.0435 25.5444 10.9969 25.4926C11.0408 25.5055 11.1107 25.4926 11.1626 25.4926C11.2014 25.4926 11.2196 25.4977 11.2324 25.4977C11.2273 25.4796 11.2273 25.4407 11.3283 25.4279C11.3769 25.4205 11.4241 25.4057 11.4681 25.3838C11.4681 25.3838 11.3722 25.3787 11.2633 25.2751C11.1544 25.1715 11.064 25.0888 11.0019 25.0758C10.9372 25.0628 10.8155 25.1198 10.7404 25.1145C10.6368 25.1017 10.5928 25.0498 10.5928 25.0498C10.5928 25.0498 10.2485 25.0809 9.4848 24.615C8.82449 24.211 8.53709 23.8538 8.53709 23.8538C8.47529 23.8314 8.41556 23.8036 8.35857 23.7709C8.11008 23.6415 7.76567 23.3722 7.77608 23.0199L7.77472 23.0225Z" fill="#C2A44D"/>
<path fill-rule="evenodd" clip-rule="evenodd" d="M17.2996 7.48334C17.3595 7.50279 17.4127 7.53869 17.4532 7.58693C17.5749 7.72671 17.6526 7.99073 17.3756 8.27301C17.4843 8.31175 17.5292 8.32421 17.624 8.31175C17.5283 8.42576 17.3109 8.66913 17.2979 8.88144C17.2849 9.05483 17.3936 9.10672 17.3936 9.10672C17.3936 9.10672 17.2279 9.2982 17.2203 9.61872C17.2985 9.53046 17.3842 9.44904 17.4763 9.37535C17.6679 9.2226 17.9319 9.0492 18.1106 8.94049C18.1082 8.98605 18.1143 9.03167 18.1287 9.07497C18.1287 9.07497 18.4625 8.80054 18.7431 8.9224C18.8699 8.9794 18.8129 9.15792 18.8129 9.15792C18.8129 9.15792 18.9865 9.09323 19.1082 9.21492C19.2299 9.3366 19.4019 9.65046 19.4901 9.77215C19.5289 9.82915 19.6299 9.93786 19.7333 10.1061C19.8746 10.3417 19.9926 10.5906 20.0856 10.8491C20.0907 10.7144 20.1243 10.5048 20.5076 10.6367C20.8908 10.7714 21.3256 11.0537 21.6907 11.6095C22.0557 12.1654 22.1462 12.7929 22.33 13.0319C22.5164 13.2623 22.708 13.6454 22.721 13.806C22.734 13.9666 22.664 14.4843 23.0472 15.8849C23.1559 15.4501 23.3216 14.4843 23.3216 14.4843L23.4122 13.6325L23.5158 10.9968L20.7636 8.71043L18.6122 7.14917L17.2115 7.28383L17.2994 7.48316L17.2996 7.48334Z" fill="#CAA13E"/>
<path fill-rule="evenodd" clip-rule="evenodd" d="M22.413 11.4054C22.413 11.4054 22.3741 11.1494 21.7269 10.7142C21.0796 10.2845 20.5747 10.2845 20.1088 9.91944C19.7514 9.63204 19.3787 8.97173 19.136 8.7543C18.9003 8.53943 18.8616 7.91804 18.8616 7.91804L19.6564 7.25244L20.8384 5.54389L21.8377 4.4436L22.3165 5.1092L22.9821 5.89103L23.3523 7.45997L23.487 9.75646L22.4118 11.4056L22.413 11.4054Z" fill="#B59544"/>
<path fill-rule="evenodd" clip-rule="evenodd" d="M23.213 14.1582C23.2326 13.8099 23.1896 13.4609 23.0861 13.1278C22.9154 12.5971 22.5425 11.6546 22.3693 11.3017C22.2993 10.9107 22.3512 10.8796 22.4263 10.8356C22.5013 10.7916 22.7836 10.6308 22.9383 10.0668C23.0929 9.50271 23.5726 9.48427 23.5726 9.48427L23.8677 9.26685L24.3157 10.3878L24.7065 11.4002L24.8282 12.1743L24.9188 12.8345L24.7065 14.23L23.6581 15.1775L23.2129 14.1582H23.213Z" fill="#C89D3A"/>
<path fill-rule="evenodd" clip-rule="evenodd" d="M8.58264 29.7126V29.6839C8.60443 29.6703 8.62366 29.6529 8.63947 29.6327C8.65756 29.6067 8.67071 29.5757 8.68351 29.568C8.70945 29.555 8.83113 29.5168 8.89581 29.5291C8.9605 29.5414 9.1315 29.6119 9.22213 29.6067C9.4085 29.6016 9.62593 29.4591 9.97033 29.524C10.4881 29.6197 10.6098 29.9718 10.9102 30.1711C11.115 30.3111 11.327 30.2488 11.358 30.2488H11.4278C11.4408 30.2488 11.5365 30.1401 11.5884 30.1454C11.692 30.1505 11.7023 30.236 11.7669 30.2411C11.9197 30.2592 12.2149 30.1635 12.3626 30.2024C12.4063 30.2161 12.4461 30.2402 12.4786 30.2726C12.5111 30.305 12.5352 30.3448 12.5489 30.3886C12.58 30.4843 12.5541 30.606 12.479 30.676C12.3185 30.8234 12.1658 30.9634 12.1347 31.0856C12.1742 31.1157 12.2122 31.1478 12.2484 31.1818C10.9674 30.8554 9.73491 30.362 8.58264 29.7141V29.7126Z" fill="#CEB052"/>
<path fill-rule="evenodd" clip-rule="evenodd" d="M22.369 24.5398C22.369 24.5398 22.7728 24.0013 22.9127 23.7346C23.0525 23.4596 22.47 19.978 22.47 19.978L23.6403 16.1438L23.609 14.8959C23.609 14.8959 23.666 13.7437 23.8007 13.244C23.9613 13.5314 24.461 13.8784 24.5697 14.0622C24.6209 13.71 24.7948 12.967 24.769 12.1748C24.8648 12.3223 25.0952 13.8059 25.0952 13.8059L25.3256 14.8051L25.626 15.8667L25.96 16.9878L26.1593 17.7619L26.2731 17.9483L26.369 18.2744L26.4597 18.6267L26.7211 19.4525L26.8747 20.1308L26.9964 21.3606C27.0229 21.4548 27.0419 21.5509 27.0534 21.648C27.0585 21.7827 27.0353 21.8603 27.0353 21.8837C27.0353 21.9071 27.0794 22.1788 27.0613 22.3834C27.0353 22.5882 27.0353 22.7485 26.8747 22.8954C26.7141 23.0423 26.6133 23.9206 26.6133 23.9206L26.3259 23.7291C26.3259 23.7291 26.3829 23.4675 26.2482 23.2294C26.1136 22.9913 25.8521 22.942 25.7045 22.9809C25.557 23.012 25.2619 23.0584 25.166 23.1413C25.0754 23.2241 24.8528 23.4804 24.6482 23.597C24.3922 23.7506 23.9751 23.7627 23.7526 23.8144C23.5273 23.8656 23.2788 24.0192 23.0171 24.1976C22.812 24.3304 22.5954 24.4446 22.37 24.5389L22.369 24.5398Z" fill="#CCA847"/>
<path fill-rule="evenodd" clip-rule="evenodd" d="M22.369 30.1966C22.369 30.1966 22.386 30.2077 22.419 30.2258C24.2583 29.364 25.9064 28.1425 27.2659 26.6333C27.251 26.1093 27.2318 25.5722 27.2106 25.3733C27.1667 24.9512 27.1978 24.5215 27.1848 24.273C27.1719 24.0245 27.0321 23.0121 26.9674 22.7506C26.8974 22.4892 26.7626 22.3596 26.7421 22.3596C26.724 22.3649 26.6151 22.8517 26.6151 22.974C26.6151 23.0964 26.5892 23.391 26.5892 23.4661C26.5711 23.4608 26.5634 23.4149 26.5634 23.3961C26.5375 23.4608 26.5064 23.5748 26.4935 23.5877C26.4805 23.6007 26.5115 23.479 26.4935 23.4531C26.4754 23.4271 26.4423 23.4401 26.4494 23.3754C26.4525 23.3371 26.4585 23.299 26.4675 23.2616C26.4675 23.2616 26.3899 23.3754 26.333 23.6654C26.276 23.9528 26.276 23.9606 26.2554 23.9864C26.2373 24.0176 26.1337 24.1211 26.1284 24.16C26.1233 24.2298 26.2243 24.2998 26.232 24.3385C26.2371 24.4034 26.1414 24.7036 26.1103 24.8505C26.0792 24.9974 26.0922 25.2854 26.0591 25.433C26.0332 25.5676 26.0079 25.6453 25.9193 25.7021C25.984 25.7151 26.0461 25.7332 26.0461 25.7332C26.0461 25.7332 26.1368 26.1163 25.9064 26.4426C25.8236 26.5565 25.8029 26.6084 25.7149 26.712C25.5413 26.9034 25.4067 27.1216 25.3937 27.2634C25.3847 27.2215 25.3787 27.1791 25.3756 27.1364C25.3756 27.1364 25.1064 27.4498 24.9924 27.6284C24.845 27.8588 24.6404 27.8459 24.5828 27.9029C24.5253 27.9599 24.5129 28.0633 24.5316 28.1462C24.4804 28.159 24.3842 28.1773 24.3193 28.3766C24.2883 28.4801 24.2106 28.5814 24.0889 28.6511C23.9672 28.7207 23.8196 28.7417 23.7445 28.7598C23.8092 28.7779 23.8352 28.7779 23.8662 28.7985C23.8275 28.8632 23.6488 28.9642 23.4494 29.0938C23.2501 29.2155 23.1542 29.394 23.105 29.5106C23.0538 29.6193 22.9782 29.6892 22.8566 29.7022C22.9078 29.7333 22.9835 29.8056 23.0223 29.829C22.9653 29.842 22.8687 29.842 22.6961 29.9896C22.5149 30.1398 22.4528 30.1838 22.3698 30.1968L22.369 30.1966Z" fill="#C39D3C"/>
<path fill-rule="evenodd" clip-rule="evenodd" d="M18.7665 31.3963C18.8656 31.3268 18.973 31.2699 19.0861 31.2268C19.4899 31.0664 19.9171 31.0353 20.0854 30.9836C20.246 30.9324 20.3728 30.8617 20.5721 30.823C20.5668 30.8684 20.5624 30.9111 20.5576 30.9513C19.9699 31.1361 19.3715 31.2847 18.7656 31.3963H18.7665Z" fill="#D2BA6B"/>
<path fill-rule="evenodd" clip-rule="evenodd" d="M26.2144 20.7754C26.2144 20.7754 26.1316 21.2232 25.984 21.5055C25.8364 21.7878 25.6768 22.1786 25.6768 22.1786C25.6778 22.0905 25.6882 22.0028 25.7079 21.917C25.5215 22.0257 25.0684 22.2873 24.9399 22.4037C24.8182 22.5124 24.6136 22.7041 24.5619 22.7947C24.6835 22.4375 24.8103 22.1165 24.8312 21.9688C24.6448 22.1035 23.7747 22.8206 23.3218 23.2944L21.9107 24.4362C21.7479 24.524 21.5802 24.6025 21.4084 24.6713C21.1652 24.7748 20.8778 24.8628 20.6655 24.9458C20.7225 24.793 20.813 24.6582 20.94 24.5288C21.0746 24.402 21.4784 23.9644 21.5405 23.7608C21.5975 23.5485 21.6105 23.4217 21.5354 23.243C21.4654 23.2611 21.305 23.269 21.1963 23.3C21.0876 23.3311 20.971 23.4475 20.971 23.4475C20.971 23.4475 21.0538 22.9737 21.2325 22.5259C21.0978 22.531 20.8674 22.5698 20.8674 22.5698C20.8674 22.5698 21.1885 22.0313 21.7378 21.656C21.5696 21.6918 21.405 21.7429 21.246 21.8086C20.9249 21.9432 20.5729 22.1426 20.3114 22.2513C20.4589 22.0465 21.4945 20.5685 22.1107 19.1911C22.7251 17.8163 22.9547 17.4643 23.0893 16.7265C23.1591 16.3614 23.1405 15.8219 23.1591 15.3388C23.1772 14.8597 23.2368 14.43 23.1981 14.1426C23.3585 14.3419 23.9592 14.9038 23.9799 16.1595C23.998 17.4151 23.4052 19.111 22.776 20.0248C22.9296 20.0688 23.3276 20.1207 23.7365 19.4104C24.1454 18.7001 24.1405 18.5017 24.2881 18.2065C24.3062 18.3541 24.3009 18.4058 24.3009 18.4058C24.3009 18.4058 24.8965 17.6836 25.1786 16.7748C25.2356 17.1658 25.4039 17.5102 25.1397 18.2273C24.9042 18.8745 24.5962 19.0325 24.5962 19.0325C24.5962 19.0325 24.7489 19.0066 24.974 18.8719C25.0129 18.9677 25.0052 19.0767 25.0699 19.1153C25.1346 19.1539 25.2227 19.2189 25.2356 19.281C25.3054 19.1774 25.4142 19.0453 25.448 18.947C25.422 19.1518 25.4039 20.0473 25.4992 20.503C25.6987 20.4849 25.9031 20.4719 26.0429 20.112C25.9472 20.4642 25.9472 20.6764 26.0118 20.9768C26.118 20.9044 26.2137 20.7749 26.2137 20.7749L26.2144 20.7754Z" fill="#C0993A"/>
<path fill-rule="evenodd" clip-rule="evenodd" d="M19.4874 6.50469C19.4874 6.50469 19.288 6.58747 18.9489 6.58747C18.6538 6.58747 18.7366 6.47363 18.2758 6.47363C17.5665 6.47363 15.0888 6.88323 14.6538 6.87743C14.3715 6.87231 15.6064 6.99912 15.6064 6.99912L18.7626 7.04315L19.3968 6.99195L19.6324 6.51237L19.4874 6.50469Z" fill="#A88F33"/>
<path fill-rule="evenodd" clip-rule="evenodd" d="M11.3036 12.6743C11.3036 12.6743 10.8996 12.9823 10.7288 13.218C10.558 13.4537 10.4674 13.6088 10.2731 13.8005C10.3187 13.8022 10.3643 13.7961 10.4078 13.7824C10.4078 13.7824 10.4078 13.8336 10.3767 13.8471C10.4036 13.8441 10.4307 13.8471 10.4563 13.856C10.4818 13.8649 10.505 13.8793 10.5242 13.8983C10.4672 13.9294 10.3119 14.0848 10.4336 14.2686C10.5242 14.4084 10.7158 14.4212 10.7158 14.4212C10.7158 14.4212 10.6718 14.5482 10.8556 14.5352C11.2517 14.5171 11.6944 14.3436 11.8989 14.3876C12.1037 14.4388 12.2201 14.4576 12.365 14.7088C12.5186 14.9573 12.6524 14.9962 12.6524 14.9962C12.6524 14.9962 12.743 14.7656 12.7224 14.4214C12.7967 14.2358 12.8379 14.0387 12.8441 13.8389L12.7094 12.8473L12.1218 12.1042L11.3606 12.5263L11.3036 12.6738V12.6743Z" fill="#E3C571"/>
<path fill-rule="evenodd" clip-rule="evenodd" d="M12.0259 12.5266C12.0259 12.5266 12.0829 12.6613 12.3211 12.6741C12.2952 12.7311 12.2952 12.7389 12.303 12.7828C12.3082 12.8268 12.3158 12.8915 12.3158 12.8915C12.3421 12.8788 12.3658 12.8614 12.3858 12.8403C12.3988 12.8973 12.3728 12.9877 12.3858 13.0526C12.3938 13.092 12.4068 13.1303 12.4246 13.1664C12.4283 13.1576 12.4327 13.149 12.4375 13.1407C12.4426 13.1277 12.4887 13.2804 12.6162 13.3967C12.6161 13.3788 12.6205 13.3612 12.629 13.3455C12.631 13.3779 12.6417 13.4092 12.6601 13.4361C12.6505 13.4315 12.6418 13.4254 12.6343 13.418C12.6343 13.418 12.6471 13.8276 12.7171 14.0394C12.7288 14.0257 12.7392 14.011 12.7481 13.9954C12.7481 13.9826 12.743 14.1094 12.73 14.2002C12.712 14.2908 12.7249 14.4176 12.7249 14.4176C12.7716 14.3808 12.8229 14.3504 12.8775 14.327C12.9552 14.2957 13.0823 14.2 13.1598 13.9877C13.2047 13.8674 13.2394 13.7436 13.2634 13.6175C13.2884 13.6657 13.3057 13.7175 13.3146 13.7711C13.3199 13.8358 13.4416 13.8022 13.4416 13.8022L13.4675 13.5199L13.6211 12.8804L13.7609 12.4843L14.434 11.4359L15.6502 10.4992L16.7117 10.7426L17.6074 9.52577L16.0644 8.59888L14.6041 8.75162L13.2789 10.5871L12.2175 12.252L12.0259 12.5264V12.5266Z" fill="#D8B65B"/>
<path fill-rule="evenodd" clip-rule="evenodd" d="M19.6738 9.87039C19.6738 9.87039 19.5832 9.88848 19.3217 10.024C19.0602 10.1595 18.879 10.2025 18.778 10.4018C18.6769 10.6012 18.6692 10.7592 18.6692 10.7592C18.6692 10.7592 18.8479 10.6816 18.9515 10.6556C19.0602 10.6299 19.1819 10.6375 19.169 10.6816C19.1565 10.7118 19.1392 10.7397 19.1178 10.7643C19.1178 10.7643 19.3226 10.7592 19.3171 10.8603C19.3116 10.9613 19.2783 11.0726 19.2396 11.1217C19.2007 11.1729 19.0403 11.2487 19.0222 11.3083C18.9781 11.4299 19.0403 11.4351 19.0169 11.5334C18.9988 11.6293 18.9135 11.8156 18.6337 12.1418C18.3463 12.4681 18.2241 12.6985 18.2241 12.6985C18.2241 12.6985 18.0844 12.437 18.0118 12.2118C17.9606 12.2375 17.6857 12.3903 17.6857 12.3903L17.0488 10.1716L17.0616 10.024C17.0616 10.024 17.1186 9.95419 17.1315 9.82465C17.0358 9.79359 17.0228 9.76765 16.8958 9.64614C16.7689 9.52462 16.6654 9.37682 16.4533 9.27579C16.4222 9.21879 16.3833 9.1413 16.228 9.11007C16.0727 9.07884 15.9795 9.05324 15.9795 9.05324C15.9795 9.05324 16.0623 9.02201 16.1012 8.95732C16.0053 8.9703 15.9278 9.00136 15.7181 8.99624C15.5058 8.99095 15.4824 8.98327 15.366 9.00136C15.2496 9.01945 15.11 9.07133 15.0579 8.89264C15.0009 8.84861 14.8792 8.88752 14.7757 9.0401C14.6721 9.19267 14.6359 9.31453 14.4365 9.37409C14.4225 9.46196 14.3918 9.54632 14.3459 9.62258C14.2889 9.7185 14.1983 9.81424 14.0766 9.95658C13.8849 10.1819 13.916 10.552 13.6105 10.8343C13.3025 11.1164 13.6617 10.0523 13.6617 10.0523L14.1536 8.87472L15.5542 7.50512L17.729 7.35767L17.9413 8.48407L19.0029 8.84912L19.6734 9.87176L19.6738 9.87039Z" fill="#D3AE4D"/>
<path fill-rule="evenodd" clip-rule="evenodd" d="M20.0181 10.1189L19.1042 8.80122L18.4647 8.30919C18.4647 8.30919 18.0091 7.47053 17.978 7.44459C17.9521 7.4265 17.5223 7.37991 17.2479 7.36182L17.2991 7.48862C17.359 7.50808 17.4122 7.54397 17.4527 7.59222C17.5744 7.73199 17.652 7.99601 17.375 8.2783C17.4837 8.31704 17.5286 8.3295 17.6235 8.31704C17.5278 8.43104 17.3104 8.67441 17.2974 8.88672C17.2844 9.06012 17.3931 9.11183 17.3931 9.11183C17.3931 9.11183 17.2274 9.30349 17.2197 9.62383C17.298 9.53558 17.3836 9.45416 17.4757 9.38046C17.6674 9.22686 17.9314 9.05415 18.1101 8.94543C18.1077 8.99105 18.1138 9.03673 18.1282 9.08009C18.1282 9.08009 18.462 8.80566 18.7426 8.92734C18.8694 8.98434 18.8124 9.16303 18.8124 9.16303C18.8124 9.16303 18.986 9.09835 19.1076 9.22003C19.2293 9.34172 19.4027 9.65489 19.4908 9.77675C19.5295 9.83375 19.6306 9.94247 19.734 10.1106C19.8753 10.3462 19.9933 10.5951 20.0862 10.8537C20.0914 10.7501 20.1122 10.6052 20.291 10.6052L20.0192 10.1184L20.0181 10.1189Z" fill="#CAA13E"/>
<path fill-rule="evenodd" clip-rule="evenodd" d="M6.3172 13.8625C6.3172 13.8625 6.25252 13.7019 6.3172 13.3888C6.38188 13.0756 6.48292 12.928 6.51654 12.4672C6.55016 12.0064 6.85053 11.4316 6.85053 11.4316L7.68151 11.0537L8.26928 11.2141L8.44268 12.0013L7.6996 12.4109C7.6996 12.4109 7.66086 12.5842 7.45111 12.724C7.24136 12.8638 6.9514 12.9725 6.88159 13.115C6.83987 13.2023 6.80941 13.2945 6.79097 13.3895C6.79097 13.3895 6.57866 13.3454 6.45186 13.4852C6.3172 13.6277 6.32232 13.7545 6.3172 13.8632V13.8625Z" fill="#F4EFC8"/>
<path fill-rule="evenodd" clip-rule="evenodd" d="M7.9949 13.6529C7.9949 13.6529 7.92493 13.6969 7.87322 13.8065C7.82202 13.7237 7.69965 13.2317 7.69453 12.7889C7.68941 12.3462 7.66296 12.2365 7.76536 12.0839C7.86776 11.9313 8.26934 11.7706 8.21233 11.4958C8.15533 11.2343 7.91708 11.1256 7.62456 11.2007C7.41976 11.2519 7.26735 11.6875 7.05504 11.9049C6.89445 12.0706 6.70296 12.0447 6.65125 12.1353C6.58127 12.257 6.64595 12.3787 6.6253 12.4563C6.62001 12.4823 6.55533 12.622 6.43877 12.7903C6.20325 13.1294 5.80457 13.6085 5.75269 14.0382C5.77078 13.7949 5.75798 13.7897 5.82266 13.5204L5.78375 13.4557L6.03975 12.6169L6.20546 11.9257L6.57581 10.7683L7.2281 9.58519L7.86247 8.87573L8.52261 8.91976L8.60026 9.91134L8.97829 11.773L9.77308 12.7516L8.49922 13.6088L7.99439 13.6529H7.9949Z" fill="#EBCC73"/>
<path fill-rule="evenodd" clip-rule="evenodd" d="M8.39097 14.0045C8.39097 14.0045 8.28226 14.0305 8.24335 14.0098C8.20443 13.9892 8.16586 13.9658 8.17866 13.9399C8.19146 13.9139 8.26144 13.8701 8.26144 13.8492C8.26287 13.8304 8.25692 13.8118 8.24484 13.7973C8.23277 13.7828 8.21552 13.7736 8.19675 13.7716C8.13719 13.7639 8.1191 13.8026 8.1191 13.8026C8.1191 13.8026 8.0621 13.7588 8.01568 13.7514C8.04314 13.7481 8.07078 13.7463 8.09845 13.7462C8.0269 13.7137 7.95101 13.692 7.87317 13.6815C7.93785 13.6427 8.06483 13.5287 8.1476 13.5287C8.23037 13.5287 8.28226 13.5159 8.26929 13.4719C8.25632 13.4279 8.19163 13.3632 8.12183 13.3372C8.1476 13.3062 8.16586 13.2596 8.10374 13.1324C8.03889 13.0056 8.06483 12.9201 8.08565 12.8892C8.10374 12.8503 8.16842 12.7805 8.19948 12.7365C8.23054 12.6925 8.25649 12.6329 8.3082 12.6018C8.33414 12.5837 8.41691 12.5506 8.49986 12.5191C8.59048 12.488 8.66557 12.4491 8.71729 12.488C8.77429 12.5267 8.74835 12.5786 8.74835 12.5786C8.74835 12.5786 8.92704 12.5138 9.08746 12.5967C9.24806 12.6742 9.63906 12.7235 9.63906 12.7235L9.77917 13.0058L8.85228 13.8006L8.46914 13.9923L8.39148 14.0051L8.39097 14.0045Z" fill="#E5C66B"/>
<path fill-rule="evenodd" clip-rule="evenodd" d="M9.67766 12.7053C9.67766 12.7053 9.39025 12.8969 9.32557 12.9667C9.36431 12.972 9.429 12.998 9.40306 13.0367C9.37199 13.0754 9.18563 13.2101 9.08203 13.3371C8.97332 13.4639 8.86972 13.6245 8.83354 13.7021C8.7948 13.7719 8.49955 13.9766 8.39868 14.0023C8.61099 14.0023 9.03817 13.7409 9.1986 13.7409C9.19348 13.8185 9.24263 13.9066 9.33325 13.9143C9.42388 13.922 9.68534 13.9713 10.0374 13.7538C10.3895 13.5415 10.2731 13.3835 10.4206 13.2801C10.7029 13.0935 10.8167 12.9278 10.972 12.8244C11.1273 12.721 11.2077 12.6974 11.2077 12.6974C11.2077 12.6974 11.2128 12.6198 11.2589 12.6276C11.2715 12.6291 11.2835 12.6339 11.2935 12.6417C11.3036 12.6495 11.3113 12.6598 11.3159 12.6717C11.3159 12.6717 11.5852 12.48 11.9303 12.4283C11.9222 12.4247 11.9158 12.4182 11.9122 12.4102C11.9122 12.4102 11.938 12.3972 11.9433 12.3842C11.9433 12.3842 11.9613 12.3583 11.9743 12.3713C11.9873 12.3842 12.0054 12.48 12.0313 12.5189C12.0883 12.493 12.197 12.2496 12.197 12.2496L12.4587 11.5014V10.8179L12.2539 10.8568L10.7179 11.5091L9.78569 12.4749L9.67698 12.7053H9.67766Z" fill="#E6BD62"/>
<path fill-rule="evenodd" clip-rule="evenodd" d="M14.0996 9.35261C14.1827 9.33245 14.2624 9.30013 14.336 9.25669C14.3049 9.33964 14.3049 9.43026 14.1703 9.62704C14.0356 9.82382 14.0305 9.85232 13.9218 10.0568C13.8131 10.2691 13.8001 10.5746 13.6965 10.7091C13.7429 10.6865 13.7927 10.6717 13.844 10.6652C13.844 10.6652 13.7405 10.7558 13.6965 10.8516C13.6525 10.9473 13.5748 11.1467 13.3833 11.2685C13.1918 11.3904 12.9483 11.4679 12.6868 11.7553C12.4252 12.0374 12.1561 12.3947 12.0212 12.5233C12.0912 12.4016 12.187 12.1582 12.2129 11.9978C12.2388 11.8373 12.2076 11.6455 12.2516 11.4334C12.2957 11.2212 12.2957 11.0683 12.5076 10.698C12.7196 10.3276 13.0824 9.04097 13.0824 9.04097L13.8643 8.79248L14.1 9.35175L14.0996 9.35261Z" fill="#B6933F"/>
<path fill-rule="evenodd" clip-rule="evenodd" d="M13.5353 8.87873C13.5353 8.87873 13.2997 9.21785 13.2351 9.51822C13.1704 9.81859 13.2298 9.79265 13.191 9.94028C13.1679 10.0303 13.1679 10.1247 13.191 10.2147C13.2726 10.0833 13.3843 9.97321 13.5168 9.89352C13.7395 9.75903 13.9208 9.66312 14.0288 9.54928C14.1375 9.4276 14.2282 9.22826 14.4637 9.07551C14.3679 9.06254 14.2333 9.01851 14.2077 9.02431C14.3036 8.9156 14.5908 8.74988 14.8808 8.55054C15.1682 8.34574 15.1501 8.26314 15.6162 8.05868C15.4635 8.08462 15.3909 8.04571 15.2639 8.05868C15.3151 7.94996 15.4943 7.89808 15.6735 7.71956C15.8527 7.54105 15.5597 7.27686 15.5597 7.27686L14.1944 8.10271L13.5342 8.87942L13.5353 8.87873Z" fill="#C49937"/>
<path fill-rule="evenodd" clip-rule="evenodd" d="M9.83038 8.26246L9.86144 8.01397L10.2524 7.38745L10.6615 6.28717V4.78291L10.6305 3.91302L10.6952 3.34334L10.7443 3.16226L10.7962 3.09229L11.13 3.26568L11.591 3.8922L11.635 5.10137L11.187 7.00943L9.90804 8.40497L9.83038 8.26246Z" fill="#DFC068"/>
<path fill-rule="evenodd" clip-rule="evenodd" d="M10.8479 3.02229C10.8479 3.02229 10.6431 3.02758 10.5994 3.87937C10.5557 4.73117 10.5346 5.179 10.5035 5.60106C10.4724 6.02312 10.4001 6.27929 10.3637 6.52795C10.3274 6.77661 10.3067 7.11555 10.1903 7.32274C10.1391 7.41849 10.0297 7.71886 9.77338 7.94414C9.48597 8.19263 9.05658 8.3662 8.99155 8.37917C8.87755 8.40494 8.30018 8.46194 8.06466 8.59148C7.98189 8.63551 7.83938 8.68722 7.68152 8.83485C7.36817 9.11696 6.9514 9.62179 6.65103 10.2302C6.19023 11.139 5.72943 13.7047 5.72943 13.7047L5.83303 13.5313C5.83303 13.5313 5.846 13.3009 6.0764 12.8969C6.30168 12.4931 6.23699 12.04 6.55017 11.2658C6.67185 10.9707 6.8246 10.5876 7.01097 10.2613C7.30622 9.73051 7.66343 9.27483 8.02336 9.02634C8.61097 8.62254 9.25831 8.53448 9.25831 8.53448L9.9548 8.07368C9.9548 8.07368 10.0765 7.83816 10.2371 7.56885C10.4622 7.19099 10.7491 6.76893 10.8117 6.15538C10.9076 5.24658 10.6771 4.65113 10.69 4.11268C10.703 3.57422 10.7081 3.1781 10.817 3.08219C10.9259 2.98628 10.8481 3.02263 10.8481 3.02263L10.8479 3.02229Z" fill="#A88F33"/>
<path fill-rule="evenodd" clip-rule="evenodd" d="M10.8479 7.08715C10.8479 7.08715 11.1551 6.33109 11.2958 5.66055C11.3217 5.52589 11.3734 5.3914 11.3864 5.28269C11.4511 4.64832 11.4692 4.38686 11.3864 4.03989C11.3217 3.78389 11.0732 3.55315 10.9437 3.37429C10.8169 3.18776 10.7573 3.11829 10.7833 3.07904C10.8092 3.03979 10.9101 2.97562 11.0084 2.9833C11.1129 2.98634 11.2156 3.0106 11.3105 3.05461C11.4053 3.09862 11.4902 3.16146 11.56 3.2393C11.7593 3.4697 11.9172 4.25169 11.9172 4.25169L12.0832 5.28354L12.5053 6.58317L10.8483 7.08817L10.8479 7.08715Z" fill="#C99E3D"/>
<path fill-rule="evenodd" clip-rule="evenodd" d="M13.7346 6.30027C13.7346 6.30027 13.6776 6.32604 13.5742 6.30027C13.5786 6.34253 13.5712 6.3852 13.553 6.42356C13.5347 6.46192 13.5062 6.4945 13.4706 6.5177C13.3618 6.47367 12.3442 6.56173 12.3442 6.56173C12.3442 6.56173 11.8704 6.47879 11.7228 5.85227C11.6193 5.43533 11.8004 4.8607 11.7409 4.48267C11.6502 3.92595 11.5234 3.81707 11.5105 3.64384C11.4975 3.47062 11.4845 3.42641 11.4845 3.3177C11.4275 3.30473 11.3939 3.28664 11.3371 3.28664C11.3241 3.23544 11.3499 3.19072 11.293 3.1001C11.3241 3.11307 11.5364 3.13901 11.7849 3.37453C11.9897 3.56619 11.9897 3.63599 12.0206 3.6749C12.0593 3.71364 12.3727 3.9821 12.5073 4.24971C12.642 4.51731 12.9034 5.37065 12.963 5.51042C12.9811 5.56743 13.02 5.62443 13.1166 5.75379C13.2668 5.94033 13.4868 6.24873 13.7353 6.29993L13.7346 6.30027Z" fill="#B58634"/>
<path fill-rule="evenodd" clip-rule="evenodd" d="M12.0571 3.68774C12.2139 3.9411 12.3548 4.20398 12.479 4.47486C12.6317 4.81909 12.7223 5.10138 12.914 5.33178C12.8104 5.03157 12.6266 4.44124 12.5179 4.23149C12.3962 4.00962 12.1477 3.77069 12.0571 3.68791V3.68774Z" fill="#A88F33"/>
<path fill-rule="evenodd" clip-rule="evenodd" d="M10.2965 7.94426C10.2965 7.94426 10.035 8.00894 9.54828 8.26529C9.38768 8.34806 9.2351 8.41786 9.08748 8.48272C8.70399 8.65611 8.29268 8.81637 7.96637 8.90477C7.99231 8.93584 8.00511 8.94864 8.00511 8.94864C8.00511 8.94864 8.00511 9.07561 8.07508 9.14797C8.03634 9.18689 7.51837 9.53897 7.67128 10.7169C7.77471 10.6782 7.89639 10.6263 7.91448 10.6263C7.94572 10.6316 7.9534 10.7169 7.99214 10.7169C8.03088 10.7169 8.15786 10.6657 8.29251 10.4916C8.28739 10.5616 8.20974 11.2658 8.62651 11.7395C8.70416 11.6489 8.90094 11.3486 8.90094 11.3486L8.90606 11.2528C8.90606 11.2528 8.92415 10.9188 9.03303 10.6133C9.14192 10.3078 9.35406 10.0825 9.35406 10.0825L10.4619 8.50064L10.2961 7.94409L10.2965 7.94426Z" fill="#E6C367"/>
<path fill-rule="evenodd" clip-rule="evenodd" d="M9.26091 10.267C9.21019 10.3029 9.15431 10.3308 9.09519 10.3498C9.0771 10.2851 9.05116 10.0624 9.2039 9.84497C9.38259 9.58334 9.77342 9.24423 9.88213 8.97457C9.95211 8.801 9.92104 8.36615 10.5424 7.80943C11.1638 7.25272 11.407 7.06123 11.407 7.06123L12.4116 6.5564L13.6465 7.04314L13.033 9.44783L12.5567 10.5742L10.6622 10.217L9.26074 10.267H9.26091Z" fill="#DCBA5A"/>
<path fill-rule="evenodd" clip-rule="evenodd" d="M9.98401 9.61395L10.2197 9.31887V9.10912C10.2197 9.10912 10.4812 9.03915 10.7633 8.75174C11.0454 8.46434 11.4364 7.91292 11.7808 7.94654C12.1252 7.98545 12.1588 8.69474 12.1718 8.89425C12.1848 9.09376 12.2288 9.54654 12.2986 9.79008C12.3762 10.0335 11.4598 10.9551 11.4598 10.9551L10.8373 11.4288L9.98401 9.61395Z" fill="#E9CE77"/>
<path fill-rule="evenodd" clip-rule="evenodd" d="M10.7133 12.071C10.7133 12.071 10.9049 11.7706 10.7645 11.7059C10.8472 11.5196 11 11.3228 11 11.3228C11 11.3228 11.1087 11.0537 11.4608 10.7222C11.8129 10.3908 12.0305 10.1706 12.0875 9.94808C12.1226 9.80304 12.1417 9.65458 12.1445 9.50537C12.1825 9.53647 12.2232 9.56416 12.2662 9.58814C12.3232 9.61409 12.5923 9.83664 12.5536 10.2846C12.5148 10.7326 12.3488 10.919 12.3488 10.919C12.3488 10.919 12.1883 11.0794 12.0745 11.1624C11.9526 11.2451 11.9088 11.3409 11.7041 11.3487C11.7252 11.332 11.7488 11.3189 11.7741 11.3098C11.7741 11.3098 11.5618 11.2841 11.4478 11.3875C11.3338 11.4909 11.0915 11.8095 10.9698 11.9055C10.8481 11.9831 10.7138 12.0712 10.7138 12.0712L10.7133 12.071Z" fill="#CDAE50"/>
<path fill-rule="evenodd" clip-rule="evenodd" d="M19.3217 7.03531C19.0158 6.92383 18.6943 6.86095 18.369 6.84894C17.8253 6.83085 17.0305 6.86191 16.2512 6.86703C15.4124 6.87215 14.6512 6.57963 13.5949 6.52792C13.4215 6.42432 12.9805 5.9712 11.6039 6.93172C11.6867 6.9266 12.6034 6.71941 12.9217 7.11826C13.2427 7.51437 13.1521 8.18748 13.1082 8.34791C13.0253 8.70528 12.7559 9.22565 12.6474 9.5907C12.5389 9.95576 12.5645 10.1476 12.4868 10.4036C12.4091 10.6596 12.2383 10.7867 12.3392 11.0818C12.4738 10.999 12.544 10.999 12.7689 10.4942C12.9939 9.98938 12.9476 9.62944 13.3205 9.20227C13.6856 8.77253 14.2933 8.18475 14.5244 8.03712C14.7555 7.8895 16.5903 6.93684 18.5115 7.84564C18.9749 7.79648 19.3218 7.03514 19.3218 7.03514L19.3217 7.03531Z" fill="#D2A83E"/>
<path fill-rule="evenodd" clip-rule="evenodd" d="M12.378 6.68302C12.3761 6.66357 12.3718 6.64442 12.3652 6.62602C12.3472 6.58816 12.3236 6.55323 12.2952 6.52243C12.2952 6.52243 11.8395 6.43965 11.6091 6.46542C11.2051 6.50945 10.8401 7.00917 10.6692 7.26551C10.4984 7.52185 10.2861 7.9178 10.0557 8.12242C10.0582 8.10249 10.0536 8.0823 10.0427 8.06542C10.0427 8.06542 10.0557 8.08351 10.0299 8.10945C10.0042 8.1354 10.004 8.1482 10.017 8.16065L10.0559 8.1994C10.0687 8.1994 10.426 8.0388 10.9128 7.585C11.4306 7.11123 11.8267 6.8682 12.0339 6.78491C12.1444 6.73795 12.2599 6.70377 12.3781 6.68302H12.378Z" fill="#C29637"/>
<path fill-rule="evenodd" clip-rule="evenodd" d="M21.2169 4.73633C21.2169 4.73633 21.134 4.83975 21.0304 4.95376C20.8 5.19713 20.4996 5.47139 20.2433 5.75367C20.0001 6.02298 19.7256 6.23273 19.4174 6.58482C19.1092 6.9369 18.7518 7.32773 18.6614 7.44174C18.5786 7.55574 18.5139 7.74211 18.5139 7.83785C18.4699 7.80679 18.4182 7.77317 18.4182 7.77317C18.4399 7.81382 18.466 7.85203 18.4958 7.88718C18.5605 7.9778 18.6614 8.09198 18.7132 8.16161C18.7769 8.25025 18.8226 8.3505 18.8477 8.45669C18.8788 8.46181 19.0781 8.50072 19.3268 8.09163C19.5754 7.68255 19.9014 7.23472 19.9014 7.23472L20.4192 6.46569L20.7455 5.81341L21.1551 5.08329L21.2174 4.73633H21.2169Z" fill="#AC8132"/>
<path fill-rule="evenodd" clip-rule="evenodd" d="M21.7477 4.21338C21.7477 4.21338 21.4344 4.46938 21.3127 4.62298C21.191 4.77658 20.9031 5.17969 20.9031 5.17969L21.0067 5.16672L21.5323 4.7008L21.7371 4.33575L21.7475 4.21406L21.7477 4.21338Z" fill="#A88F33"/>
<path fill-rule="evenodd" clip-rule="evenodd" d="M21.6518 24.7882C21.6518 24.7882 21.6467 24.5759 21.7658 24.4491C21.8875 24.3221 22.1956 24.1358 22.4959 23.4367C22.7963 22.7377 22.8298 22.5798 22.8298 22.5798C22.8298 22.5798 22.2913 23.0406 21.9594 23.1493C22.037 22.9887 22.081 22.8749 22.12 22.7919C22.0759 22.7532 21.8896 22.7092 21.8715 22.6885C21.9749 22.5849 22.0319 22.3311 22.2416 22.1629C22.511 21.9581 23.0028 21.6061 23.3851 21.2925C23.7674 20.9788 24.519 20.2492 24.6149 20.0369C24.6719 20.1196 24.6847 20.1714 24.6847 20.1714C24.6847 20.1714 24.3069 20.6634 24.1101 20.9766C23.9365 21.2459 23.9495 21.3986 23.9495 21.3986L24.3069 21.245C24.3069 21.245 24.4103 21.6282 23.9418 22.2108C24.1466 22.1332 24.2292 22.1798 24.3456 22.1149C24.154 22.2368 23.8899 22.4025 23.6415 22.858C23.3981 23.3137 23.0666 23.8444 22.5075 24.1757C21.9638 24.5252 21.6505 24.7867 21.6505 24.7867L21.6518 24.7882Z" fill="#A67A2E"/>
<path fill-rule="evenodd" clip-rule="evenodd" d="M20.2486 7.30467C20.2486 7.30467 20.0363 7.74721 20.0052 8.09162C20.0001 8.17456 19.9793 8.23924 19.9793 8.33499C19.9742 8.64304 19.9974 8.98745 19.9281 9.14787C19.9021 9.08319 19.8892 9.03916 19.8632 9.01339C19.8245 9.1221 19.7545 9.46122 19.6975 9.58802C19.6717 9.50525 19.6147 9.21785 19.62 8.87873C19.6253 8.53962 19.6328 8.47476 19.6328 8.40496C19.62 8.50838 19.5501 8.64833 19.5241 8.7311C19.4854 8.6613 19.4413 8.57068 19.3895 8.49558C19.3584 8.54678 19.3197 8.62239 19.286 8.6613C19.2807 8.63024 19.2679 8.5473 19.2601 8.4309C19.255 8.29625 19.2471 8.12285 19.255 8.0865C19.2678 8.01669 19.3767 7.74226 19.6071 7.49104C19.8815 7.19067 20.1638 6.61347 20.2465 6.43478C20.3293 6.2561 20.6814 5.51318 20.6814 5.51318H20.9507L20.5597 6.40372C20.5597 6.40372 20.3242 6.89046 20.2025 7.06932C20.0808 7.24818 19.8245 7.76069 19.7105 7.96003C19.7933 7.85132 19.8632 7.79431 19.9462 7.69072C20.0264 7.61819 20.2489 7.30501 20.2489 7.30501L20.2486 7.30467Z" fill="#8C6228"/>
<path fill-rule="evenodd" clip-rule="evenodd" d="M21.7528 4.17969C21.7088 4.31508 21.6393 4.4408 21.548 4.55003C21.3874 4.74169 21.043 4.99786 20.8749 5.20232C20.7213 5.40166 20.4141 5.9454 20.5537 6.59001C20.6049 6.45024 20.7013 6.17324 20.9577 5.8599C21.214 5.54656 21.4885 5.18679 21.6233 4.90724C21.7578 4.62496 21.7759 4.40241 21.7759 4.40241L21.8271 4.33772L21.796 4.1901L21.752 4.17969H21.7528Z" fill="#CBA94C"/>
<path fill-rule="evenodd" clip-rule="evenodd" d="M26.9956 21.3524C26.9956 21.3524 26.892 21.0703 26.8609 20.814C26.8298 20.5576 26.9121 20.5068 26.8169 20.2134C26.7599 20.0347 26.6564 20.0598 26.6305 20.0347C26.6046 20.0096 26.5865 19.7396 26.5916 19.592C26.5967 19.4444 26.5865 19.2529 26.5605 19.1699C26.5218 19.1389 26.4958 19.1129 26.4388 18.9215C26.3742 18.7298 26.3431 18.6341 26.312 18.5772C26.281 18.5204 26.1902 18.4685 26.1902 18.4115C26.1902 18.2975 26.2938 18.2381 26.2938 18.2067C26.2887 18.142 26.211 18.1939 26.1902 18.1756C26.1644 18.1446 26.255 17.9582 26.2214 17.9323C26.2084 17.9195 26.1178 18.0282 26.0944 17.9971C26.0685 17.9659 26.0374 17.6578 25.9908 17.4534C25.947 17.254 25.9002 17.1091 25.8951 17.0496C25.89 16.9926 25.5377 15.988 25.4524 15.7447C25.3836 15.539 25.3257 15.3299 25.279 15.1181C25.253 14.9965 25.235 14.7478 25.222 14.7737C25.209 14.7997 25.2169 14.9265 25.196 14.9214C25.178 14.9161 25.1133 14.4735 25.0926 14.4036C25.0745 14.3336 24.9656 14.0964 24.939 13.9247C24.9131 13.7511 24.8563 13.298 24.8173 12.9899C24.7784 12.6819 24.7603 12.5551 24.7603 12.4779C24.7667 12.2893 24.7563 12.1004 24.7293 11.9135C24.6781 11.5872 24.5757 11.1911 24.4859 10.9609C24.3125 10.5259 23.8515 9.41259 23.7691 9.1356C23.7691 9.06563 23.8597 9.10454 23.8597 9.10454C23.8597 9.10454 24.0848 9.66893 24.2506 10.1038C24.4112 10.5388 24.5639 10.922 24.6028 10.9609C24.6339 10.9996 24.8772 11.4268 24.986 12.1259C25.0947 12.8249 25.1334 13.4695 25.1983 13.8992C25.2293 14.104 25.2553 14.3213 25.32 14.5387C25.3898 14.7744 25.4985 15.0178 25.641 15.3905C25.7627 15.7039 25.8533 15.9653 25.9024 16.1906C25.9594 16.478 25.9594 16.6955 25.9931 16.838C26.0243 16.9596 26.0707 17.2028 26.1796 17.5548C26.2885 17.9067 26.4487 18.36 26.5575 18.6421C26.7699 19.2065 26.8647 19.6777 26.8967 19.9289C26.9251 20.1878 27.021 21.0836 26.995 21.3528L26.9956 21.3524Z" fill="#A88F33"/>
<path fill-rule="evenodd" clip-rule="evenodd" d="M21.7658 4.14865L21.7528 4.17971C21.7528 4.17971 21.7916 4.19268 21.7839 4.24456C21.7844 4.31554 21.7801 4.38648 21.7709 4.45687C21.7581 4.54749 21.7322 4.6173 21.727 4.6743C21.727 4.79599 21.7451 4.93576 21.5734 5.28273C21.5222 5.37847 21.4907 5.46124 21.4647 5.51825C21.4 5.65802 21.3871 5.67884 21.3301 5.74353C21.4207 5.69233 21.747 5.48753 21.9126 5.51825C21.7987 5.58293 21.6252 5.70991 21.5164 5.87562C21.5424 5.88074 21.6511 5.90156 21.8236 5.87562C22.111 5.83159 22.4321 5.728 22.7142 5.74865C23.0224 5.76674 22.9007 5.37847 22.9007 5.37847L22.5451 4.59665L21.8719 4.12305L21.7658 4.14882V4.14865Z" fill="#BE9C44"/>
<path fill-rule="evenodd" clip-rule="evenodd" d="M23.5211 10.005C23.5211 10.005 23.2207 9.70465 23.0991 8.67383C22.9774 7.63822 23.0033 6.11383 23.0033 6.11383L22.7599 5.51837C22.7599 5.51837 22.7087 5.12225 22.5813 4.9748C22.4538 4.82734 22.2034 4.57868 22.0894 4.457C21.9754 4.33531 21.846 4.16959 21.7684 4.14365C21.8071 4.07897 21.9807 3.71391 22.6459 3.70879C23.3112 3.70367 23.5163 4.07385 23.5858 4.2085C23.6553 4.34316 23.9689 4.9253 24.0853 6.03464C24.1941 7.14261 24.1993 7.22555 24.1813 7.6087C24.1683 7.82101 24.0983 8.31287 23.9765 8.83835C23.8652 9.28379 23.7435 9.78094 23.5208 10.0061L23.5211 10.005Z" fill="#A17C34"/>
<path fill-rule="evenodd" clip-rule="evenodd" d="M22.5792 10.8878C22.6793 10.895 22.7793 10.8724 22.8666 10.8229C22.9624 10.8178 23.3093 10.8618 23.5759 10.5227C23.594 10.6002 23.6408 10.8101 23.5189 10.9965C23.5838 10.9316 23.6795 10.9059 23.6925 10.8878C23.6976 10.9835 23.7882 11.2786 23.4051 11.9957C23.5085 11.8819 23.6302 11.887 23.7389 11.874C23.7442 12.0087 23.8166 12.4616 23.6251 12.7052C23.4983 12.8709 23.2911 12.819 23.2911 12.819C23.2941 12.7829 23.2941 12.7465 23.2911 12.7103C23.286 12.6403 23.26 12.5705 23.2783 12.5239C23.1782 12.4782 23.087 12.415 23.009 12.3374C22.7837 12.1251 22.4912 11.7628 22.4705 11.4935C22.4446 11.1931 22.7139 11.1284 22.7139 11.1284C22.6913 11.1082 22.6721 11.0846 22.6569 11.0584C22.6439 11.0146 22.6309 10.9446 22.5792 10.8878Z" fill="#8C6228"/>
<path fill-rule="evenodd" clip-rule="evenodd" d="M20.5824 7.63089C20.5824 7.63089 20.5694 7.6128 20.4996 7.69557C20.5126 7.6128 20.5256 7.53498 20.5307 7.45988C20.5637 7.39036 20.6065 7.32589 20.6577 7.26839C20.6188 7.34588 20.5928 7.41585 20.5928 7.41585C20.5928 7.41585 20.6887 7.23716 20.8285 7.12845C20.9243 7.0508 21.0459 7.01461 21.0976 6.94208C21.1547 6.86443 21.1417 6.85146 21.1547 6.83849C21.1547 6.83849 21.2816 6.75571 21.4758 6.51217C21.5016 6.48111 21.5405 6.44749 21.5665 6.41643C21.6103 6.39834 21.7139 6.35174 21.8356 6.28945C21.9626 6.21965 22.1049 6.1239 22.193 6.08465C22.3664 6.007 22.5504 6.01485 22.6357 5.89299C22.7004 5.8749 22.7702 5.68068 22.7574 5.51514C22.8531 5.55388 23.345 5.85937 23.5134 6.52736C23.6351 7.00113 23.4175 7.73124 23.3269 8.0835C23.2363 8.43575 23.2235 8.69705 23.0965 8.85747C22.9359 9.06995 22.4183 9.36947 22.2913 9.51778C22.1826 9.63947 21.8564 9.94752 21.8692 10.1701C21.8822 10.3358 22.0867 10.4261 22.1309 10.4575C22.1751 10.4889 22.1747 10.5274 22.2577 10.5087C22.3406 10.4899 22.3715 10.4517 22.4053 10.4517C22.444 10.4568 22.444 10.4646 22.4621 10.4646C22.4753 10.4642 22.4883 10.4625 22.501 10.4593C22.501 10.4593 22.4881 10.695 21.9366 10.7665C21.8977 10.7718 21.859 10.7846 21.8097 10.7925C21.8745 10.7614 21.9133 10.7614 21.9832 10.6657C21.9056 10.6527 21.6829 10.6397 21.6259 10.6217C21.644 10.5906 21.7035 10.5076 21.7527 10.4689C21.7967 10.4302 21.7475 10.4177 21.7088 10.4378C21.6421 10.4832 21.5781 10.5325 21.5171 10.5853C21.4525 10.6423 21.3955 10.72 21.2919 10.7901C21.2608 10.6865 21.2659 10.4897 21.3878 10.3474C21.3565 10.3525 21.297 10.4431 21.2402 10.425C21.2299 10.3306 21.236 10.2351 21.2582 10.1428C21.2893 10.0262 21.4576 9.82174 21.4576 9.82174L22.2705 8.36919L22.4439 7.26891L20.5824 7.63055V7.63089Z" fill="#92723A"/>
<path fill-rule="evenodd" clip-rule="evenodd" d="M20.5385 7.69292C20.5385 7.69292 20.4945 7.72398 20.5826 7.78354C20.5696 7.80163 20.5385 7.86632 20.4996 7.91035C20.4558 7.96155 20.409 7.99329 20.3909 8.03733C20.3522 8.12795 20.3211 8.19007 20.3211 8.22898C20.3211 8.2679 20.3081 8.51639 20.1994 8.67681C20.1605 8.73382 20.1165 8.82956 20.0854 8.89424C20.0207 9.00808 19.9637 9.09904 19.9508 9.15024C19.925 9.24087 19.9069 9.48936 19.9069 9.48936C19.9069 9.48936 19.9639 9.41938 19.9845 9.39361C19.9533 9.4583 19.9197 9.5281 19.8705 9.57998C19.9016 9.55404 19.9922 9.48936 20.145 9.3547C20.3573 9.17618 20.6887 8.87581 21.0927 8.6379C20.9708 8.68193 20.8674 8.68193 20.7846 8.6949C20.8493 8.63022 21.4318 7.9467 21.7373 7.88202C21.7558 7.8585 21.7651 7.82897 21.7632 7.79907L21.5016 7.7733L20.9708 7.88714L20.8933 7.47754L20.5385 7.69241V7.69292Z" fill="#B18E3E"/>
<path fill-rule="evenodd" clip-rule="evenodd" d="M21.3826 10.0231C21.3826 10.0231 21.3127 10.0929 21.248 10.2665C21.1982 10.2145 21.1555 10.1561 21.121 10.0929C21.0253 9.93248 20.8778 9.72785 20.5334 9.84442C20.5283 9.7357 20.5204 9.6787 20.5334 9.60105C20.5904 9.58825 20.7638 9.44847 20.9372 9.24384C21.059 9.10406 21.1729 8.94347 21.2505 8.73901C21.3017 8.7001 21.3903 8.63541 21.5065 8.56032C21.6723 8.44649 21.8716 8.29101 21.9027 8.11761C21.825 8.14867 21.6593 8.22633 21.4106 8.21353C21.5065 8.16949 21.654 8.1229 21.6359 7.93124C21.6748 7.9053 21.7059 7.88721 21.7059 7.88721C21.6767 7.87748 21.646 7.87308 21.6153 7.87424C21.61 7.85615 21.6023 7.83038 21.5583 7.84318C21.5142 7.85598 21.507 7.85615 21.5012 7.87424C21.4832 7.87953 21.4236 7.87424 21.3796 7.90547C21.3355 7.93671 21.2138 8.03996 21.1673 8.05805C21.1853 8.02699 21.2111 7.98057 21.2111 7.98057C21.2111 7.98057 21.0843 7.99337 20.9937 8.03177C20.828 8.08877 20.6365 8.19236 20.4423 8.29323C20.4604 8.26217 20.4682 8.24203 20.481 8.23623C20.4938 8.23042 20.525 8.22343 20.525 8.21813C20.525 8.21284 20.5122 8.16693 20.5199 8.14833C20.578 8.02532 20.6465 7.90753 20.7247 7.79625C20.8153 7.67439 20.8334 7.50099 20.8334 7.50099L21.2295 7.30165L22.3428 7.04565L23.0652 7.08969L22.9746 7.5894L22.5479 8.46185L22.1829 9.25664L21.766 9.74355L21.3828 10.0231H21.3826Z" fill="#543E26"/>
<path fill-rule="evenodd" clip-rule="evenodd" d="M23.1871 7.86066C23.1871 7.86066 22.7521 8.39912 22.6304 8.48206C22.7081 8.31634 23.1871 7.32989 23.3605 7.05546C23.3218 7.0244 23.2699 7.0244 23.3916 6.54346C23.2881 6.78666 23.2518 6.91363 23.1665 6.97832C23.0811 7.043 23.0705 7.02235 23.0129 7.02235C23.0238 7.00264 23.0282 6.98003 23.0257 6.95766C23.0257 6.95766 22.6606 6.91363 22.4113 6.91363C22.1619 6.91363 21.6684 7.04829 21.3937 7.157C21.1763 7.24763 21.0546 7.24763 20.977 7.30446C20.8993 7.36914 20.8553 7.43912 20.8164 7.45721C20.7853 7.4753 20.6379 7.52189 20.6041 7.57104C20.573 7.62224 20.5213 7.67976 20.5213 7.69273C20.5213 7.7057 20.5083 7.72396 20.5472 7.71082C20.56 7.7057 20.656 7.65381 20.7647 7.58913C20.9121 7.50636 21.0908 7.41061 21.2204 7.35361C21.5905 7.20599 21.7071 7.23193 21.8726 7.20086C22.046 7.1698 22.2947 7.09727 22.4602 7.09727C22.626 7.09215 22.9393 7.09727 23.0118 7.11024C22.9808 7.13618 22.9548 7.16724 22.9678 7.27596C22.9678 7.30702 22.9419 7.34064 22.9166 7.41573C22.8391 7.62804 22.6915 7.98013 22.6094 8.15882C22.4956 8.40202 22.3662 8.60665 22.3022 8.73345C22.2382 8.86026 22.0974 9.19425 21.958 9.37294C21.8185 9.55163 21.7457 9.66034 21.702 9.69925C21.6583 9.73817 21.3446 9.9684 21.368 10.0513C21.425 10.0332 21.7849 9.89774 22.0462 9.60351C22.3075 9.30928 22.3596 9.12974 22.564 8.96914C22.7685 8.80855 22.9291 8.5394 23.0248 8.31685C23.105 8.10967 23.0869 8.04498 23.1878 7.86117L23.1871 7.86066Z" fill="#806031"/>
<path fill-rule="evenodd" clip-rule="evenodd" d="M13.8124 11.8795C13.8124 11.8795 13.7554 12.115 13.6258 12.2316C13.499 12.3456 13.2737 12.4439 13.248 12.6356C13.2169 12.8271 13.4733 12.923 13.4733 12.923C13.4733 12.923 13.3333 13.1534 13.3333 13.3268C13.3333 13.5055 13.3282 13.5391 13.3463 13.7099C13.3257 13.7231 13.3083 13.7406 13.2951 13.7611C13.2951 13.7611 13.3079 13.9268 13.4349 14.0303C13.5618 14.1337 13.6704 14.196 13.7351 14.17C13.7449 14.1911 13.7536 14.2128 13.761 14.2349C13.761 14.2349 13.8569 13.9915 13.9216 13.7792C13.9863 13.5618 14.0433 13.5927 14.069 13.3002C14.0948 13.0076 14.3762 12.5054 14.3762 12.5054L14.5682 12.0761L14.2551 11.8328L13.8124 11.8794V11.8795Z" fill="#B6903C"/>
<path fill-rule="evenodd" clip-rule="evenodd" d="M14.3949 12.3013C14.3303 12.3676 14.2707 12.4385 14.2165 12.5136C14.1337 12.6276 14.0691 12.731 13.9474 12.7752C13.8257 12.8194 13.748 12.8191 13.7557 12.9409C13.7634 13.0628 13.8774 13.1143 13.9421 13.1764C14.0121 13.2411 14.0691 13.3498 14.038 13.4717C14.0767 13.4536 14.1467 13.4328 14.2114 13.293C14.2761 13.1532 14.7285 12.3014 14.7285 12.3014H14.3949V12.3013Z" fill="#685026"/>
<path fill-rule="evenodd" clip-rule="evenodd" d="M16.1792 10.3363C16.1792 10.3363 16.218 10.2329 16.1792 10.1578C16.1403 10.0801 15.9048 10.0542 15.7882 9.96613C15.6665 9.87551 15.5189 9.81253 15.3972 9.8523C15.4153 9.80827 15.4879 9.71235 15.4283 9.6917C15.3713 9.67361 15.1592 9.76935 15.1022 9.81339C15.0451 9.85742 14.9156 9.90913 14.8898 9.94036C14.8641 9.97159 14.8199 10.031 14.7939 10.005C14.768 9.98695 14.7552 9.94036 14.7112 9.96613C14.6671 9.9919 14.4552 10.1655 14.4161 10.2665C14.377 10.3675 14.2891 10.5928 14.0251 10.849C13.7611 11.1052 13.647 11.2711 13.7247 11.3668C13.8024 11.4625 13.8387 11.3927 13.8517 11.4755C13.8617 11.5568 13.8573 11.6391 13.8387 11.7189C13.8076 11.8535 13.7559 11.9803 13.8257 12.0063C14.0044 12.0633 14.178 11.9551 14.2167 11.9882C14.2944 12.058 14.1727 12.3092 14.3565 12.3584C14.543 12.4096 14.7269 12.3143 14.7269 12.3143L15.4051 11.9493L16.0575 11.605L16.3914 10.9447L16.2123 10.3933L16.1782 10.3363H16.1792Z" fill="#D4B968"/>
<path fill-rule="evenodd" clip-rule="evenodd" d="M15.5392 11.9131C15.5392 11.9131 15.4252 11.7397 15.5651 11.5868C15.7051 11.4339 15.9043 11.3693 15.9819 11.2736C15.9671 11.2554 15.9473 11.2419 15.9249 11.2349C15.9765 11.1426 16.0551 11.0684 16.1502 11.0224C16.1114 10.9836 16.0596 10.9526 16.0027 10.9526C15.8758 10.9526 15.7979 11.0302 15.6815 11.0302C15.5677 11.0302 15.5547 10.9732 15.5547 10.9732C15.5547 10.9732 15.7464 10.9551 15.7281 10.8696C15.71 10.779 15.6769 10.779 15.6769 10.779C15.6769 10.779 16.0471 10.6254 16.1118 10.5435C16.1765 10.4616 16.1688 10.3648 16.1818 10.3261C16.2256 10.3261 16.482 10.1914 16.5856 10.2484C16.6892 10.3054 16.6166 10.4607 16.6166 10.4607C16.6166 10.4607 16.9301 10.225 17.0899 9.99394C17.2297 10.0069 17.2947 9.89819 17.3971 9.89819C17.5241 9.89819 17.7234 10.0716 17.7621 10.4418C17.7881 10.6541 17.8268 10.7758 17.7881 11.1512C17.77 11.3635 17.7751 11.8168 17.8393 12.0418C17.8831 12.2205 17.9867 12.2024 17.9867 12.2024C17.9708 12.2568 17.9393 12.3054 17.8961 12.3421C17.8261 12.4068 17.8185 12.5778 17.8261 12.6425C17.8364 12.6898 17.8494 12.7365 17.865 12.7823C17.865 12.7823 17.7823 12.878 17.7614 12.9429C17.7434 13.0076 17.658 13.0516 17.5957 13.0516C17.5334 13.0516 17.5647 13.0463 17.4819 13.0516C17.3991 13.0569 17.3732 13.0697 17.3213 13.0516C17.2694 13.0335 17.2307 13.0127 17.2515 12.8468C17.2696 12.6811 16.612 12.2954 16.612 12.2954L15.5368 11.9122L15.5392 11.9131Z" fill="#CCA849"/>
<path fill-rule="evenodd" clip-rule="evenodd" d="M14.3043 13.5492C14.3043 13.5492 14.5398 13.8626 15.5081 13.8626C15.9689 13.8626 16.1295 13.8185 16.2249 13.7926C16.3285 13.7666 16.7168 13.6141 17.1078 13.1531C17.4599 12.7363 17.3822 12.5655 17.3822 12.5655L17.1774 12.5344L16.5118 12.625L14.5423 13.4639L14.3034 13.5492H14.3043Z" fill="#585136"/>
<path fill-rule="evenodd" clip-rule="evenodd" d="M15.0265 13.627C15.0265 13.627 14.1877 13.8135 14.1877 13.2827C14.1877 12.7649 14.7055 12.2212 14.835 12.1255C14.9697 12.0295 15.2907 11.9207 15.2907 11.9207H16.0648L16.2123 12.3117L16.1476 13.1556L15.0265 13.6268V13.627Z" fill="#252211"/>
<path fill-rule="evenodd" clip-rule="evenodd" d="M15.8007 12.0788C15.8007 12.0788 15.6403 11.9312 15.2752 12.13C14.9101 12.3289 14.6149 12.7444 14.5968 13.1218C14.5787 13.4556 14.8712 13.7043 15.3269 13.7172C15.666 13.73 15.8707 13.6913 15.9743 13.666C15.9483 13.635 15.8137 13.4667 15.8137 13.4667L15.8009 12.079L15.8007 12.0788Z" fill="#C3B378"/>
<path fill-rule="evenodd" clip-rule="evenodd" d="M15.6428 12.1613C15.6428 12.1613 15.604 12.1303 15.4892 12.1924C15.3934 12.2436 15.2537 12.3789 15.1449 12.4747C15.075 12.5317 15.0309 12.5574 14.9913 12.6015C14.8307 12.7931 14.6961 13.1065 14.7739 13.2618C14.8517 13.4171 15.1079 13.5958 15.7604 13.4741L15.6409 12.1615L15.6428 12.1613Z" fill="#E6D89C"/>
<path fill-rule="evenodd" clip-rule="evenodd" d="M15.4305 12.4827C15.4305 12.4827 15.3269 12.6433 15.3269 12.8996C15.3269 13.1611 15.4745 13.5779 16.0182 13.6089C16.435 13.6349 16.7145 13.0083 17.0175 12.765C17.2479 12.5786 17.3877 12.5733 17.3877 12.5733C17.3877 12.5733 17.1521 12.3173 16.5231 11.9857C15.9017 11.6517 15.2052 11.6077 14.8271 12.1204C15.0058 12.1074 15.5832 11.9598 15.5832 11.9598L15.8655 12.0504L15.4305 12.4829V12.4827Z" fill="#252211"/>
<path fill-rule="evenodd" clip-rule="evenodd" d="M16.2434 12.8218C16.2253 12.7831 16.2123 12.7312 16.2874 12.7184C16.3625 12.7056 16.3961 12.7131 16.4221 12.7696C16.448 12.8261 16.4733 12.8732 16.4349 12.8966C16.3961 12.9172 16.2951 12.8966 16.2432 12.8215L16.2434 12.8218ZM16.1217 12.4568C16.1217 12.4568 16.0958 12.4749 16.1087 12.4387C16.1139 12.3948 16.1476 12.317 16.2304 12.3352C16.3132 12.3535 16.2953 12.444 16.2816 12.4699C16.268 12.4958 16.1988 12.5397 16.147 12.5211C16.1404 12.5194 16.1343 12.5162 16.1292 12.5117C16.1241 12.5073 16.1201 12.5016 16.1176 12.4953C16.1151 12.489 16.1141 12.4822 16.1146 12.4755C16.1152 12.4687 16.1174 12.4622 16.121 12.4564L16.1217 12.4568Z" fill="#6F674D"/>
<path fill-rule="evenodd" clip-rule="evenodd" d="M9.11359 12.6222C9.11359 12.6222 9.31839 12.7758 9.5563 12.7698C9.79182 12.7645 10.0947 12.5213 10.2345 12.3658C10.3173 12.2752 10.3881 12.1794 10.4649 12.1044C10.5298 12.0397 10.5736 12.0086 10.6047 11.9646C10.6487 11.9134 10.6953 11.8171 10.7187 11.7859C10.6617 11.8299 10.5789 11.9077 10.4934 11.9595C10.4107 12.0107 10.232 12.1069 10.1594 12.1329C10.0896 12.1588 9.36464 12.5425 9.36464 12.5425L9.11359 12.6222Z" fill="#AC924C"/>
<path fill-rule="evenodd" clip-rule="evenodd" d="M9.42657 10.7093C9.42657 10.7093 9.54041 10.6316 9.76057 10.5823C9.97288 10.5311 10.4001 10.4917 10.4001 10.4917L10.7521 10.6453L10.8919 11.1761L10.6359 11.7277L10.3098 11.9325L9.93943 11.337L9.42743 10.7103L9.42657 10.7093Z" fill="#9F8E57"/>
<path fill-rule="evenodd" clip-rule="evenodd" d="M8.96579 11.183L8.84393 11.274C8.84393 11.274 8.87516 11.217 8.90094 11.0436C8.92671 10.8702 9.06153 10.4482 9.25831 10.2048C9.45509 9.96141 9.44997 9.97439 9.44997 9.97439C9.43186 9.97107 9.41326 9.97166 9.39539 9.9761C9.37753 9.98055 9.36082 9.98875 9.34638 10.0002C9.37232 9.94281 9.53803 9.73801 9.70375 9.63561C9.86947 9.53321 9.93415 9.50096 10.1075 9.58441C10.2809 9.66787 10.325 9.71122 10.452 9.7061C10.5789 9.70098 10.6875 9.56632 10.6875 9.56632C10.6875 9.56632 10.7134 9.6491 10.6177 9.84075C10.5219 10.0324 10.1439 10.4232 10.1439 10.4232L9.35679 10.9617L8.96579 11.1836V11.183Z" fill="#EAC970"/>
<path fill-rule="evenodd" clip-rule="evenodd" d="M9.54811 10.6445C9.54811 10.6445 10.1178 10.7222 10.2912 10.5618C10.2963 10.5798 10.3171 10.5798 10.3171 10.5928C10.3157 10.6026 10.3112 10.6116 10.3042 10.6186C10.323 10.6156 10.3421 10.6139 10.3612 10.6135C10.384 10.6202 10.4074 10.6246 10.4311 10.6264C10.4502 10.626 10.4693 10.6243 10.4881 10.6211C10.4863 10.634 10.482 10.6464 10.4753 10.6575C10.4686 10.6687 10.4597 10.6784 10.4492 10.686C10.4752 10.686 10.5004 10.6911 10.5004 10.7118C10.5004 10.7324 10.5055 10.7947 10.4745 10.8077C10.4488 10.8148 10.4214 10.8129 10.3968 10.8024C10.3989 10.8514 10.4122 10.8993 10.4357 10.9423C10.4869 11.0381 10.5962 11.1471 10.7429 11.1157C10.7429 11.1157 10.8204 11.3021 10.4943 11.7163C10.4504 11.7733 10.4037 11.851 10.3468 11.9156C10.3244 11.9646 10.3072 12.0158 10.2956 12.0684C10.2956 12.0684 10.8472 11.8561 11.0051 11.3719C11.1657 10.8852 11.1967 10.4063 11.1657 9.95844C11.1604 9.83147 11.1397 9.74101 11.1087 9.67616C11.031 9.51556 10.8134 9.54151 10.7255 9.63213C10.5986 9.75911 10.3863 10.0748 10.0912 10.2923C9.7908 10.5097 9.77799 10.5483 9.54742 10.6445H9.54811Z" fill="#D7BC6B"/>
<path fill-rule="evenodd" clip-rule="evenodd" d="M8.86477 11.3436C8.86477 11.3436 8.75605 11.4083 8.69905 11.6508C8.64205 11.8993 8.75025 12.2022 8.81288 12.298C8.87552 12.3937 9.01768 12.6554 9.3126 12.6683C9.38559 12.6679 9.45778 12.653 9.5249 12.6243C9.62786 12.5771 9.72442 12.517 9.81231 12.4456C9.93928 12.3499 10.0427 12.2671 10.0297 12.2592C9.99868 12.2463 9.24791 11.6249 9.24791 11.6249L8.96563 11.3098L8.8646 11.3439L8.86477 11.3436Z" fill="#585136"/>
<path fill-rule="evenodd" clip-rule="evenodd" d="M9.57439 12.3738C9.57439 12.3738 9.72714 12.361 9.81776 12.304C9.90839 12.247 9.28699 11.6309 9.28699 11.6309L9.33102 12.2965L9.57439 12.3738Z" fill="#453A25"/>
<path fill-rule="evenodd" clip-rule="evenodd" d="M8.9139 11.2968C8.9139 11.2968 8.83624 11.4445 8.83624 11.4834C8.82327 11.6102 8.86218 12.0089 8.89325 12.1357C8.92431 12.2703 9.09258 12.4748 9.31018 12.4748C9.44467 12.4748 9.63121 12.392 9.63121 12.3714C9.63121 12.3454 9.43955 12.3202 9.38784 12.2237C9.35678 12.1725 9.34381 12.0452 9.33664 11.9165C9.33152 11.8338 9.33152 11.7431 9.36258 11.7117C9.43255 11.6341 9.44535 11.4114 9.44535 11.4114L9.69384 10.9497H9.36702L8.97602 11.1931L8.9139 11.2968Z" fill="#84754B"/>
<path fill-rule="evenodd" clip-rule="evenodd" d="M8.81818 11.4392C8.81818 11.4392 9.07418 11.1001 9.30492 11.0223C9.53566 10.9444 9.63891 10.9912 9.63891 10.9912L9.50426 11.3356L9.3126 11.5479L9.32557 11.6566C9.32557 11.6566 9.29434 11.944 9.48599 12.1434C9.67765 12.3427 9.81999 12.335 9.90293 12.335C9.98588 12.335 10.224 12.2651 10.3456 11.9777C10.4544 11.7085 10.545 11.3633 10.3276 11.0171C10.1151 10.6727 9.73978 10.6594 9.66724 10.6594C9.59471 10.6594 9.02519 10.6879 8.81818 11.4387V11.4392Z" fill="#252211"/>
<path fill-rule="evenodd" clip-rule="evenodd" d="M15.3916 12.5913C15.2958 12.5473 15.3865 12.2781 15.4822 12.1952C15.5779 12.1123 15.6996 12.0167 15.9121 12.0035C15.9896 11.9984 16.0647 12.0476 16.0519 12.0995C16.0338 12.1952 15.8991 12.3299 15.7775 12.4256C15.6092 12.5577 15.5003 12.6405 15.3916 12.5913Z" fill="#F7F7E7"/>
<path fill-rule="evenodd" clip-rule="evenodd" d="M10.2136 11.1234C10.2835 11.1182 10.3742 11.1746 10.3923 11.2503C10.4103 11.3331 10.3482 11.4988 10.2136 11.4988C10.1049 11.4988 10.0479 11.3642 10.0479 11.3254C10.0491 11.2936 10.058 11.2625 10.0738 11.2348C10.0789 11.227 10.0919 11.1363 10.2136 11.1234Z" fill="#F8F6DE"/>
<path fill-rule="evenodd" clip-rule="evenodd" d="M9.20387 11.1829C9.20387 11.1829 9.02519 11.2656 8.94241 11.4389C8.88327 11.5668 8.86538 11.7099 8.89121 11.8485C8.90418 11.9131 8.96887 12.0736 9.0129 12.1306C9.05693 12.1876 9.11649 12.2265 9.16053 12.2212C9.20456 12.2159 9.29501 12.0995 9.29501 12.0297C9.29501 11.9599 9.3003 11.6647 9.38564 11.5041C9.46073 11.3436 9.20439 11.183 9.20439 11.183L9.20387 11.1829Z" fill="#D4C38B"/>
<path fill-rule="evenodd" clip-rule="evenodd" d="M9.22981 11.1699C9.19875 11.188 9.14703 11.2139 9.15983 11.2475C9.1728 11.2786 9.28152 11.2987 9.32043 11.3745C9.36446 11.4522 9.36446 11.5349 9.35149 11.5739C9.38531 11.5578 9.416 11.5358 9.44212 11.509C9.49912 11.4443 9.56892 11.3564 9.62848 11.3564C9.6674 11.3564 9.70614 11.3745 9.74249 11.3745C9.79949 11.3745 9.85632 11.3564 9.86418 11.2969C9.87698 11.2192 9.75546 11.1492 9.68549 11.1622C9.69846 11.111 9.71655 11.0354 9.65955 10.9835C9.60254 10.9316 9.42403 11.0224 9.38511 11.0484C9.3462 11.0743 9.22981 11.1701 9.22981 11.1701V11.1699Z" fill="#E2D59D"/>
<path fill-rule="evenodd" clip-rule="evenodd" d="M13.3438 16.6095L13.7269 16.4963L13.8356 16.574C13.8356 16.574 13.9131 16.7397 14.035 16.7604C13.996 16.8431 13.895 16.914 13.9003 16.9727C13.9056 17.0314 13.9573 17.0763 13.9573 17.0763C13.9573 17.0763 13.6129 17.6458 14.2913 18.2197C14.1307 18.2844 13.9262 18.3733 13.8175 18.4245C13.895 18.4426 14.0607 18.4757 14.1307 18.5385C14.2007 18.6013 14.2007 18.6213 14.2654 18.6602C14.33 18.6991 14.3688 18.7508 14.356 18.7741C14.3119 18.7481 14.1643 18.6706 14.1386 18.743C14.1128 18.8154 13.4991 18.787 13.4991 18.787L12.4635 18.9864C12.4635 18.9864 12.5022 18.8828 12.3935 18.787C12.2667 18.6732 12.1114 18.7921 11.9457 18.6653C11.7282 18.4996 11.7204 18.308 11.6506 18.2356C11.7204 18.1916 11.8629 18.1269 12.202 18.082C12.189 18.0561 12.145 17.9784 12.1709 17.9086C12.202 17.818 12.3314 17.761 12.2926 17.6526C12.3496 17.6396 12.3754 17.6396 12.5179 17.4609C12.6526 17.2823 12.7353 17.2435 12.8389 17.2305C12.9425 17.2176 13.0046 17.2305 13.1963 17.0519C13.3308 16.9251 13.2869 16.8163 13.2869 16.8163C13.2869 16.8163 13.3748 16.7878 13.3439 16.6091L13.3438 16.6095Z" fill="#CBAC5A"/>
<path fill-rule="evenodd" clip-rule="evenodd" d="M12.2124 16.6671C12.2175 16.6412 12.2383 16.6282 12.3781 16.6412C12.5179 16.6541 13.4033 16.5584 13.6441 16.5454C13.8875 16.5273 14.7444 16.5401 15.1613 16.6282C15.5783 16.7163 16.0002 16.8198 16.2046 16.8716C16.4094 16.9286 16.4739 16.949 16.4661 16.975C16.461 17.0009 16.4149 17.0262 16.3884 17.019C16.3627 17.0139 15.6843 16.8067 15.4747 16.763C15.2651 16.7193 14.5399 16.6024 14.1435 16.6094C13.7733 16.6147 13.6257 16.6043 13.3125 16.6405C12.9992 16.6794 12.4814 16.7311 12.3261 16.7104C12.1725 16.6924 12.2042 16.6924 12.212 16.6664L12.2124 16.6671Z" fill="#D6BC6F"/>
<path fill-rule="evenodd" clip-rule="evenodd" d="M14.2964 18.6962C14.2964 18.6962 14.8272 18.9836 15.0188 19.3357C15.1586 19.5972 14.9361 19.7267 14.9361 19.7267C14.9361 19.7267 15.2364 19.7267 15.1975 19.8924C15.1794 19.9958 14.6797 20.2754 14.3457 20.423C14.0066 20.5706 14.0196 20.563 13.8539 20.5887C13.6933 20.6147 13.2531 20.5375 13.1625 20.6664C13.0719 20.7952 13.1113 20.928 13.1365 20.9487C13.1625 20.9668 13.3722 20.9927 13.3722 20.9927C13.3722 20.9927 13.3282 21.1144 12.8933 21.1274C12.4585 21.1403 12.3496 21.1712 12.3237 21.218C12.2977 21.2618 12.4064 21.2361 12.6059 21.2692C12.8053 21.3002 13.0848 21.3204 13.0848 21.3204C13.0848 21.3204 12.9942 21.398 12.7587 21.4602C12.4894 21.53 12.0673 21.5948 11.9405 21.6725C12.0052 21.7165 12.1011 21.7812 12.1453 21.7863C12.0366 21.8122 11.8837 21.8692 11.8579 21.8899C11.8966 21.9158 11.9485 21.9469 11.9485 21.9469C11.9485 21.9469 11.7309 22.2084 11.6041 22.2732C11.4773 22.3381 10.7472 22.677 10.496 22.6123C9.86947 22.4466 9.79182 21.7605 9.63907 21.7088C9.40867 21.6312 9.29995 21.7863 9.09532 21.6776C9.18595 21.6129 9.23527 21.5742 9.33102 21.5301C9.22742 21.4789 8.69153 21.1391 8.69153 21.1391C8.63549 21.017 8.57329 20.8978 8.50516 20.7819C8.40156 20.6032 8.24916 20.365 8.13481 20.1552C7.88632 19.6944 7.87335 19.4821 7.64807 19.2207C7.68698 19.1695 7.82147 19.1766 7.82147 19.1766L9.70904 19.798L13.056 19.895L13.9264 18.6523L14.2966 18.6964L14.2964 18.6962Z" fill="#DFC677"/>
<path fill-rule="evenodd" clip-rule="evenodd" d="M9.33856 20.5913C9.35876 20.6137 9.3823 20.633 9.40837 20.6483C9.47322 20.6923 9.56896 20.7442 9.63364 20.8217C9.65959 20.7829 9.72427 20.7129 9.83844 20.8217C9.95262 20.9304 10.0944 20.8529 10.1827 20.8787C10.2733 20.9099 10.2784 20.9227 10.2784 20.9227C10.2784 20.9227 10.3296 20.8787 10.4441 20.8321C10.5141 20.8061 10.5969 20.788 10.6875 20.7623C10.7703 20.7442 10.8609 20.7182 10.9232 20.7182C10.9802 20.757 11.1847 20.9742 12.0054 20.6536C12.7795 20.3532 12.9581 20.3196 13.0876 20.366C13.1006 20.3349 13.1135 20.2754 13.3129 20.2832C13.3129 20.2004 13.1472 19.9182 13.1472 19.9182L12.2332 19.605H11.7334L10.2344 19.8794L9.40376 20.3534L9.33907 20.5923L9.33856 20.5913Z" fill="#C4A859"/>
<path fill-rule="evenodd" clip-rule="evenodd" d="M8.83881 20.0659C8.83881 20.0659 8.8569 20.2057 9.06409 20.3533C9.26889 20.5007 9.33323 20.5888 9.33323 20.5888C9.33323 20.5888 9.37214 20.5376 9.4032 20.4854C9.43426 20.4284 9.4602 20.3637 9.51192 20.3456C9.61551 20.3016 9.85103 20.3843 9.90291 20.3714C9.94694 20.3586 9.93397 20.268 9.98057 20.268C10.0893 20.2627 10.1591 20.3378 10.198 20.3378C10.2369 20.3378 10.3325 20.3326 10.3455 20.312C10.3584 20.2913 10.3635 20.0763 10.5112 19.9727C10.6718 19.8589 10.8685 19.908 10.9208 19.934C10.9208 19.9727 10.9259 20.0686 11.0295 20.0737C11.1331 20.0789 11.1433 20.0608 11.2343 20.0918C11.3252 20.1229 11.4336 20.0867 11.4828 20.2393C11.5268 20.2265 11.6304 20.2135 11.6045 20.0659C11.6557 20.0271 11.7004 20.0012 11.8093 19.8485C11.8352 19.8097 11.8791 19.7657 11.9129 19.7087C12.0035 19.7087 12.1122 19.6906 12.2571 19.8174C12.2131 19.8485 12.1871 19.8686 12.1743 19.9002C12.2122 19.9377 12.2468 19.9784 12.2777 20.0219C12.3167 20.0731 12.3426 20.1359 12.3917 20.1488C12.5005 20.1799 12.6791 20.1359 12.8785 20.1488C13.0701 20.1618 13.2306 20.2316 13.3005 20.2756C13.3265 20.2628 13.3265 20.2575 13.3912 20.2705C13.4559 20.2835 13.505 20.2886 13.4352 20.2058C13.4739 20.2239 13.518 20.2628 13.5569 20.2239C13.5958 20.185 13.6267 20.1282 13.7354 20.1152C13.8441 20.1022 13.883 20.1203 13.9271 20.0065C13.9841 19.8667 13.7873 19.8667 13.7873 19.8667C13.7873 19.8667 13.8779 19.7838 13.9789 19.6751C14.1006 19.5612 14.2404 19.4136 14.274 19.2323C14.331 18.8984 14.0049 18.8545 14.0049 18.8545L12.423 19.3412L10.489 19.2453L8.83983 20.0661L8.83881 20.0659Z" fill="#927D49"/>
<path fill-rule="evenodd" clip-rule="evenodd" d="M7.41749 15.4963C7.41749 15.4963 7.36629 15.561 7.33472 15.7138C7.30315 15.8665 7.31663 15.8484 7.29069 15.9571C7.26475 16.0658 6.94611 17.148 7.06558 17.5131C7.18505 17.8782 7.39189 18.0128 7.52126 18.3079C7.5472 18.3726 7.57246 18.4115 7.58594 18.4685C7.62997 18.66 7.59123 18.8076 7.64295 18.9993C7.66104 19.0639 7.7078 19.139 7.7776 19.2167C7.9312 19.3771 8.18157 19.5299 8.2896 19.6386C8.44218 19.7992 8.65978 20.1255 8.93677 20.1564C9.0844 20.1745 9.29415 20.1124 9.46754 20.0089C9.62114 19.913 9.71603 19.7785 9.87714 19.7017C9.99098 19.6447 10.1127 19.6241 10.2214 19.5981C10.4467 19.5541 10.6513 19.5469 10.773 19.5722C10.9593 19.6111 11.3995 19.7458 11.6434 19.7458C11.8339 19.7427 12.0234 19.7166 12.2078 19.6681C12.5779 19.5594 13.0258 19.3729 13.321 19.2901C13.4944 19.2389 13.6342 19.2254 13.7767 19.1943C14.0201 19.1373 14.2245 19.0597 14.3411 18.9121C14.2634 18.8214 14.1677 18.6817 13.6497 18.6868C13.0621 18.6997 12.3837 19.0259 12.0497 19.0778C11.7157 19.1297 11.5708 19.1735 11.1979 19.0389C10.8324 18.9028 10.8202 18.8129 10.8202 18.8129C10.8202 18.8129 10.4364 18.5444 10.2758 17.8601C10.1152 17.1757 10.2758 16.677 10.6928 16.2031C10.8015 16.0814 10.7755 15.9727 10.7755 15.9727C10.7755 15.9727 11.05 15.6025 10.9749 15.2559C10.8921 14.9115 10.3613 14.9814 10.3613 14.9814L7.41767 15.4963H7.41749Z" fill="#6E6342"/>
<path fill-rule="evenodd" clip-rule="evenodd" d="M7.86021 16.6484C7.83739 16.6914 7.82665 16.7397 7.82915 16.7882C7.83427 16.858 7.85509 16.9486 8.06467 17.1533C8.24336 17.3318 8.20445 17.5311 8.20445 17.5311C8.20445 17.5311 8.29439 17.5492 8.53844 17.435C8.7301 17.3444 8.79444 17.505 8.79444 17.505C8.85023 17.4758 8.9107 17.4565 8.97313 17.448C9.02969 17.4428 9.08443 17.4253 9.13356 17.3968C9.13356 17.3968 9.35884 17.6272 9.55562 17.7359C9.7343 17.8318 9.8379 17.8965 9.92596 17.8318C10.0087 17.7748 10.0087 17.6583 10.0034 17.6066C9.98291 17.5588 9.95691 17.5136 9.92596 17.4719C9.86896 17.3891 9.77834 17.2932 9.77236 17.2159C9.75939 17.0374 9.90702 16.8249 9.87579 16.7732C9.84455 16.7215 9.72833 16.7085 9.44093 16.8121C9.14328 16.9104 7.85902 16.6489 7.85902 16.6489L7.86021 16.6484Z" fill="#39331F"/>
<path fill-rule="evenodd" clip-rule="evenodd" d="M8.53844 17.8056C8.53844 17.8056 8.39099 17.6658 8.4427 16.9874C8.5053 16.9865 8.56781 16.9926 8.62907 17.0055C8.62907 17.0055 8.70945 17.5311 8.53844 17.8056Z" fill="#292311"/>
<path fill-rule="evenodd" clip-rule="evenodd" d="M7.48751 14.9785C7.50809 14.9633 7.52717 14.9461 7.54451 14.9273C7.49331 15.023 7.25694 15.4062 7.4486 16.0095C7.64026 16.6101 8.12171 17.0579 8.7146 17.0787C9.3075 17.0995 9.61914 16.8094 9.97549 16.3745C10.1153 16.2011 10.2759 15.9835 10.4182 15.8361C10.6305 15.6055 10.7962 15.5408 10.7962 15.3183C10.7962 14.8626 10.3301 14.658 9.64405 14.4535C8.95797 14.2491 8.33914 14.2743 8.01811 14.4143C7.70494 14.5668 7.57028 14.7274 7.48734 14.9787L7.48751 14.9785Z" fill="#252211"/>
<path fill-rule="evenodd" clip-rule="evenodd" d="M9.69064 18.0101L9.74184 17.9841C9.74184 17.9841 9.75464 17.7793 9.83758 17.7848C9.92035 17.7977 9.95927 17.9066 9.95141 17.9454C9.94629 17.9841 9.92564 18.049 9.8427 18.0411C9.73398 18.0437 9.69012 18.0101 9.69012 18.0101H9.69064Z" fill="#3F3824"/>
<path fill-rule="evenodd" clip-rule="evenodd" d="M9.46021 17.1401C9.46021 17.1401 9.5114 17.1221 9.57404 17.1842C9.62524 17.1842 9.84847 17.1582 9.91844 17.2023C9.98842 17.2463 10.0091 17.285 10.0091 17.285C10.0091 17.285 9.74761 17.342 9.6051 17.285C9.4602 17.2359 9.46021 17.1401 9.46021 17.1401Z" fill="#2D2815"/>
<path fill-rule="evenodd" clip-rule="evenodd" d="M10.6124 17.1791C10.6124 17.1661 10.4726 17.0703 10.325 17.0391C10.299 17.034 10.2937 17.0521 10.2738 17.0521C10.2608 17.047 10.2557 17.0081 10.2557 17.0081L10.1717 17.0523C10.1717 17.0523 10.1587 17.0704 10.2028 17.1035C10.2415 17.1345 10.3064 17.1605 10.3245 17.2122C10.3425 17.2639 10.3425 17.282 10.3504 17.2898C10.3555 17.2949 10.4461 17.2898 10.4902 17.2639C10.5342 17.2379 10.6171 17.1956 10.6119 17.1786L10.6124 17.1791Z" fill="#82764F"/>
<path fill-rule="evenodd" clip-rule="evenodd" d="M9.30493 17.7046C9.30493 17.7046 9.3307 17.5261 9.50427 17.5183C9.68279 17.5053 9.71658 17.6787 9.71658 17.6787L9.61298 17.7823C9.61298 17.7797 9.53533 17.671 9.30578 17.7046H9.30493Z" fill="#2D2816"/>
<path fill-rule="evenodd" clip-rule="evenodd" d="M10.4312 16.9357C10.4312 16.9357 10.3353 17.0392 10.1231 17.0703C10.105 17.0444 10.0661 16.9927 10.1231 16.9099C10.1801 16.8271 10.2448 16.8012 10.3095 16.8269C10.338 16.8316 10.3646 16.8443 10.3862 16.8635C10.4078 16.8828 10.4234 16.9078 10.4312 16.9357Z" fill="#574F35"/>
<path fill-rule="evenodd" clip-rule="evenodd" d="M10.822 17.0626C10.8273 17.0367 10.8092 17.0315 10.822 17.0186C10.8348 17.0056 10.9049 16.9798 10.9179 16.9926C10.923 16.9979 10.9179 17.0186 10.9179 17.0438C10.9179 17.0691 10.9179 17.095 10.9049 17.1136C10.8869 17.1396 10.8351 17.1525 10.8092 17.1449C10.7833 17.1372 10.7781 17.1008 10.7781 17.0937C10.7909 17.0885 10.822 17.0756 10.822 17.0626ZM11.264 16.7831C11.264 16.7701 11.3081 16.7441 11.334 16.7441C11.3727 16.7441 11.3727 16.7752 11.378 16.7831C11.3908 16.7882 11.3908 16.7778 11.4038 16.8011C11.4168 16.8245 11.435 16.8658 11.4219 16.8918C11.4088 16.9177 11.3572 16.9356 11.3444 16.9305C11.3263 16.9175 11.2693 16.8011 11.264 16.7831Z" fill="#82764F"/>
<path fill-rule="evenodd" clip-rule="evenodd" d="M10.3741 17.1222C10.3741 17.1222 10.4311 17.135 10.5088 17.1999C10.4829 17.218 10.4439 17.2386 10.4439 17.2386C10.4439 17.2386 10.4388 17.1791 10.3741 17.1221V17.1222Z" fill="#6E6342"/>
<path fill-rule="evenodd" clip-rule="evenodd" d="M10.2473 16.5525C10.2344 16.5397 10.2861 16.5086 10.3171 16.5137C10.3482 16.5189 10.3612 16.5397 10.3948 16.5448C10.4284 16.5499 10.4337 16.5318 10.446 16.5189C10.4583 16.5059 10.503 16.5137 10.5107 16.5189C10.5155 16.5245 10.5198 16.5306 10.5237 16.5369C10.5242 16.5271 10.5268 16.5175 10.5312 16.5087C10.5356 16.4998 10.5418 16.492 10.5494 16.4857C10.5594 16.4784 10.5708 16.4735 10.5829 16.4712C10.595 16.469 10.6075 16.4695 10.6194 16.4728C10.6245 16.4909 10.6505 16.5555 10.6453 16.5685C10.6402 16.5815 10.5626 16.5997 10.5494 16.5866C10.5624 16.6178 10.6194 16.6825 10.6271 16.6953C10.6348 16.7081 10.5701 16.7394 10.5443 16.7342C10.5081 16.7317 10.2854 16.6021 10.2467 16.553L10.2473 16.5525ZM10.5865 16.1227C10.5817 16.1097 10.5725 16.0987 10.5605 16.0917C10.5424 16.0866 10.4829 16.0917 10.4829 16.1227C10.4829 16.1538 10.5341 16.3275 10.5916 16.418C10.6564 16.5086 10.7003 16.5835 10.7443 16.6044C10.7582 16.6107 10.7738 16.6115 10.7883 16.6067C10.8027 16.6018 10.8147 16.5918 10.822 16.5784C10.8271 16.5654 10.8401 16.4697 10.835 16.2444C10.8298 16.0191 10.822 15.8017 10.809 15.7887C10.796 15.7758 10.7443 15.7759 10.7262 15.8017C10.7081 15.8275 10.5916 16.084 10.5863 16.1227H10.5865Z" fill="#585136"/>
<path fill-rule="evenodd" clip-rule="evenodd" d="M10.3561 17.4482C10.3561 17.4482 10.2654 17.3912 10.1774 17.4301C10.0946 17.469 10.0997 17.6218 10.0997 17.6218C10.1184 17.629 10.1385 17.6317 10.1583 17.6294C10.1782 17.6272 10.1972 17.6201 10.2137 17.6088C10.2707 17.57 10.3431 17.5054 10.3561 17.4484V17.4482Z" fill="#574F35"/>
<path fill-rule="evenodd" clip-rule="evenodd" d="M10.5269 17.6529C10.5218 17.6017 10.4757 17.6017 10.4757 17.5753C10.4789 17.5626 10.4862 17.5514 10.4965 17.5434C10.5068 17.5354 10.5195 17.5311 10.5325 17.5312C10.5585 17.5312 10.5837 17.5623 10.6155 17.5824C10.6465 17.6005 10.6931 17.6336 10.6983 17.673C10.7034 17.7125 10.6471 17.8205 10.5844 17.8205C10.5218 17.8205 10.5404 17.7039 10.5274 17.6522L10.5269 17.6529ZM11.0266 17.5829C11.0266 17.5829 10.923 17.614 10.9307 17.5829C10.9384 17.5519 10.9619 17.5442 10.9956 17.5442C11.0126 17.5263 11.0356 17.5152 11.0602 17.513C11.0743 17.5123 11.0882 17.5169 11.099 17.5259C11.099 17.5259 11.169 17.4949 11.1896 17.513C11.2103 17.531 11.1949 17.531 11.2077 17.5519C11.224 17.575 11.2347 17.6016 11.2389 17.6295C11.2389 17.6502 11.1613 17.6942 11.099 17.6865C11.0266 17.671 11.0394 17.5959 11.0266 17.5829ZM11.6298 17.4664C11.6298 17.4664 11.6608 17.4845 11.635 17.5053C11.617 17.5234 11.5263 17.5565 11.4485 17.5623C11.3709 17.5623 11.3011 17.5751 11.3011 17.5493C11.3011 17.5235 11.3657 17.4717 11.4045 17.4587C11.4122 17.449 11.4221 17.4411 11.4333 17.4357C11.4446 17.4303 11.4569 17.4276 11.4693 17.4276C11.5004 17.4276 11.6219 17.4147 11.6557 17.4095C11.6868 17.4042 11.7127 17.4223 11.6944 17.4483C11.6868 17.4664 11.6298 17.4664 11.6298 17.4664ZM11.8084 16.667C11.8084 16.667 11.7695 16.7497 11.7257 16.7497C11.6816 16.7446 11.6816 16.7316 11.6816 16.7187C11.6816 16.7006 11.7257 16.654 11.7204 16.641C11.7076 16.641 11.6763 16.641 11.6816 16.61C11.6816 16.584 11.7257 16.553 11.7644 16.5588C11.7937 16.5347 11.8301 16.5211 11.868 16.52C11.912 16.52 11.9508 16.5328 11.9508 16.5588C11.9508 16.5847 11.8996 16.6415 11.8808 16.6547C11.8602 16.6753 11.8342 16.6888 11.8084 16.6675V16.667ZM11.2181 18.197C11.2181 18.197 11.1669 18.2023 11.1669 18.2281C11.1669 18.241 11.1797 18.241 11.198 18.2333C11.2085 18.2327 11.2189 18.231 11.229 18.2281C11.2342 18.2333 11.2342 18.2591 11.2731 18.2591C11.305 18.2548 11.3358 18.2442 11.3637 18.2281C11.3947 18.2153 11.4207 18.2021 11.4207 18.1769C11.4077 18.1328 11.3818 18.112 11.343 18.112C11.3232 18.1107 11.3034 18.1152 11.286 18.125C11.286 18.125 11.2731 18.099 11.229 18.125C11.185 18.1509 11.1901 18.1509 11.2031 18.1639C11.2263 18.1845 11.2186 18.198 11.2186 18.198L11.2181 18.197ZM10.9256 18.4663C10.9256 18.4533 10.9903 18.4274 11.0084 18.4352C11.0264 18.4404 11.0782 18.5387 11.0782 18.5491C11.0782 18.562 11.0135 18.5931 10.9875 18.5931C10.9616 18.5931 10.9177 18.5491 10.9177 18.5419C10.9177 18.5368 10.9488 18.5291 10.9488 18.5238C10.9565 18.511 10.9256 18.4798 10.9256 18.4668V18.4663ZM10.7208 18.0883C10.7338 18.0832 10.7338 18.0702 10.7518 18.0572C10.7575 18.0534 10.764 18.051 10.7707 18.0501C10.7775 18.0493 10.7843 18.0499 10.7908 18.0521C10.7953 18.044 10.8016 18.0369 10.8093 18.0315C10.8169 18.0261 10.8256 18.0225 10.8348 18.0209C10.8659 18.0157 10.8918 18.0209 10.886 18.0338C10.886 18.0727 10.9119 18.0985 10.9119 18.1296C10.9119 18.1606 10.8938 18.1995 10.8292 18.2255C10.7645 18.2436 10.6764 18.2436 10.6634 18.2385C10.6505 18.2333 10.6375 18.1815 10.6505 18.1555C10.6634 18.1296 10.6996 18.1012 10.7204 18.0883H10.7208Z" fill="#82764F"/>
<path fill-rule="evenodd" clip-rule="evenodd" d="M10.8032 18.106C10.8032 18.106 10.7592 18.1319 10.7592 18.1449C10.7553 18.1574 10.7535 18.1705 10.7541 18.1836C10.7541 18.1913 10.8111 18.1785 10.8187 18.1706C10.8213 18.1655 10.8032 18.1194 10.8032 18.106Z" fill="#6E6342"/>
<path fill-rule="evenodd" clip-rule="evenodd" d="M10.4182 17.9842C10.4439 17.9895 10.488 17.9842 10.5216 17.9972C10.5475 18.0102 10.5656 18.0361 10.5397 18.0672C10.5137 18.0982 10.4885 18.1448 10.431 18.137C10.3663 18.1319 10.3042 18.0982 10.3042 18.0723C10.3031 18.0559 10.3053 18.0394 10.3106 18.0239C10.3159 18.0083 10.3243 17.994 10.3352 17.9817C10.3612 17.961 10.374 17.974 10.418 17.9842H10.4182Z" fill="#585136"/>
<path fill-rule="evenodd" clip-rule="evenodd" d="M10.3871 18.0103C10.3871 18.0103 10.3043 18.0749 10.2835 18.1062C10.2575 18.1372 10.1307 18.2977 10.092 18.3313C10.1049 18.3086 10.1195 18.2869 10.1359 18.2666C10.0847 18.2993 10.0463 18.3487 10.0272 18.4064C9.99609 18.5023 10.2007 18.554 10.3352 18.5929C10.4697 18.6318 10.5217 18.6441 10.5217 18.6441C10.4722 18.5697 10.4297 18.4909 10.3948 18.4086C10.3436 18.2869 10.3171 18.2739 10.3507 18.2169C10.3767 18.1599 10.4156 18.1212 10.4156 18.0772C10.4001 18.0362 10.3871 18.0103 10.3871 18.0103Z" fill="#574F35"/>
<path fill-rule="evenodd" clip-rule="evenodd" d="M7.43558 18.2149C7.45443 18.2184 7.47374 18.2184 7.49259 18.2149C7.53133 18.2096 7.9353 18.0613 8.35735 18.0879C8.67331 18.107 8.98648 18.1585 9.29192 18.2415C9.8227 18.3813 10.4828 18.6583 10.91 18.8163C11.0238 18.8602 11.1353 18.938 11.2172 18.9689C11.5435 19.0959 11.5563 19.0959 11.748 19.1295C11.9733 19.1606 12.2037 19.0855 12.4445 19.0337C12.7396 18.9689 13.2444 18.9378 13.6871 18.8732C13.8303 18.8533 13.9715 18.8213 14.1092 18.7774C14.1092 18.7774 13.7571 19.1295 12.913 19.2563C12.5718 19.3081 12.225 19.3125 11.8826 19.2693C11.6133 19.2433 11.4348 19.2044 11.3002 19.1657C11.1474 19.1216 10.8341 19.0051 10.4484 18.9097C10.1791 18.8397 9.87868 18.788 9.53444 18.7233C8.6852 18.5678 7.7636 18.3893 7.43524 18.2159L7.43558 18.2149Z" fill="#252211"/>
<path fill-rule="evenodd" clip-rule="evenodd" d="M6.4828 16.6147C6.278 16.7881 6.06074 16.9539 5.84861 17.1143L5.20912 17.6056C4.99169 17.7661 4.77938 17.9318 4.56178 18.0924C4.34418 18.253 4.12692 18.4056 3.89618 18.5532C4.10098 18.3798 4.31824 18.2192 4.53567 18.0613C4.7531 17.9034 4.97855 17.7487 5.1883 17.5886L5.82778 17.0965C6.04777 16.9361 6.26008 16.7704 6.4828 16.6151V16.6147ZM5.35145 18.4271C5.35145 18.4271 5.58185 18.2354 5.86926 17.9663C6.22646 17.6324 6.66405 17.2051 6.80383 17.1276L5.35128 18.4272L5.35145 18.4271Z" fill="#CFB66C"/>
<path fill-rule="evenodd" clip-rule="evenodd" d="M5.35144 18.427C5.46545 18.3132 5.58713 18.2019 5.70882 18.093L5.89518 17.9326C5.95219 17.8814 6.01704 17.8239 6.07387 17.7668C6.18771 17.653 6.29915 17.5312 6.41299 17.4148C6.46941 17.3562 6.52906 17.3009 6.59168 17.249C6.62298 17.2213 6.65774 17.1978 6.6951 17.1791C6.72633 17.161 6.75995 17.1279 6.80381 17.1221C6.77804 17.161 6.74698 17.1791 6.72104 17.2127C6.68998 17.2386 6.66404 17.2697 6.63827 17.2955C6.58126 17.3525 6.51658 17.4042 6.45958 17.4561C6.33789 17.5597 6.21109 17.6609 6.0894 17.7692C5.96772 17.8776 5.85388 17.9945 5.73203 18.1032C5.6001 18.2147 5.47842 18.3234 5.35144 18.4275V18.427ZM6.89973 17.3914C6.89973 17.3914 6.05578 18.2174 5.88221 18.3519L6.89973 17.3914Z" fill="#CFB66C"/>
<path fill-rule="evenodd" clip-rule="evenodd" d="M6.89972 17.3914C6.8238 17.4792 6.7424 17.5622 6.656 17.6398L6.4 17.8832C6.31723 17.966 6.23941 18.0489 6.15151 18.1317C6.06089 18.2094 5.97812 18.2853 5.8822 18.357L6.13069 18.1136C6.21364 18.0308 6.30426 17.961 6.39232 17.8781L6.64082 17.6347C6.72615 17.5494 6.80909 17.4665 6.89972 17.3914ZM6.93846 17.8392C6.86067 18.0563 6.769 18.2682 6.66403 18.4736C6.4466 18.9086 6.12045 19.4522 5.97795 19.7293L6.93846 17.8392Z" fill="#CFB66C"/>
<path fill-rule="evenodd" clip-rule="evenodd" d="M6.93848 17.8394C6.93848 17.9351 6.91254 18.018 6.88148 18.1008C6.8512 18.1837 6.81668 18.2649 6.77805 18.3442C6.73914 18.4218 6.69511 18.5048 6.65108 18.5799C6.60705 18.655 6.55534 18.7325 6.51642 18.8103L6.25496 19.2711C6.16434 19.4247 6.07627 19.5791 5.98053 19.7268C6.04521 19.561 6.13328 19.4057 6.21622 19.253C6.30684 19.0994 6.38962 18.9458 6.47222 18.7869C6.51255 18.7077 6.54884 18.6266 6.58094 18.5437C6.61968 18.4608 6.65842 18.3831 6.68965 18.308C6.72839 18.2252 6.75945 18.1474 6.79836 18.0725C6.84223 17.9921 6.87858 17.9144 6.93814 17.8394H6.93848Z" fill="#CFB66C"/>
<path fill-rule="evenodd" clip-rule="evenodd" d="M7.86025 19.9622C7.86025 19.9622 7.60425 20.3013 7.62985 20.731C7.69965 20.5059 7.78772 20.1615 7.86025 19.9622ZM8.10362 20.3021C8.10362 20.3021 8.013 21.2237 7.9379 21.6768C8.04406 21.1531 8.06471 21.1971 8.10362 20.3021ZM9.79937 21.7313C9.79937 21.7313 9.41622 22.8577 9.40837 23.1707C9.49131 22.8488 9.65174 22.1912 9.79937 21.7304V21.7313Z" fill="#DEC270"/>
<path fill-rule="evenodd" clip-rule="evenodd" d="M10.6952 19.8926C10.6952 19.8926 11.3166 20.9178 11.7827 21.7928C11.6566 21.3525 11.3664 20.5449 10.6952 19.8926Z" fill="#CBAF59"/>
<path fill-rule="evenodd" clip-rule="evenodd" d="M12.3651 21.4019C12.7063 22.0049 13.014 22.6264 13.2867 23.2633C13.235 22.8232 13.0951 22.0698 12.3651 21.4019Z" fill="#E3C677"/>
<path fill-rule="evenodd" clip-rule="evenodd" d="M17.2738 22.9134C17.3773 22.8488 17.5819 22.4965 17.7606 22.4086C17.9391 22.318 18.0738 22.2999 18.2344 22.1212C18.3948 21.9347 18.4392 21.8208 18.7909 21.6734C19.2829 21.4609 18.9445 21.1865 18.9445 21.1865C18.9987 21.1332 19.0566 21.0839 19.1179 21.039C19.2449 20.9433 19.3923 20.8267 19.3795 20.6221C19.3614 20.2778 19.2968 19.7781 19.0145 19.4882C19.2889 19.4312 19.8144 19.3924 20.1409 19.3096C20.5187 19.2137 20.6923 19.0791 20.6923 19.0791C20.6923 19.0791 20.4749 18.7089 20.8269 18.3362C21.179 17.9634 21.4664 17.7407 21.6787 17.3238C21.4354 17.2927 21.0643 17.1633 20.1175 17.5231C20.1686 17.5471 20.2179 17.5748 20.2651 17.6059C20.2651 17.6059 19.6826 17.7665 19.4703 17.9452C19.1 18.2583 19.0534 18.5147 18.6521 18.7063C18.2509 18.898 17.8469 18.8461 17.5131 19.0014C17.1793 19.1567 17.13 19.2888 17.0081 19.3458C17.0341 19.3769 17.003 19.4286 17.0521 19.4726C17.0211 19.5167 16.8398 19.8117 16.656 19.8117C16.6741 19.8817 16.8294 19.9334 16.8294 19.9334C16.8294 19.9334 16.7156 20.0164 16.4256 20.037C16.5731 20.1906 16.713 20.358 17.0987 20.6014C17.0677 20.6661 16.9381 20.762 16.99 20.8837C17.047 21.0054 17.1948 21.1711 17.7848 21.3058C17.4844 21.3186 17.1325 21.3885 16.6584 21.3238C16.1846 21.2668 16.107 21.2332 15.8145 21.3058C15.8455 21.3368 15.9283 21.3368 16.0008 21.4196C15.9232 21.4247 15.4364 21.3626 15.2707 21.5802C15.0973 21.8053 15.0222 22.1756 15.0352 22.4241C14.9446 22.4682 14.8565 22.5458 14.9006 22.7064C14.9446 22.867 15.175 22.9187 15.3226 23.0196C15.4701 23.1283 15.483 23.167 15.623 23.1413C15.7704 23.1102 15.9879 22.9628 16.1148 22.9628C16.2418 22.9628 16.3323 23.0585 16.3323 23.0585C16.3323 23.0585 16.6767 22.8928 16.7103 22.9238C16.7414 22.9549 16.7154 23.1542 16.749 23.1853C16.7832 23.2087 17.1711 22.9783 17.2747 22.9134H17.2738Z" fill="#ECD592"/>
<path fill-rule="evenodd" clip-rule="evenodd" d="M24.8001 12.5526C23.182 8.374 19.1819 7.59985 19.1819 7.59985H7.76958L7.81361 11.8561H10.0864V21.3604H7.76941V25.6089H18.866C21.5403 25.6089 23.6841 22.9215 23.6841 22.9215C27.117 18.0491 24.7999 12.5526 24.7999 12.5526H24.8001ZM18.9255 20.058C18.9255 20.058 18.0551 21.3138 17.1081 21.3138H15.2137L15.1688 11.8665H17.6C17.6 11.8665 18.7264 12.102 19.5133 14.3311C19.5133 14.3311 20.5566 17.5226 18.9255 20.058Z" fill="white" fill-opacity="0.8"/>
</g>
<defs>
<clipPath id="clip0_542_1098">
<rect width="32" height="32" fill="white" transform="translate(0 0.487793)"/>
</clipPath>
</defs>
</svg>
