<svg width="14" height="14" viewBox="0 0 14 14" fill="none" xmlns="http://www.w3.org/2000/svg">
<path d="M2.90923 6.64186C2.90926 6.48404 2.97217 6.33274 3.08403 6.22142C3.19589 6.11009 3.3475 6.04792 3.50532 6.04866L4.49356 6.05189C4.82169 6.05189 5.08769 6.31789 5.08769 6.64601V10.3831C5.19899 10.3501 5.34144 10.3149 5.49819 10.278C5.72177 10.2254 5.8798 10.0259 5.87985 9.79622V5.16099C5.87985 4.83285 6.14583 4.56682 6.47397 4.56675H7.46522C7.79336 4.56682 8.05934 4.83285 8.05934 5.16099V9.46323C8.05934 9.46323 8.30733 9.36288 8.54874 9.26092C8.73213 9.18335 8.85135 9.00363 8.85151 8.80451V3.67563C8.85151 3.34755 9.11743 3.08157 9.44551 3.0815H10.4357C10.7636 3.08182 11.0293 3.34773 11.0293 3.67563V7.89908C11.8878 7.27693 12.7578 6.52859 13.4482 5.62882C13.6517 5.36353 13.7087 5.01395 13.6 4.69778C12.7283 2.19002 10.5119 0.39204 7.87828 0.0563002C5.24466 -0.27944 2.64803 0.904959 1.17508 3.11382C-0.297875 5.32269 -0.393133 8.17509 0.929168 10.4773C1.10162 10.7746 1.43068 10.9451 1.77301 10.9145C1.96032 10.898 2.19354 10.8747 2.47082 10.8421C2.72064 10.8137 2.90943 10.6024 2.90969 10.351L2.90923 6.64186Z" fill="black"/>
<path d="M2.88867 12.6351C5.01692 14.1834 7.834 14.4063 10.1792 13.212C12.5245 12.0176 14.001 9.6082 14.0005 6.97636C14.0005 6.81489 13.993 6.65595 13.9823 6.49747C11.426 10.3101 6.70601 12.0924 2.88867 12.6351Z" fill="black"/>
</svg>
