<svg width="32" height="33" viewBox="0 0 32 33" fill="none" xmlns="http://www.w3.org/2000/svg">
<path fill-rule="evenodd" clip-rule="evenodd" d="M32 16.4878C32 14.3938 31.583 12.2998 30.782 10.3648C29.981 8.42979 28.795 6.65479 27.314 5.17379C25.833 3.69279 24.058 2.50679 22.123 1.70579C20.188 0.904793 18.094 0.487793 16 0.487793C13.906 0.487793 11.812 0.904793 9.877 1.70579C7.942 2.50679 6.167 3.69279 4.686 5.17379C3.205 6.65479 2.019 8.42979 1.218 10.3648C0.417 12.2998 0 14.3938 0 16.4878C0 18.5818 0.417 20.6758 1.218 22.6108C2.019 24.5458 3.205 26.3208 4.686 27.8018C6.167 29.2828 7.942 30.4688 9.877 31.2698C11.812 32.0708 13.906 32.4878 16 32.4878C18.094 32.4878 20.188 32.0708 22.123 31.2698C24.058 30.4688 25.833 29.2828 27.314 27.8018C28.795 26.3208 29.981 24.5458 30.782 22.6108C31.583 20.6758 32 18.5818 32 16.4878Z" fill="white"/>
<path fill-rule="evenodd" clip-rule="evenodd" d="M14.025 6.9468L16 5.8208L17.975 6.9468L23.358 10.0248L25.333 11.1508V21.8068L23.358 22.9328L18.024 26.0138L16.049 27.1368L14.074 26.0138L8.64199 22.9328L6.66699 21.8068V11.1508L8.64199 10.0248L14.025 6.9468ZM10.617 13.3988V19.5588L16 22.6398L21.383 19.5588V13.3988L16 10.3178L10.617 13.3988Z" fill="#2A5ADA"/>
</svg>
