<svg width="32" height="33" viewBox="0 0 32 33" fill="none" xmlns="http://www.w3.org/2000/svg">
<g clip-path="url(#clip0_542_5219)">
<path d="M16 32.4878C24.8366 32.4878 32 25.3244 32 16.4878C32 7.65124 24.8366 0.487793 16 0.487793C7.16344 0.487793 0 7.65124 0 16.4878C0 25.3244 7.16344 32.4878 16 32.4878Z" fill="#FF0420"/>
<path d="M11.3344 20.7375C10.3808 20.7375 9.6 20.5135 8.992 20.0655C8.3904 19.6111 8.0896 18.9583 8.0896 18.1199C8.0896 17.9407 8.1088 17.7295 8.1472 17.4735C8.2496 16.8975 8.3968 16.2063 8.5888 15.3935C9.1328 13.1919 10.5408 12.0911 12.8064 12.0911C13.4208 12.0911 13.9776 12.1935 14.464 12.4047C14.9504 12.6031 15.3344 12.9103 15.616 13.3199C15.8976 13.7231 16.0384 14.2031 16.0384 14.7599C16.0384 14.9263 16.0192 15.1375 15.9808 15.3935C15.8592 16.1039 15.7184 16.8015 15.5456 17.4735C15.264 18.5679 14.784 19.3935 14.0928 19.9375C13.408 20.4751 12.4864 20.7375 11.3344 20.7375ZM11.5072 19.0095C11.9552 19.0095 12.3328 18.8751 12.6464 18.6127C12.9664 18.3503 13.1968 17.9471 13.3312 17.3967C13.5168 16.6415 13.6576 15.9887 13.7536 15.4255C13.7856 15.2591 13.8048 15.0863 13.8048 14.9071C13.8048 14.1775 13.4272 13.8127 12.6656 13.8127C12.2176 13.8127 11.8336 13.9471 11.5136 14.2095C11.2 14.4719 10.976 14.8751 10.8416 15.4255C10.6944 15.9631 10.5536 16.6159 10.4064 17.3967C10.3744 17.5567 10.3552 17.7231 10.3552 17.9023C10.3488 18.6447 10.7392 19.0095 11.5072 19.0095Z" fill="white"/>
<path d="M16.5952 20.6222C16.5056 20.6222 16.4416 20.5966 16.3904 20.539C16.352 20.475 16.3392 20.4046 16.352 20.3214L18.0096 12.5134C18.0224 12.4238 18.0672 12.3534 18.144 12.2958C18.2144 12.2382 18.2912 12.2126 18.3744 12.2126H21.568C22.4576 12.2126 23.168 12.3982 23.7056 12.763C24.2496 13.1342 24.5248 13.6654 24.5248 14.363C24.5248 14.5614 24.4992 14.7726 24.4544 14.9902C24.256 15.9118 23.8528 16.5902 23.2384 17.0318C22.6368 17.4734 21.8112 17.691 20.7616 17.691H19.1424L18.592 20.3214C18.5728 20.411 18.5344 20.4814 18.4576 20.539C18.3872 20.5966 18.3104 20.6222 18.2272 20.6222H16.5952ZM20.8448 16.0334C21.184 16.0334 21.472 15.9438 21.7216 15.7582C21.9776 15.5726 22.144 15.3102 22.2272 14.9646C22.2528 14.8302 22.2656 14.7086 22.2656 14.6062C22.2656 14.3758 22.1952 14.1966 22.0608 14.075C21.9264 13.947 21.6896 13.883 21.3632 13.883H19.9232L19.4688 16.0334H20.8448Z" fill="white"/>
</g>
<defs>
<clipPath id="clip0_542_5219">
<rect width="32" height="32" fill="white" transform="translate(0 0.487793)"/>
</clipPath>
</defs>
</svg>
