<svg width="32" height="33" viewBox="0 0 32 33" fill="none" xmlns="http://www.w3.org/2000/svg">
<g clip-path="url(#clip0_542_6211)">
<path d="M16 32.4878C24.8366 32.4878 32 25.3243 32 16.4878C32 7.65124 24.8366 0.487793 16 0.487793C7.16344 0.487793 0 7.65124 0 16.4878C0 25.3243 7.16344 32.4878 16 32.4878Z" fill="#EF0027"/>
<path d="M21.932 10.4009L7.5 7.74487L15.095 26.8569L25.678 13.9629L21.932 10.4009ZM21.7 11.5709L23.908 13.6699L17.87 14.7629L21.7 11.5709ZM16.558 14.5439L10.194 9.26587L20.596 11.1799L16.558 14.5439ZM16.105 15.4779L15.067 24.0579L9.472 9.97487L16.105 15.4779ZM17.065 15.9329L23.752 14.7229L16.082 24.0659L17.065 15.9329Z" fill="white"/>
</g>
<defs>
<clipPath id="clip0_542_6211">
<rect width="32" height="32" fill="white" transform="translate(0 0.487793)"/>
</clipPath>
</defs>
</svg>
