<svg width="32" height="33" viewBox="0 0 32 33" fill="none" xmlns="http://www.w3.org/2000/svg">
<path d="M16 32.4878C24.8667 32.4878 32 25.3545 32 16.4878C32 7.62107 24.8667 0.487793 16 0.487793C7.13328 0.487793 0 7.62107 0 16.4878C0 25.3545 7.13328 32.4878 16 32.4878Z" fill="url(#paint0_linear_542_4451)"/>
<path d="M20.4 19.0211C20.4 16.6878 19 15.8878 16.2 15.5545C14.2 15.2878 13.8 14.7545 13.8 13.8211C13.8 12.8877 14.4667 12.2878 15.8 12.2878C17 12.2878 17.6667 12.6878 18 13.6878C18.0667 13.8878 18.2667 14.0211 18.4667 14.0211H19.5332C19.8 14.0211 20 13.8211 20 13.5545V13.4878C19.7332 12.0211 18.5332 10.8878 17 10.7545V9.15453C17 8.88781 16.8 8.68781 16.4667 8.62109H15.4667C15.2 8.62109 15 8.82109 14.9332 9.15453V10.6878C12.9332 10.9545 11.6667 12.2878 11.6667 13.9545C11.6667 16.1545 13 17.0211 15.8 17.3545C17.6667 17.6878 18.2667 18.0878 18.2667 19.1545C18.2667 20.2213 17.3332 20.9545 16.0667 20.9545C14.3332 20.9545 13.7332 20.2211 13.5332 19.2211C13.4667 18.9545 13.2667 18.8211 13.0667 18.8211H11.9332C11.6667 18.8211 11.4667 19.0211 11.4667 19.2878V19.3545C11.7332 21.0211 12.8 22.2211 15 22.5545V24.1545C15 24.4211 15.2 24.6211 15.5332 24.6878H16.5332C16.8 24.6878 17 24.4878 17.0667 24.1545V22.5545C19.0667 22.2211 20.4 20.8211 20.4 19.0211V19.0211Z" fill="white"/>
<path fill-rule="evenodd" clip-rule="evenodd" d="M6.66668 13.2211C4.73324 18.3545 7.39996 24.1545 12.6 26.0211C12.8 26.1545 13 26.4211 13 26.6211V27.5545C13 27.6878 13 27.7545 12.9332 27.8211C12.8667 28.0878 12.6 28.2211 12.3332 28.0878C8.59996 26.8878 5.73324 24.0211 4.53324 20.2878C2.53324 13.9545 5.99996 7.2211 12.3332 5.2211C12.4 5.15454 12.5332 5.15454 12.6 5.15454C12.8667 5.2211 13 5.4211 13 5.68782V6.6211C13 6.95454 12.8667 7.15454 12.6 7.28782C9.86668 8.28782 7.66668 10.4211 6.66668 13.2211ZM19.0667 5.48782C19.1332 5.2211 19.4 5.08782 19.6667 5.2211C23.3332 6.4211 26.2667 9.28782 27.4667 13.0878C29.4667 19.4211 26 26.1545 19.6667 28.1545C19.6 28.2211 19.4667 28.2211 19.4 28.2211C19.1332 28.1545 19 27.9545 19 27.6878V26.7545C19 26.4211 19.1332 26.2211 19.4 26.0878C22.1332 25.0878 24.3332 22.9545 25.3332 20.1545C27.2667 15.0211 24.6 9.2211 19.4 7.35454C19.2 7.2211 19 6.95454 19 6.68782V5.75454C19 5.6211 19 5.55454 19.0667 5.48782Z" fill="white"/>
<defs>
<linearGradient id="paint0_linear_542_4451" x1="0" y1="0.487793" x2="0" y2="32.4878" gradientUnits="userSpaceOnUse">
<stop stop-color="#67BFF4"/>
<stop offset="1" stop-color="#2775CA"/>
</linearGradient>
</defs>
</svg>
