<svg width="138" height="30" viewBox="0 0 138 30" fill="none" xmlns="http://www.w3.org/2000/svg">
<path d="M12 3C18.6267 3 24 8.37333 24 15C24 21.6267 18.6267 27 12 27C5.37333 27 0 21.63 0 15C0 8.37 5.37333 3 12 3Z" fill="url(#paint0_linear_191_6452)"/>
<path fill-rule="evenodd" clip-rule="evenodd" d="M13.6896 11.8754V13.662C17.0029 13.8154 19.4929 14.472 19.4963 15.2587C19.4963 16.0454 17.0063 16.702 13.6929 16.8554V22.572H10.7396V16.8554C7.42294 16.702 4.92627 16.0454 4.92627 15.2587C4.92627 14.472 7.42294 13.8154 10.7396 13.662V11.8754H6.65627V9.15536H17.7729V11.8754H13.6896ZM13.652 16.3739C13.6701 16.3731 13.6836 16.3724 13.6929 16.372C16.6163 16.2387 18.7996 15.7287 18.8063 15.1187C18.8063 14.5087 16.6229 13.9987 13.6963 13.8687V15.862C13.6096 15.872 13.1529 15.9087 12.2429 15.9087C11.4829 15.9087 10.9363 15.8754 10.7429 15.862V13.8754C7.8096 14.0054 5.62294 14.5154 5.62294 15.1254C5.62294 15.7354 7.81294 16.2454 10.7429 16.3754V16.372C10.9329 16.382 11.4663 16.402 12.2296 16.402C13.0766 16.402 13.5078 16.381 13.652 16.3739Z" fill="white"/>
<path d="M36.424 23.86C35.16 23.86 34.04 23.596 33.064 23.068C32.104 22.524 31.352 21.78 30.808 20.836C30.264 19.876 29.992 18.772 29.992 17.524H32.032C32.032 18.404 32.216 19.188 32.584 19.876C32.968 20.548 33.496 21.076 34.168 21.46C34.84 21.828 35.608 22.012 36.472 22.012C37.352 22.012 38.128 21.828 38.8 21.46C39.488 21.076 40.016 20.548 40.384 19.876C40.768 19.188 40.96 18.404 40.96 17.524H42.976C42.976 18.772 42.704 19.876 42.16 20.836C41.616 21.78 40.848 22.524 39.856 23.068C38.864 23.596 37.72 23.86 36.424 23.86ZM29.992 17.524V6.7H32.032V17.524H29.992ZM40.96 17.524V6.7H42.976V17.524H40.96ZM52.5768 23.788C51.6488 23.788 50.8248 23.692 50.1048 23.5C49.3848 23.292 48.7608 23.012 48.2328 22.66C47.7048 22.292 47.2728 21.892 46.9368 21.46C46.6008 21.012 46.3528 20.54 46.1928 20.044L48.1367 19.372C48.3767 20.076 48.8568 20.692 49.5768 21.22C50.3128 21.732 51.2088 21.988 52.2648 21.988C53.5608 21.988 54.5768 21.732 55.3128 21.22C56.0488 20.708 56.4168 20.028 56.4168 19.18C56.4168 18.396 56.0888 17.764 55.4328 17.284C54.7768 16.788 53.9128 16.404 52.8408 16.132L50.9928 15.652C50.2408 15.46 49.5448 15.18 48.9048 14.812C48.2808 14.428 47.7768 13.948 47.3928 13.372C47.0248 12.78 46.8408 12.076 46.8408 11.26C46.8408 9.74 47.3288 8.556 48.3048 7.708C49.2968 6.844 50.7208 6.412 52.5768 6.412C53.6808 6.412 54.6328 6.596 55.4328 6.964C56.2328 7.316 56.8808 7.772 57.3768 8.332C57.8888 8.876 58.2488 9.468 58.4568 10.108L56.5368 10.78C56.2328 9.98 55.7208 9.356 55.0008 8.908C54.2808 8.444 53.4088 8.212 52.3848 8.212C51.3128 8.212 50.4568 8.476 49.8168 9.004C49.1928 9.516 48.8808 10.22 48.8808 11.116C48.8808 11.884 49.1288 12.476 49.6248 12.892C50.1208 13.292 50.7688 13.588 51.5688 13.78L53.4168 14.236C55.0488 14.62 56.2968 15.26 57.1608 16.156C58.0408 17.036 58.4808 17.988 58.4808 19.012C58.4808 19.892 58.2568 20.7 57.8088 21.436C57.3608 22.156 56.6968 22.732 55.8168 23.164C54.9528 23.58 53.8728 23.788 52.5768 23.788ZM67.0549 23.5V21.628C67.9029 21.628 68.6869 21.468 69.4069 21.148C70.1269 20.812 70.7589 20.34 71.3029 19.732C71.8629 19.124 72.2949 18.428 72.5989 17.644C72.9189 16.844 73.0789 15.996 73.0789 15.1C73.0789 14.204 72.9189 13.364 72.5989 12.58C72.2949 11.78 71.8629 11.076 71.3029 10.468C70.7589 9.86 70.1269 9.396 69.4069 9.076C68.6869 8.74 67.9029 8.572 67.0549 8.572V6.7C68.6389 6.7 70.0309 7.06 71.2309 7.78C72.4469 8.484 73.3989 9.468 74.0869 10.732C74.7749 11.996 75.1189 13.452 75.1189 15.1C75.1189 16.732 74.7749 18.18 74.0869 19.444C73.3989 20.708 72.4469 21.7 71.2309 22.42C70.0309 23.14 68.6389 23.5 67.0549 23.5ZM63.5749 23.5V21.628H67.0549V23.5H63.5749ZM61.9429 23.5V6.7H63.9829V23.5H61.9429ZM63.5749 8.572V6.7H67.0549V8.572H63.5749ZM81.6394 23.5V8.092H83.6554V23.5H81.6394ZM76.2874 8.548V6.7H89.0074V8.548H76.2874Z" fill="white"/>
<defs>
<linearGradient id="paint0_linear_191_6452" x1="0" y1="3" x2="0" y2="27" gradientUnits="userSpaceOnUse">
<stop stop-color="#79F8DC"/>
<stop offset="1" stop-color="#26A17B"/>
</linearGradient>
</defs>
</svg>
