<svg width="32" height="33" viewBox="0 0 32 33" fill="none" xmlns="http://www.w3.org/2000/svg">
<path d="M16 0.487793C24.8356 0.487793 32 7.65224 32 16.4878C32 25.3233 24.8356 32.4878 16 32.4878C7.16444 32.4878 0 25.3278 0 16.4878C0 7.64779 7.16444 0.487793 16 0.487793Z" fill="url(#paint0_linear_542_6327)"/>
<path fill-rule="evenodd" clip-rule="evenodd" d="M18.2529 12.3217V14.704C22.6706 14.9084 25.9906 15.784 25.9951 16.8328C25.9951 17.8817 22.6751 18.7573 18.2573 18.9617V26.584H14.3195V18.9617C9.89731 18.7573 6.56842 17.8817 6.56842 16.8328C6.56842 15.784 9.89731 14.9084 14.3195 14.704V12.3217H8.87509V8.69507H23.6973V12.3217H18.2529ZM18.2027 18.3198C18.2268 18.3187 18.2449 18.3178 18.2573 18.3173C22.1551 18.1395 25.0662 17.4595 25.0751 16.6462C25.0751 15.8328 22.164 15.1528 18.2618 14.9795V17.6373C18.1462 17.6506 17.5373 17.6995 16.324 17.6995C15.3106 17.6995 14.5818 17.6551 14.324 17.6373V14.9884C10.4129 15.1617 7.49731 15.8417 7.49731 16.6551C7.49731 17.4684 10.4173 18.1484 14.324 18.3217V18.3173C14.5773 18.3306 15.2884 18.3573 16.3062 18.3573C17.4355 18.3573 18.0105 18.3292 18.2027 18.3198Z" fill="white"/>
<defs>
<linearGradient id="paint0_linear_542_6327" x1="0" y1="0.487793" x2="0" y2="32.4878" gradientUnits="userSpaceOnUse">
<stop stop-color="#79F8DC"/>
<stop offset="1" stop-color="#26A17B"/>
</linearGradient>
</defs>
</svg>
