<svg width="152" height="25" viewBox="0 0 152 25" fill="none" xmlns="http://www.w3.org/2000/svg">
<rect x="0.5" width="151" height="25" rx="8" fill="#636363"/>
<path d="M10.1506 7.81818L13.1733 16.3892H13.2926L16.3153 7.81818H17.608L13.8693 18H12.5966L8.85795 7.81818H10.1506ZM19.0348 18V10.3636H20.2081V18H19.0348ZM19.6314 9.09091C19.4027 9.09091 19.2055 9.01302 19.0398 8.85724C18.8774 8.70147 18.7962 8.5142 18.7962 8.29545C18.7962 8.0767 18.8774 7.88944 19.0398 7.73366C19.2055 7.57789 19.4027 7.5 19.6314 7.5C19.8601 7.5 20.0556 7.57789 20.218 7.73366C20.3838 7.88944 20.4666 8.0767 20.4666 8.29545C20.4666 8.5142 20.3838 8.70147 20.218 8.85724C20.0556 9.01302 19.8601 9.09091 19.6314 9.09091ZM25.5588 18.1591C24.823 18.1591 24.1883 17.9967 23.6547 17.6719C23.1243 17.3438 22.715 16.8864 22.4267 16.2997C22.1416 15.7098 21.9991 15.0237 21.9991 14.2415C21.9991 13.4593 22.1416 12.7699 22.4267 12.1733C22.715 11.5734 23.1161 11.1061 23.6298 10.7713C24.1468 10.4332 24.7501 10.2642 25.4395 10.2642C25.8372 10.2642 26.2299 10.3305 26.6177 10.4631C27.0055 10.5956 27.3585 10.8111 27.6767 11.1094C27.9949 11.4044 28.2484 11.7955 28.4373 12.2827C28.6262 12.7699 28.7207 13.3698 28.7207 14.0824V14.5795H22.8343V13.5653H27.5275C27.5275 13.1345 27.4413 12.75 27.269 12.4119C27.1 12.0739 26.858 11.8071 26.5431 11.6115C26.2316 11.416 25.8637 11.3182 25.4395 11.3182C24.9721 11.3182 24.5678 11.4342 24.2264 11.6662C23.8883 11.8949 23.6281 12.1932 23.4458 12.5611C23.2636 12.929 23.1724 13.3234 23.1724 13.7443V14.4205C23.1724 14.9972 23.2718 15.486 23.4707 15.8871C23.6729 16.2848 23.9529 16.5881 24.3109 16.7969C24.6689 17.0024 25.0848 17.1051 25.5588 17.1051C25.867 17.1051 26.1454 17.062 26.394 16.9759C26.6459 16.8864 26.863 16.7538 27.0453 16.5781C27.2276 16.3991 27.3684 16.1771 27.4679 15.9119L28.6014 16.2301C28.4821 16.6146 28.2815 16.9527 27.9998 17.2443C27.7181 17.5327 27.3701 17.758 26.9558 17.9205C26.5415 18.0795 26.0758 18.1591 25.5588 18.1591ZM32.2356 18L29.9089 10.3636H31.1419L32.7924 16.2102H32.872L34.5027 10.3636H35.7555L37.3663 16.1903H37.4458L39.0964 10.3636H40.3294L38.0027 18H36.8493L35.1788 12.1335H35.0595L33.389 18H32.2356ZM49.139 10.3636V11.358H45.1816V10.3636H49.139ZM46.335 8.53409H47.5083V15.8125C47.5083 16.1439 47.5564 16.3925 47.6525 16.5582C47.752 16.7206 47.8779 16.83 48.0304 16.8864C48.1861 16.9394 48.3502 16.9659 48.5225 16.9659C48.6518 16.9659 48.7579 16.9593 48.8407 16.946C48.9236 16.9295 48.9899 16.9162 49.0396 16.9062L49.2782 17.9602C49.1987 17.9901 49.0877 18.0199 48.9451 18.0497C48.8026 18.0829 48.622 18.0994 48.4032 18.0994C48.0718 18.0994 47.747 18.0282 47.4288 17.8857C47.1139 17.7431 46.8521 17.526 46.6433 17.2344C46.4378 16.9427 46.335 16.5748 46.335 16.1307V8.53409ZM50.9039 18V10.3636H52.0375V11.517H52.117C52.2562 11.1392 52.5081 10.8326 52.8727 10.5973C53.2373 10.362 53.6483 10.2443 54.1056 10.2443C54.1918 10.2443 54.2995 10.246 54.4288 10.2493C54.5581 10.2526 54.6558 10.2576 54.7221 10.2642V11.4574C54.6824 11.4474 54.5912 11.4325 54.4487 11.4126C54.3095 11.3894 54.162 11.3778 54.0062 11.3778C53.635 11.3778 53.3036 11.4557 53.0119 11.6115C52.7235 11.764 52.4949 11.9761 52.3258 12.2479C52.1601 12.5163 52.0772 12.8229 52.0772 13.1676V18H50.9039ZM58.3601 18.179C57.8762 18.179 57.437 18.0878 57.0426 17.9055C56.6482 17.7199 56.335 17.4531 56.103 17.1051C55.871 16.7538 55.755 16.3295 55.755 15.8324C55.755 15.3949 55.8411 15.0402 56.0135 14.7685C56.1858 14.4934 56.4162 14.2779 56.7045 14.1222C56.9929 13.9664 57.3111 13.8504 57.6591 13.7741C58.0104 13.6946 58.3634 13.6316 58.718 13.5852C59.1821 13.5256 59.5582 13.4808 59.8466 13.451C60.1383 13.4179 60.3504 13.3632 60.483 13.2869C60.6188 13.2107 60.6868 13.0781 60.6868 12.8892V12.8494C60.6868 12.3589 60.5526 11.9777 60.2841 11.706C60.0189 11.4342 59.6162 11.2983 59.076 11.2983C58.5159 11.2983 58.0767 11.4209 57.7585 11.6662C57.4403 11.9115 57.2166 12.1733 57.0874 12.4517L55.9737 12.054C56.1726 11.59 56.4377 11.2287 56.7692 10.9702C57.1039 10.7083 57.4685 10.526 57.8629 10.4233C58.2607 10.3172 58.6518 10.2642 59.0362 10.2642C59.2815 10.2642 59.5632 10.294 59.8814 10.3537C60.2029 10.41 60.5128 10.5277 60.8111 10.7067C61.1127 10.8857 61.3629 11.1558 61.5618 11.517C61.7607 11.8783 61.8601 12.3622 61.8601 12.9688V18H60.6868V16.9659H60.6271C60.5476 17.1316 60.415 17.3089 60.2294 17.4979C60.0438 17.6868 59.7969 17.8475 59.4886 17.9801C59.1804 18.1127 58.8042 18.179 58.3601 18.179ZM58.5391 17.125C59.0031 17.125 59.3942 17.0339 59.7124 16.8516C60.0339 16.6693 60.2758 16.4339 60.4382 16.1456C60.6039 15.8572 60.6868 15.554 60.6868 15.2358V14.1619C60.6371 14.2216 60.5277 14.2763 60.3587 14.326C60.1929 14.3724 60.0007 14.4138 59.782 14.4503C59.5665 14.4834 59.3561 14.5133 59.1506 14.5398C58.9484 14.563 58.7843 14.5829 58.6584 14.5994C58.3535 14.6392 58.0684 14.7038 57.8033 14.7933C57.5414 14.8795 57.3293 15.0104 57.1669 15.1861C57.0078 15.3584 56.9283 15.5937 56.9283 15.892C56.9283 16.2997 57.0791 16.608 57.3807 16.8168C57.6856 17.0223 58.0717 17.125 58.5391 17.125ZM65.1749 13.4062V18H64.0016V10.3636H65.1351V11.5568H65.2346C65.4135 11.169 65.6853 10.8575 66.0499 10.6222C66.4145 10.3835 66.8851 10.2642 67.4618 10.2642C67.9789 10.2642 68.4313 10.3703 68.8191 10.5824C69.2069 10.7912 69.5085 11.1094 69.7239 11.5369C69.9393 11.9612 70.0471 12.4981 70.0471 13.1477V18H68.8738V13.2273C68.8738 12.6274 68.718 12.16 68.4064 11.8253C68.0949 11.4872 67.6673 11.3182 67.1238 11.3182C66.7492 11.3182 66.4145 11.3994 66.1195 11.5618C65.8278 11.7242 65.5975 11.9612 65.4284 12.2727C65.2594 12.5843 65.1749 12.9621 65.1749 13.4062ZM77.6001 12.0739L76.5462 12.3722C76.4799 12.1965 76.3821 12.0258 76.2528 11.8601C76.1269 11.6911 75.9545 11.5518 75.7358 11.4425C75.517 11.3331 75.237 11.2784 74.8956 11.2784C74.4283 11.2784 74.0388 11.3861 73.7273 11.6016C73.419 11.8137 73.2649 12.0838 73.2649 12.4119C73.2649 12.7036 73.371 12.9339 73.5831 13.103C73.7952 13.272 74.1267 13.4129 74.5774 13.5256L75.7109 13.804C76.3937 13.9697 76.9025 14.2232 77.2372 14.5646C77.572 14.9027 77.7393 15.3385 77.7393 15.8722C77.7393 16.3097 77.6134 16.7008 77.3615 17.0455C77.1129 17.3902 76.7649 17.6619 76.3175 17.8608C75.87 18.0597 75.3497 18.1591 74.7564 18.1591C73.9775 18.1591 73.3329 17.9901 72.8224 17.652C72.312 17.3139 71.9889 16.8201 71.853 16.1705L72.9666 15.892C73.0727 16.303 73.2732 16.6113 73.5682 16.8168C73.8665 17.0223 74.2559 17.125 74.7365 17.125C75.2834 17.125 75.7176 17.009 76.0391 16.777C76.3639 16.5417 76.5263 16.2599 76.5263 15.9318C76.5263 15.6667 76.4335 15.4446 76.2479 15.2656C76.0623 15.0833 75.7772 14.9474 75.3928 14.858L74.12 14.5597C73.4207 14.3939 72.907 14.1371 72.5788 13.7891C72.254 13.4377 72.0916 12.9986 72.0916 12.4716C72.0916 12.0407 72.2126 11.6596 72.4545 11.3281C72.6998 10.9967 73.0329 10.7365 73.4538 10.5476C73.8781 10.3587 74.3587 10.2642 74.8956 10.2642C75.6513 10.2642 76.2446 10.4299 76.6754 10.7614C77.1096 11.0928 77.4179 11.5303 77.6001 12.0739ZM81.7527 18.179C81.2688 18.179 80.8296 18.0878 80.4352 17.9055C80.0408 17.7199 79.7276 17.4531 79.4956 17.1051C79.2636 16.7538 79.1475 16.3295 79.1475 15.8324C79.1475 15.3949 79.2337 15.0402 79.4061 14.7685C79.5784 14.4934 79.8088 14.2779 80.0971 14.1222C80.3855 13.9664 80.7037 13.8504 81.0517 13.7741C81.403 13.6946 81.756 13.6316 82.1106 13.5852C82.5746 13.5256 82.9508 13.4808 83.2392 13.451C83.5308 13.4179 83.743 13.3632 83.8755 13.2869C84.0114 13.2107 84.0794 13.0781 84.0794 12.8892V12.8494C84.0794 12.3589 83.9451 11.9777 83.6767 11.706C83.4115 11.4342 83.0088 11.2983 82.4686 11.2983C81.9084 11.2983 81.4693 11.4209 81.1511 11.6662C80.8329 11.9115 80.6092 12.1733 80.4799 12.4517L79.3663 12.054C79.5652 11.59 79.8303 11.2287 80.1618 10.9702C80.4965 10.7083 80.8611 10.526 81.2555 10.4233C81.6532 10.3172 82.0443 10.2642 82.4288 10.2642C82.6741 10.2642 82.9558 10.294 83.274 10.3537C83.5955 10.41 83.9054 10.5277 84.2037 10.7067C84.5053 10.8857 84.7555 11.1558 84.9544 11.517C85.1532 11.8783 85.2527 12.3622 85.2527 12.9688V18H84.0794V16.9659H84.0197C83.9402 17.1316 83.8076 17.3089 83.622 17.4979C83.4364 17.6868 83.1895 17.8475 82.8812 17.9801C82.573 18.1127 82.1968 18.179 81.7527 18.179ZM81.9316 17.125C82.3957 17.125 82.7868 17.0339 83.1049 16.8516C83.4264 16.6693 83.6684 16.4339 83.8308 16.1456C83.9965 15.8572 84.0794 15.554 84.0794 15.2358V14.1619C84.0297 14.2216 83.9203 14.2763 83.7512 14.326C83.5855 14.3724 83.3933 14.4138 83.1745 14.4503C82.9591 14.4834 82.7486 14.5133 82.5431 14.5398C82.341 14.563 82.1769 14.5829 82.051 14.5994C81.746 14.6392 81.461 14.7038 81.1958 14.7933C80.934 14.8795 80.7219 15.0104 80.5595 15.1861C80.4004 15.3584 80.3208 15.5937 80.3208 15.892C80.3208 16.2997 80.4717 16.608 80.7733 16.8168C81.0782 17.0223 81.4643 17.125 81.9316 17.125ZM90.4964 18.1591C89.7805 18.1591 89.1641 17.9901 88.647 17.652C88.13 17.3139 87.7322 16.8482 87.4538 16.255C87.1754 15.6617 87.0362 14.9839 87.0362 14.2216C87.0362 13.446 87.1787 12.7616 87.4638 12.1683C87.7521 11.5717 88.1532 11.1061 88.6669 10.7713C89.1839 10.4332 89.7872 10.2642 90.4766 10.2642C91.0135 10.2642 91.4974 10.3636 91.9283 10.5625C92.3591 10.7614 92.7121 11.0398 92.9872 11.3977C93.2623 11.7557 93.433 12.1733 93.4993 12.6506H92.326C92.2365 12.3026 92.0376 11.9943 91.7294 11.7259C91.4245 11.4541 91.0135 11.3182 90.4964 11.3182C90.0391 11.3182 89.638 11.4375 89.2933 11.6761C88.9519 11.9115 88.6851 12.2446 88.4929 12.6754C88.304 13.103 88.2095 13.6051 88.2095 14.1818C88.2095 14.7718 88.3023 15.2855 88.4879 15.723C88.6768 16.1605 88.942 16.5002 89.2834 16.7422C89.6281 16.9841 90.0324 17.1051 90.4964 17.1051C90.8014 17.1051 91.0781 17.0521 91.3267 16.946C91.5753 16.84 91.7857 16.6875 91.9581 16.4886C92.1304 16.2898 92.2531 16.0511 92.326 15.7727H93.4993C93.433 16.2235 93.2689 16.6295 93.0071 16.9908C92.7486 17.3487 92.4055 17.6338 91.978 17.8459C91.5537 18.0547 91.0599 18.1591 90.4964 18.1591ZM98.5355 10.3636V11.358H94.5781V10.3636H98.5355ZM95.7315 8.53409H96.9048V15.8125C96.9048 16.1439 96.9529 16.3925 97.049 16.5582C97.1484 16.7206 97.2744 16.83 97.4268 16.8864C97.5826 16.9394 97.7467 16.9659 97.919 16.9659C98.0483 16.9659 98.1544 16.9593 98.2372 16.946C98.3201 16.9295 98.3864 16.9162 98.4361 16.9062L98.6747 17.9602C98.5952 17.9901 98.4841 18.0199 98.3416 18.0497C98.1991 18.0829 98.0185 18.0994 97.7997 18.0994C97.4683 18.0994 97.1435 18.0282 96.8253 17.8857C96.5104 17.7431 96.2486 17.526 96.0398 17.2344C95.8343 16.9427 95.7315 16.5748 95.7315 16.1307V8.53409ZM100.3 18V10.3636H101.474V18H100.3ZM100.897 9.09091C100.668 9.09091 100.471 9.01302 100.305 8.85724C100.143 8.70147 100.062 8.5142 100.062 8.29545C100.062 8.0767 100.143 7.88944 100.305 7.73366C100.471 7.57789 100.668 7.5 100.897 7.5C101.126 7.5 101.321 7.57789 101.484 7.73366C101.649 7.88944 101.732 8.0767 101.732 8.29545C101.732 8.5142 101.649 8.70147 101.484 8.85724C101.321 9.01302 101.126 9.09091 100.897 9.09091ZM106.725 18.1591C106.036 18.1591 105.431 17.995 104.91 17.6669C104.393 17.3388 103.989 16.8797 103.697 16.2898C103.409 15.6998 103.265 15.0104 103.265 14.2216C103.265 13.4261 103.409 12.7318 103.697 12.1385C103.989 11.5452 104.393 11.0845 104.91 10.7564C105.431 10.4283 106.036 10.2642 106.725 10.2642C107.414 10.2642 108.018 10.4283 108.535 10.7564C109.055 11.0845 109.459 11.5452 109.748 12.1385C110.039 12.7318 110.185 13.4261 110.185 14.2216C110.185 15.0104 110.039 15.6998 109.748 16.2898C109.459 16.8797 109.055 17.3388 108.535 17.6669C108.018 17.995 107.414 18.1591 106.725 18.1591ZM106.725 17.1051C107.249 17.1051 107.68 16.9709 108.018 16.7024C108.356 16.4339 108.606 16.081 108.768 15.6435C108.931 15.206 109.012 14.732 109.012 14.2216C109.012 13.7112 108.931 13.2356 108.768 12.7947C108.606 12.3539 108.356 11.9976 108.018 11.7259C107.68 11.4541 107.249 11.3182 106.725 11.3182C106.201 11.3182 105.77 11.4541 105.432 11.7259C105.094 11.9976 104.844 12.3539 104.682 12.7947C104.519 13.2356 104.438 13.7112 104.438 14.2216C104.438 14.732 104.519 15.206 104.682 15.6435C104.844 16.081 105.094 16.4339 105.432 16.7024C105.77 16.9709 106.201 17.1051 106.725 17.1051ZM113.15 13.4062V18H111.976V10.3636H113.11V11.5568H113.209C113.388 11.169 113.66 10.8575 114.025 10.6222C114.389 10.3835 114.86 10.2642 115.436 10.2642C115.953 10.2642 116.406 10.3703 116.794 10.5824C117.181 10.7912 117.483 11.1094 117.699 11.5369C117.914 11.9612 118.022 12.4981 118.022 13.1477V18H116.848V13.2273C116.848 12.6274 116.693 12.16 116.381 11.8253C116.069 11.4872 115.642 11.3182 115.098 11.3182C114.724 11.3182 114.389 11.3994 114.094 11.5618C113.802 11.7242 113.572 11.9612 113.403 12.2727C113.234 12.5843 113.15 12.9621 113.15 13.4062Z" fill="white"/>
<rect opacity="0.01" x="127.5" y="4.5" width="16" height="16" fill="white"/>
<path d="M135.884 12.5L139.834 8.47745V9.70625V11.1219L140.973 11.1031V6.95C140.973 6.68281 140.799 6.5 140.523 6.5L136.365 6.50938L136.351 7.69404H137.678H138.933L134.999 11.6191L135.884 12.5Z" fill="white"/>
<path d="M133.116 7.1H130.5C129.948 7.1 129.5 7.54771 129.5 8.1V16.954C129.5 17.5063 129.948 17.954 130.5 17.954H139.497C140.05 17.954 140.497 17.5063 140.497 16.954V14.26V14.26" stroke="white" stroke-width="1.2" stroke-linecap="square" stroke-linejoin="round"/>
</svg>
