<svg width="32" height="32" viewBox="0 0 32 32" fill="none" xmlns="http://www.w3.org/2000/svg">
<g id="warning_icon">
<path id="warning" d="M7.12595 27.7557C5.17939 27.7557 4 26.4046 4 24.6527C4 24.1145 4.1374 23.5649 4.44656 23.0496L13.3321 7.5687C13.916 6.52672 14.9466 6 16 6C17.0534 6 18.0725 6.52672 18.6679 7.5687L27.5534 23.0496C27.8397 23.5534 28 24.1145 28 24.6527C28 26.4046 26.8206 27.7557 24.874 27.7557H7.12595ZM16.0115 20.1069C16.5725 20.1069 16.9046 19.7748 16.916 19.1565L17.0878 12.9389C17.0992 12.3321 16.6183 11.8855 16 11.8855C15.3588 11.8855 14.9122 12.3206 14.9237 12.9275L15.0725 19.1565C15.084 19.7634 15.416 20.1069 16.0115 20.1069ZM16.0115 23.9427C16.687 23.9427 17.2824 23.4046 17.2824 22.7176C17.2824 22.0191 16.6985 21.4809 16.0115 21.4809C15.313 21.4809 14.729 22.0305 14.729 22.7176C14.729 23.3931 15.3244 23.9427 16.0115 23.9427Z" fill="white"/>
</g>
</svg>
