<svg width="34" height="34" viewBox="0 0 34 34" fill="none" xmlns="http://www.w3.org/2000/svg">
<circle cx="17" cy="17.4878" r="16" fill="white" stroke="#BDBDBD"/>
<path fill-rule="evenodd" clip-rule="evenodd" d="M23.1885 14.0879C22.9877 11.9998 21.1853 11.2998 18.9096 11.1005L18.9095 8.20416L17.1466 8.20434L17.1467 11.0243C16.6832 11.0244 16.2095 11.0335 15.7388 11.0429L15.7391 8.20428L13.9771 8.20423L13.9764 11.0997C13.5947 11.1075 13.2199 11.1146 12.8544 11.1148L12.8542 11.1058L10.4226 11.105L10.4231 12.9879C10.4231 12.9879 11.725 12.9631 11.7033 12.9871C12.4174 12.9873 12.6498 13.4018 12.7174 13.7596L12.7176 17.0591C12.7669 17.0593 12.8311 17.0614 12.9039 17.0714L12.8442 17.0713L12.8438 17.0713C12.803 17.0713 12.7607 17.0712 12.7177 17.0716L12.7172 21.6939C12.6859 21.9186 12.5538 22.2769 12.0549 22.2778C12.0775 22.2978 10.7734 22.2775 10.7734 22.2775L10.4231 24.3829L12.7173 24.3828C12.9736 24.3831 13.2274 24.3858 13.4786 24.3885C13.6458 24.3903 13.8119 24.3921 13.9767 24.3932L13.9775 27.3224L15.7386 27.3227L15.7385 24.4244C16.222 24.4344 16.69 24.4382 17.1468 24.4378L17.1461 27.3228L18.909 27.3226L18.9096 24.3985C21.8734 24.2285 23.9479 23.4818 24.2055 20.6985C24.4135 18.4573 23.3592 17.4573 21.6767 17.0533C22.6989 16.5328 23.3379 15.6158 23.1885 14.0879ZM20.722 20.3513C20.7229 22.3597 17.568 22.3159 16.1244 22.2959L16.1244 22.2959C15.9945 22.2941 15.8785 22.2925 15.7799 22.2926L15.7804 18.4114C15.9005 18.4115 16.0464 18.408 16.2116 18.4041L16.2117 18.4041C17.6908 18.3692 20.7221 18.2976 20.722 20.3513ZM16.0703 16.6383C17.2746 16.6581 19.9015 16.7013 19.9021 14.8756C19.9019 13.0084 17.3759 13.0753 16.1422 13.108C16.0034 13.1117 15.881 13.1149 15.7804 13.1149L15.7803 16.6349C15.8632 16.6349 15.9609 16.6365 16.0703 16.6383Z" fill="url(#paint0_linear_542_2442)"/>
<defs>
<linearGradient id="paint0_linear_542_2442" x1="6.83337" y1="9.98535" x2="11.6098" y2="29.1425" gradientUnits="userSpaceOnUse">
<stop stop-color="#FCC538"/>
<stop offset="1" stop-color="#F7931A"/>
</linearGradient>
</defs>
</svg>
