<svg width="32" height="33" viewBox="0 0 32 33" fill="none" xmlns="http://www.w3.org/2000/svg">
<g clip-path="url(#clip0_542_6258)">
<path d="M16 32.4878C24.8366 32.4878 32 25.3243 32 16.4878C32 7.65124 24.8366 0.487793 16 0.487793C7.16344 0.487793 0 7.65124 0 16.4878C0 25.3243 7.16344 32.4878 16 32.4878Z" fill="#3D8130"/>
<path d="M22.0938 21.7003L22.0875 21.6941L22.0938 21.7003Z" fill="#3D8130"/>
<path d="M9.5062 13.1753L8.78745 14.5753L8.0437 16.0441L7.5187 17.4191L7.1687 18.8816L6.94995 20.4816L6.8187 21.8628L6.6687 22.7691L6.8187 23.4753L7.07495 24.0816L7.54995 24.9191L8.64995 25.6066L9.46245 25.9253C9.66245 25.9878 9.87495 26.0503 10.0562 26.1066L11.0187 26.2816L12.3937 26.3441H13.5312C13.6625 26.3441 14.8125 26.2816 14.8187 26.2753L16.2812 26.3003L17.6937 26.1253L18.3062 25.8691L18.725 25.3691L18.7437 24.7066C18.7187 24.6503 18.6375 24.4378 18.6125 24.3566C18.5937 24.3003 18.3125 23.9691 18.0562 23.6816L18.05 23.6753C17.9375 23.5128 17.7562 23.2316 17.7562 23.1378C17.7562 23.0441 17.8687 22.7691 17.8937 22.7191L17.9062 22.6941L18.4937 22.5253L18.8812 22.8066L19.2312 22.6128L19.625 22.2191L20.3125 21.7128L20.9375 21.3566L21.4312 21.2628L22.0812 21.7066L22.0375 21.6566L22.3062 21.4191L22.5562 21.0066V20.5753L22.5062 20.4503L22.1875 20.7066L21.6187 20.8691H21.6062L20.7312 20.8503L19.4625 20.9816L19.0625 21.0253L18.7562 20.9816L17.9375 20.8691L17.0125 20.6941L15.5187 20.4503H15.5125L14.0812 19.8566L12.825 19.1316L12.0562 18.6128L11.9812 18.2441L12.0812 17.9003L12.3875 17.6753L13.1 17.8378L14.6562 18.3191C15.4187 18.4753 16.5812 18.7066 16.6562 18.7128C16.6937 18.7128 16.8437 18.7378 17.2187 18.8003C17.6187 18.8628 18.1687 18.9566 18.2812 18.9566C18.475 18.9566 19.9687 19.0378 20.0562 19.0441C20.1375 19.0441 21.35 19.0191 21.4812 19.0191C21.5687 19.0191 22.0375 18.8628 22.3187 18.7628L22.7437 18.2566L23.15 17.5503C23.175 17.3441 23.15 17.1378 23.075 16.9441C22.975 16.6816 22.7875 16.4566 22.55 16.3066C22.425 16.5441 22.2625 16.6941 22.075 16.7628C22.0062 16.7878 21.925 16.8003 21.85 16.8003C21.7375 16.8003 21.625 16.7753 21.5312 16.7253L21.5937 16.6128C21.7312 16.6816 21.8875 16.6941 22.0375 16.6441C22.2062 16.5816 22.35 16.4316 22.4625 16.2003C22.325 16.2503 22.175 16.2816 22.025 16.2816C21.9312 16.2816 21.8375 16.2753 21.7437 16.2503L21.7562 16.1878L21.7687 16.1253C21.775 16.1253 22.2562 16.2441 22.6187 15.9628C22.875 15.7691 23.0187 15.4191 23.0437 14.9378L22.625 15.4316L22.1187 15.6628C21.8937 15.7191 21.1437 15.9066 21.075 15.9066C21.05 15.9066 20.95 15.8941 20.7062 15.8503C20.4 15.8003 19.9437 15.7316 19.825 15.7316C19.6125 15.7316 19.3125 15.5003 19.2812 15.4753L19.2437 15.4503L19.4812 14.7566L20.1375 14.0128L20.8312 13.5191H21.6937L22.5062 13.6066L22.8562 14.0066L23.025 14.2566V13.5816L22.35 13.3378C22.275 13.3253 21.6062 13.2316 21.4437 13.2316C21.2875 13.2316 20.6875 13.3253 20.5875 13.3378L19.7187 13.9003L19.65 13.7941L20.5375 13.2191H20.55C20.5812 13.2128 21.2562 13.1066 21.4375 13.1066C21.6125 13.1066 22.3375 13.2128 22.3687 13.2191L22.3812 13.2253L23.1124 13.4941L23.1812 13.5316L23.1875 13.4816L22.8437 13.1816L22.225 12.8816L21.475 12.8191L20.6125 12.9691L20.2687 13.1191L20.2187 13.0003L20.5812 12.8441L21.4687 12.6878L22.2562 12.7566L22.2875 12.7753L22.05 12.4066L21.3812 11.8191L21.3875 11.8128L18.7875 11.8878C18.7875 11.8878 18.45 11.9316 18.0625 11.9816L18.4312 12.5128L18.6187 12.8441L18.525 13.1753L18.4 13.1378L18.4812 12.8566L18.3187 12.5753L17.925 12.0066L17.95 11.9878C17.4625 12.0503 16.9437 12.1128 16.9125 12.1128C16.8562 12.1128 14.7687 12.2691 14.6812 12.2691C14.5062 12.2566 14.3312 12.2378 14.1625 12.2003C14.1312 12.1816 12.7375 11.6753 12.6875 11.6441C12.6375 11.6128 12.15 11.1441 12.15 11.1441L11.2 10.8503L10.3687 11.8753L9.5062 13.1753ZM19.65 16.0441C19.775 16.1003 19.8875 16.1691 20.0062 16.2378L20.7187 16.3191L21.125 16.2316L21.15 16.3566L20.725 16.4441L20.2312 16.3878C20.4437 16.5441 20.6375 16.7191 20.8125 16.9191C20.9375 17.0628 21.05 17.2191 21.1437 17.3816L21.0312 17.4441C20.9187 17.2566 20.7875 17.0753 20.6312 16.9191C20.425 16.7066 20.1937 16.5128 19.9437 16.3566L19.5812 16.1503L19.65 16.0441ZM12.5062 13.7066L13.075 13.1628L13.5687 12.7566L14.275 12.6191L15.0187 12.5941H15.8125L16.4687 12.6191L17.8 12.6441L18.2187 12.9003L18.7312 13.3691L19.025 13.7316L19.1625 14.4691L19.0375 14.4941L18.9062 13.7878L18.6375 13.4503L18.1437 13.0003L17.7687 12.7691L16.725 12.7503L17.1812 13.0003C17.425 13.1253 17.8437 13.3503 17.8875 13.4441C17.9187 13.4941 18.25 13.8191 18.5562 14.1066L18.5625 14.1128L19.0312 14.7191L19.1 15.2191L18.975 15.2378L18.9125 14.7753L18.4687 14.2003C18.3125 14.0566 17.825 13.5941 17.7812 13.5066C17.7437 13.4566 17.4187 13.2691 17.1312 13.1191L16.4625 12.7503L15.8187 12.7316H15.0312L14.2937 12.7503L13.6375 12.8753L13.1687 13.2566L12.6375 13.7691L12.5812 14.1066L12.6937 14.2066L12.975 14.0566L13.4375 13.4816L14.275 13.1628L15.3625 13.0503L16.2812 13.1378L17.475 13.7566L17.9687 14.0503L18.4437 14.6816L18.6625 15.3691L18.9812 15.5753V15.8566L18.6875 16.1253L18.1625 16.3441L17.9375 16.5316L17.7 16.9191L17.5812 17.1128L17.5687 17.1191C17.4125 17.2003 17.1375 17.3441 17.0625 17.3441C17.0062 17.3566 16.6562 17.5128 16.3437 17.6691L16.3125 17.6753C16.2875 17.6816 15.7375 17.8503 15.6 17.8753L15.5812 17.7503C15.7 17.7316 16.2187 17.5753 16.2687 17.5566C16.5812 17.4066 16.9687 17.2253 17.0375 17.2253C17.1875 17.1691 17.3312 17.1003 17.475 17.0191L17.5312 16.9253L17.8187 16.4566L17.8875 16.4003C17.6875 16.3816 17.425 16.3503 17.3562 16.3128C17.325 16.3003 17.1375 16.2753 16.1562 16.2753C15.9125 16.2753 15.3375 16.1441 15.2562 16.1191C15.1937 16.1003 14.6062 15.9253 14.6 15.9253L14.5875 15.9191L14.575 15.9066C14.5687 15.9003 14.025 15.3816 13.625 15.1503L13.6875 15.0378C14.075 15.2628 14.5687 15.7253 14.6562 15.8066C14.75 15.8316 15.2375 15.9816 15.3 16.0003C15.3687 16.0253 15.9312 16.1503 16.1562 16.1503C17.3375 16.1503 17.3875 16.1816 17.4187 16.2066C17.4625 16.2316 17.7437 16.2628 17.9812 16.2816L17.975 16.3253L18.0687 16.2441L18.5937 16.0253L18.825 15.8128V15.6566L18.6625 15.5503L18.6687 15.5691L18.125 15.7691L17.375 15.8566C17.3375 15.8566 17.175 15.8628 16.9937 15.8628C16.7812 15.8628 16.55 15.8566 16.4812 15.8316C16.3812 15.8003 15.75 15.6628 15.4375 15.5941H15.4312L15.425 15.5878C15.0312 15.3753 14.5437 15.1066 14.5062 15.0378C14.475 15.0003 14.2312 14.8753 14.025 14.7753H14.0187L13.325 14.3691L13.2312 14.3878L13.2187 14.3066L13 14.1816L12.6625 14.3628L12.425 14.1566L12.5062 13.7066ZM12.7937 16.7003L12.825 16.8253L12.4 16.9253L12.1875 16.9753L12.175 16.9253L12.1562 16.8503L12.7937 16.7003ZM13.0625 17.2941L13.0312 17.4191C12.8875 17.3878 12.7375 17.3941 12.5937 17.4191C12.3562 17.4628 12.0062 17.6003 11.6687 17.9878L11.575 17.9066C12.2687 17.0941 13.0312 17.2816 13.0625 17.2941Z" fill="#3D8130"/>
<path d="M13.9187 14.1316C13.9562 14.1254 14.8437 14.0191 14.9562 14.0191C15 14.0191 15.125 14.0316 15.2875 14.0441C15.5062 14.0629 15.875 14.0941 15.9312 14.0879C16.0187 14.0629 16.8937 13.9879 16.9937 13.9754L17.5125 13.9379L17.4062 13.8754L16.2375 13.2691L15.3562 13.1816L14.2937 13.2879L13.5062 13.5879L13.1062 14.0879L13.3625 14.2379L13.9187 14.1316Z" fill="#3D8130"/>
<path d="M17 14.1066C16.6125 14.1441 16.0188 14.2003 15.9563 14.2128C15.9 14.2253 15.7 14.2128 15.275 14.1753C15.1313 14.1628 14.9938 14.1503 14.9563 14.1503C14.8688 14.1503 14.1938 14.2316 13.9375 14.2566L13.525 14.3316L14.0875 14.6628C14.2625 14.7441 14.5625 14.8941 14.6125 14.9691C14.6625 15.0191 15.0875 15.2628 15.4813 15.4753C15.5813 15.4941 16.4063 15.6753 16.5313 15.7191C16.6188 15.7503 17.1 15.7441 17.3813 15.7378L18.1188 15.6503L18.5625 15.4816L18.5375 15.4691L18.3125 14.7566L17.8688 14.1628L17.6063 14.0066L17.6125 14.0691L17 14.1066Z" fill="#3D8130"/>
<path d="M22.775 14.0566L22.4625 13.7066L21.7 13.6191H20.8875L20.2313 14.0879L19.6063 14.7941L19.4062 15.3754C19.5063 15.4504 19.7062 15.5754 19.8375 15.5754C19.9687 15.5754 20.3937 15.6441 20.7375 15.7004C20.9 15.7254 21.0625 15.7504 21.0875 15.7504C21.1437 15.7441 21.7312 15.6004 22.0938 15.5129L22.5562 15.3004L22.925 14.8754L22.8937 14.6754L21.7563 14.2129L20.3 14.1691L20.3062 14.0441L21.7875 14.0879L23.0125 14.5879L23.0625 14.9066C23.0625 14.8879 23.0625 14.8691 23.0625 14.8504V14.5004L22.775 14.0566Z" fill="#3D8130"/>
<path d="M21.4125 21.3877L20.9875 21.4689L20.3875 21.8127L19.7125 22.3127L19.525 22.5002L19.95 22.8002L19.9813 23.0377L19.6938 23.3252L19.6063 23.2377L19.85 22.9939L19.8375 22.8752L19.4375 22.5939L19.3188 22.7127L19.0688 22.8502L19 23.1877L19.35 23.4939L19.8563 23.4752C19.95 23.4064 20.1062 23.3064 20.1812 23.3002C20.2562 23.2564 20.3312 23.2064 20.4 23.1502C20.5687 23.0189 20.6375 22.9752 20.6875 22.9752C20.8375 22.9002 20.9812 22.8189 21.1187 22.7252L21.1375 22.7127L21.75 22.7814L21.9625 22.9939L21.9188 23.0377C21.7875 23.1814 21.6375 23.3689 21.6313 23.4127C21.6313 23.4439 21.625 23.4752 21.6125 23.5002L21.7563 23.4189L22.4312 22.9377L22.5063 23.0439L21.8188 23.5314L21.5 23.7064C21.4875 23.7252 21.475 23.7439 21.4688 23.7502L21.4438 23.7314L20.9562 24.0002L20.6187 24.4877L20.5 24.7752L20.7437 25.1189L21.0125 25.4252L21.3312 25.4627L21.625 25.4002L21.6187 25.3377L21.9438 24.8252L22.5562 24.2314L22.6437 24.3252L22.0375 24.9127L21.7437 25.3689L21.7625 25.7127L22.075 25.9252L22.4875 25.9689L22.7188 25.9002L22.675 25.8314L22.7062 25.7939C22.7187 25.7752 23.0562 25.3939 23.125 25.3314C23.175 25.2814 23.4625 24.9502 23.6063 24.7877L23.7 24.8689C23.6813 24.8877 23.2812 25.3564 23.2125 25.4189C23.1625 25.4689 22.9187 25.7377 22.8312 25.8377L23.05 26.1627H23.4188L23.7375 26.0189L24 25.6314L24.35 25.2564L24.4438 25.3439L24.0938 25.7127L23.825 26.1189L23.4438 26.2877H22.9813L22.7875 26.0002L22.4937 26.0877L22.025 26.0439L21.6375 25.7752L21.625 25.5252L21.3312 25.5877L20.9438 25.5377L20.65 25.2002L20.2125 24.9377L19.7563 24.4314L19.6437 23.6439L19.7687 23.6252L19.8625 24.3002L20.4062 23.8689L20.9937 23.3064L21.3312 22.8439L21.1688 22.8252C20.9875 22.9439 20.775 23.0752 20.7 23.0877C20.625 23.1314 20.55 23.1814 20.4813 23.2377C20.3063 23.3689 20.2375 23.4127 20.1938 23.4127C20.1 23.4564 20.0062 23.5127 19.925 23.5752L19.9062 23.5877L19.3125 23.6127L18.8687 23.2189L18.9312 22.9189L18.8875 22.9439L18.4875 22.6564L18.0187 22.7939C17.9687 22.9064 17.9313 23.0189 17.9062 23.1377C17.9125 23.1877 18.05 23.4189 18.175 23.6002C18.3437 23.7877 18.7313 24.2314 18.7563 24.3252C18.775 24.3939 18.8563 24.5939 18.8875 24.6689L18.8937 24.6814L18.875 25.5314L19.1187 25.8939C19.2437 25.9689 20.1625 26.5064 20.2687 26.5689C20.3437 26.6127 21.0063 26.8002 21.4125 26.9127L22.7812 27.0439L23.8813 26.8939L24.825 26.4627L25.3375 25.9689L25.2188 25.5314L24.5875 24.3564L24.1313 23.6627L23.3375 22.8002L22.1688 22.1564L21.9937 21.7814L21.4125 21.3877Z" fill="#3D8130"/>
<path d="M22.4063 18.8565L22.3875 18.8628C22.2625 18.9065 21.625 19.1315 21.4875 19.1315C21.3563 19.1315 20.075 19.1503 20.0625 19.1565C20.0438 19.1565 18.4813 19.069 18.2875 19.069C18.1625 19.069 17.6563 18.9878 17.2063 18.9128C16.9563 18.869 16.7 18.8315 16.6625 18.8315C16.575 18.8315 14.9563 18.5003 14.6313 18.4378H14.625L13.0688 17.9565L12.4188 17.8128L12.1938 17.9815L12.1188 18.2503L12.175 18.5378L12.9 19.0253L14.1438 19.744L15.5563 20.3315L17.0375 20.569L17.9625 20.744L19.0688 20.894L20.7313 20.719H20.7375L21.6063 20.7378L22.1313 20.5878L22.575 20.2315L22.9375 19.6753L23.0188 19.419L22.9 19.1315C22.375 19.6065 22.3188 19.6253 22.2875 19.6315L21.75 19.7628L20.2563 19.8315H20.25L18.6875 19.744L17.1375 19.4628L15.8875 19.4878H15.8813L14.5813 19.1565L13.4313 18.7565L12.8188 18.3815L12.8875 18.2753L13.4938 18.644L14.625 19.0378L15.9063 19.3628L17.1563 19.3378H17.1625L18.7125 19.619L20.2625 19.7065L21.7438 19.644L22.2625 19.5128C22.2938 19.5003 22.4688 19.3628 22.8375 19.0253C22.8875 18.9815 22.9188 18.9503 22.9313 18.9378L23.4063 18.2878L23.5688 17.9815C23.5438 17.8753 23.5188 17.7753 23.5063 17.669C23.4438 17.569 23.375 17.4815 23.2938 17.394C23.2938 17.4503 23.2938 17.5065 23.2813 17.5628V17.5753L22.85 18.319L22.4063 18.8565Z" fill="#983B1F"/>
<path d="M25.3188 25.4878L24.6812 24.3003L24.2188 23.594L23.4188 22.7003L22.2625 22.069L22.0938 21.7065L22.0625 21.7253C22.0625 21.7253 22.1687 22.1128 22.2437 22.1503C22.3187 22.1878 23.3187 22.7003 23.3687 22.7253C23.4187 22.7503 24.2875 23.7878 24.2875 23.7878L24.9875 25.0065L25.4062 25.944C25.4062 25.944 24.8687 26.494 24.8375 26.5003C24.8062 26.5065 23.7687 27.0128 23.7375 27.0128C23.7062 27.0128 22.7 27.1253 22.6437 27.1128C22.5875 27.094 21.35 26.9878 21.2563 26.9815C21.1563 26.9753 20.0125 26.519 20.0125 26.519L19.025 25.9253L18.7437 25.4878L18.35 25.9315C18.35 25.9315 17.7938 26.2128 17.7188 26.2128C17.6437 26.2128 16.2812 26.394 16.175 26.394H13.4312C13.4312 26.394 10.7188 26.344 10.6 26.2878C10.5625 26.269 10.3437 26.2003 10.0562 26.1065L9.825 26.0628L9.4625 25.9253C9.01875 25.7878 8.61875 25.669 8.61875 25.669L7.5 24.944C7.5 24.944 7.03125 24.1315 7.0125 24.0878C6.99375 24.044 6.70625 23.3628 6.70625 23.3315C6.70625 23.3003 6.60625 22.7565 6.60625 22.7565L6.80625 21.5128L6.89375 20.2065L7.10625 18.7815C7.10625 18.7815 7.4625 17.3503 7.46875 17.2878C7.475 17.219 8.05 15.8065 8.05 15.8065L8.65625 14.7128L9.45625 13.0628L10.3375 11.819L11.1938 10.8003L11.25 10.819L11.15 10.7378L10.3188 11.769L9.39375 13.1128L8.66875 14.5253L7.925 15.9878L7.39375 17.3753L7.0375 18.8503L6.81875 20.4628L6.6875 21.844L6.53125 22.7753L6.6875 23.5128L6.95625 24.1378L7.45 25.0128L8.58125 25.7253L9.775 26.194L10.9937 26.419L12.3875 26.4878H13.525C13.6562 26.4878 14.75 26.4253 14.8188 26.419L16.2875 26.444H16.2938L17.725 26.269H17.7313L18.3875 25.994L18.725 25.5878L19.0063 26.0065L19.0187 26.0128C19.0312 26.019 20.075 26.6253 20.1812 26.694C20.2937 26.7628 21.25 27.0253 21.3625 27.0503L22.7625 27.1815L23.8875 27.0253H23.8937L24.8687 26.5815L24.8813 26.5753L25.4625 26.0128L25.3188 25.4878Z" fill="black"/>
<path d="M10.3375 11.819L9.4562 13.0628L8.6562 14.7128L8.04995 15.8065C8.04995 15.8065 7.47495 17.219 7.4687 17.2878C7.46245 17.3565 7.1062 18.7815 7.1062 18.7815L6.8937 20.2065L6.8062 21.5128L6.6062 22.7565C6.6062 22.7565 6.7062 23.3003 6.7062 23.3315C6.7062 23.3628 6.9937 24.044 7.01245 24.0878C7.0312 24.1315 7.49995 24.944 7.49995 24.944L8.6187 25.669C8.6187 25.669 9.0187 25.7878 9.46245 25.9253L8.64995 25.6065L7.54995 24.919L7.07495 24.0815L6.8187 23.4753L6.6687 22.769L6.8187 21.8628L6.94995 20.4815L7.1687 18.8815L7.5187 17.419L8.0437 16.044L8.78745 14.5753L9.5062 13.1753L10.425 11.844L11.2562 10.819L11.2 10.8003L10.3375 11.819Z" fill="black"/>
<path d="M21.4375 21.2566L20.9438 21.3503L20.3188 21.7066L19.6313 22.2128L19.2375 22.6066L18.8875 22.8003L18.5 22.5191L17.9125 22.6878L17.9 22.7128C17.875 22.7691 17.7625 23.0378 17.7625 23.1316C17.7625 23.2253 17.95 23.5128 18.0562 23.6691L18.0625 23.6753C18.3187 23.9628 18.6 24.2941 18.6187 24.3503C18.6375 24.4316 18.725 24.6441 18.75 24.7003L18.7313 25.3628L18.3125 25.8628L17.7 26.1191L16.2875 26.2941L14.825 26.2691C14.8125 26.2691 13.6625 26.3378 13.5375 26.3378H12.4L11.025 26.2753L10.0625 26.1003C10.3438 26.1878 10.5687 26.2628 10.6062 26.2816C10.7187 26.3378 13.4375 26.3878 13.4375 26.3878H16.1812C16.2875 26.3878 17.6563 26.2066 17.725 26.2066C17.8 26.2066 18.3563 25.9253 18.3563 25.9253L18.75 25.4816L19.0312 25.9191L20.0187 26.5128C20.0187 26.5128 21.1625 26.9628 21.2625 26.9753C21.3625 26.9816 22.5937 27.0878 22.65 27.1066C22.7062 27.1253 23.7125 27.0066 23.7437 27.0066C23.775 27.0066 24.8125 26.5066 24.8438 26.4941C24.875 26.4878 25.4125 25.9378 25.4125 25.9378L24.9937 25.0003L24.2938 23.7816C24.2938 23.7816 23.425 22.7441 23.375 22.7191C23.325 22.6941 22.325 22.1816 22.25 22.1441C22.175 22.1066 22.0688 21.7191 22.0688 21.7191L22.1 21.7003V21.6941L21.4375 21.2566ZM22.1625 22.1566L23.3312 22.8003L24.1125 23.6628L24.5688 24.3566L25.2 25.5316L25.3188 25.9691L24.8062 26.4628L23.8625 26.8941L22.7625 27.0441L21.3937 26.9128C20.9875 26.8003 20.325 26.6128 20.25 26.5691C20.1437 26.5066 19.225 25.9691 19.1 25.8941L18.8563 25.5316L18.875 24.6816V24.6753C18.8438 24.6003 18.7625 24.4003 18.7437 24.3316C18.7187 24.2378 18.3313 23.7941 18.1625 23.6066C18.0375 23.4191 17.8937 23.1878 17.8937 23.1441C17.9187 23.0253 17.9563 22.9128 18.0063 22.8003L18.475 22.6628L18.875 22.9503L18.9188 22.9253L18.8563 23.2253L19.3 23.6191L19.8937 23.5941L19.9125 23.5816C19.9938 23.5191 20.0875 23.4628 20.1812 23.4191C20.2312 23.4191 20.2938 23.3753 20.4688 23.2441C20.5375 23.1878 20.6125 23.1378 20.6875 23.0941C20.7625 23.0878 20.9813 22.9503 21.1562 22.8316L21.3188 22.8503L20.9813 23.3128L20.3937 23.8753L19.85 24.3066L19.7563 23.6316L19.6313 23.6503L19.7437 24.4378L20.2 24.9441L20.6375 25.2066L20.9312 25.5441L21.3188 25.5941L21.6125 25.5316L21.625 25.7816L22.0125 26.0503L22.4813 26.0941L22.775 26.0066L22.9688 26.2941H23.4312L23.8125 26.1253L24.0812 25.7191L24.4312 25.3503L24.3375 25.2628L23.9875 25.6378L23.725 26.0253L23.4062 26.1691H23.0375L22.8188 25.8441C22.9063 25.7441 23.15 25.4753 23.2 25.4253C23.2688 25.3566 23.6687 24.8941 23.6875 24.8753L23.5938 24.7941C23.45 24.9628 23.1625 25.2878 23.1125 25.3378C23.0437 25.4066 22.7063 25.7878 22.6938 25.8003L22.6625 25.8378L22.7062 25.9066L22.475 25.9753L22.0625 25.9316L21.75 25.7191L21.7313 25.3753L22.025 24.9191L22.6313 24.3316L22.5438 24.2378L21.9312 24.8316L21.6063 25.3441L21.6125 25.4066L21.3188 25.4691L21 25.4316L20.7313 25.1253L20.4875 24.7816L20.6063 24.4941L20.9438 24.0066L21.4312 23.7378L21.4562 23.7566C21.4625 23.7441 21.475 23.7316 21.4875 23.7128L21.8062 23.5378L22.4937 23.0503L22.4188 22.9441L21.7437 23.4253L21.6 23.5066C21.6125 23.4816 21.6187 23.4503 21.6187 23.4191C21.625 23.3691 21.775 23.1878 21.9062 23.0441L21.95 23.0003L21.7375 22.7878L21.125 22.7191L21.1063 22.7316C20.9688 22.8253 20.825 22.9128 20.675 22.9816C20.625 22.9816 20.5563 23.0316 20.3875 23.1566C20.3188 23.2128 20.2438 23.2628 20.1688 23.3066C20.0938 23.3128 19.9438 23.4128 19.8438 23.4816L19.3375 23.5003L18.9875 23.1941L19.0562 22.8566L19.3062 22.7191L19.425 22.6003L19.825 22.8816L19.8375 23.0003L19.5938 23.2441L19.6812 23.3316L19.9688 23.0441L19.9375 22.8066L19.5125 22.5066L19.7 22.3191L20.375 21.8191L20.975 21.4753L21.4 21.3941L21.975 21.7878L22.1625 22.1566ZM20.45 24.9503L20.2812 24.8503L19.9062 24.4378L20.4813 23.9878L21.075 23.4128L21.4625 22.8753L21.6812 22.9003L21.775 22.9941C21.6562 23.1253 21.4937 23.3191 21.4937 23.4066C21.475 23.4816 21.4375 23.5503 21.3937 23.6066L20.85 23.9066L20.4875 24.4253L20.3375 24.8003L20.45 24.9503Z" fill="black"/>
<path d="M21.9813 12.2129L22.3 12.6316C22.3 12.6316 22.4563 12.8754 22.5125 12.8941C22.5688 12.9129 23.0875 13.2129 23.0875 13.2129L23.3 13.4504L23.2563 13.5879L23.0938 13.5379L23.1188 14.3441H23.1688V13.6191L23.3125 13.7004L23.35 13.3941L22.9438 13.0379L22.5063 12.8254L22.525 12.8129L22.1875 12.2816L21.5063 11.6816L21.4313 11.7691H21.5L21.9813 12.2129Z" fill="black"/>
<path d="M23.0438 15.5066C23.0438 15.5066 22.8125 15.9691 22.7875 15.9816C22.7625 16.0003 22.5563 16.0878 22.5563 16.0878L22.575 16.2003C22.6688 16.2691 22.7625 16.3441 22.8438 16.4253C22.8563 16.4441 22.9938 16.7191 23.1063 16.9253H23.2188C23.1125 16.6128 22.9 16.3441 22.6188 16.1753C22.6313 16.1503 22.6438 16.1191 22.6563 16.0941C22.675 16.0816 22.7 16.0691 22.7188 16.0503C23.025 15.8191 23.1813 15.4191 23.2 14.8566V14.4628L23.125 14.3503L23.1438 14.9566L23.0438 15.5066Z" fill="black"/>
<path d="M22.0937 12.3753L22.3312 12.7441L22.3 12.7253L21.5125 12.6566L20.625 12.8128L20.2625 12.9691L20.3125 13.0878L20.6562 12.9378L21.5187 12.7878L22.2687 12.8503L22.8875 13.1503L23.2312 13.4503L23.225 13.5003L23.1562 13.4628L22.425 13.1941L22.4125 13.1878C22.3812 13.1816 21.6625 13.0753 21.4812 13.0753C21.3 13.0753 20.625 13.1816 20.5937 13.1878H20.5812L19.6937 13.7628L19.7625 13.8691L20.6312 13.3066C20.7312 13.2941 21.3312 13.2003 21.4875 13.2003C21.65 13.2003 22.3187 13.3003 22.3937 13.3066L23.0687 13.5503V14.2378L22.9 13.9878L22.55 13.5878L21.7375 13.5003H20.875L20.1812 13.9941L19.525 14.7378L19.2875 15.4316L19.325 15.4566C19.3562 15.4816 19.6562 15.7128 19.8687 15.7128C19.9875 15.7128 20.45 15.7878 20.75 15.8316C20.9937 15.8691 21.0937 15.8878 21.1187 15.8878C21.1875 15.8878 21.9375 15.7003 22.1625 15.6441L22.6687 15.4128L23.0875 14.9191C23.0625 15.4003 22.9187 15.7503 22.6625 15.9441C22.2937 16.2253 21.8125 16.1066 21.8125 16.1066L21.8 16.1691L21.7875 16.2316C21.8812 16.2503 21.975 16.2628 22.0687 16.2628C22.2187 16.2628 22.3687 16.2378 22.5062 16.1816C22.3937 16.4128 22.25 16.5628 22.0812 16.6253C21.9375 16.6753 21.775 16.6628 21.6375 16.5941L21.575 16.7066C21.675 16.7566 21.7875 16.7816 21.8937 16.7816C21.9687 16.7816 22.0437 16.7691 22.1187 16.7441C22.3062 16.6753 22.4625 16.5253 22.5937 16.2878C22.8312 16.4378 23.0187 16.6628 23.1187 16.9253H23.1375C23.0312 16.7191 22.8875 16.4441 22.875 16.4253C22.7875 16.3441 22.7 16.2691 22.6062 16.2003L22.5875 16.0878C22.5875 16.0878 22.7937 16.0003 22.8187 15.9816C22.8437 15.9628 23.075 15.5066 23.075 15.5066L23.175 14.9628L23.1562 14.3566L23.1312 13.5503L23.2937 13.6003L23.3375 13.4628L23.125 13.2253C23.125 13.2253 22.6062 12.9191 22.55 12.9066C22.4937 12.8878 22.3375 12.6441 22.3375 12.6441L22.0187 12.2253L21.5312 11.7878H21.4625L21.4562 11.7941L22.0937 12.3753ZM23.0687 14.9066L23.0187 14.5878L21.7937 14.0878L20.3125 14.0441L20.3062 14.1691L21.7625 14.2128L22.9 14.6753L22.9312 14.8753L22.5625 15.3003L22.1 15.5128C21.7375 15.6003 21.15 15.7441 21.0937 15.7503C21.0687 15.7503 20.9062 15.7253 20.7437 15.7003C20.4 15.6441 19.975 15.5753 19.8437 15.5753C19.7187 15.5753 19.5187 15.4503 19.4125 15.3753L19.6125 14.7941L20.2375 14.0878L20.8937 13.6191H21.7062L22.4687 13.7066L22.7812 14.0566L23.075 14.5003V14.8503C23.0687 14.8691 23.0687 14.8878 23.0687 14.9066Z" fill="black"/>
<path d="M19.0751 21.0127L19.475 20.969H18.7688L19.0751 21.0127Z" fill="black"/>
<path d="M22.6313 20.994C22.6125 21.0252 22.25 21.6127 22.25 21.6127L22.0875 21.7002L22.125 21.744L22.4125 21.494L22.6875 21.0315V20.969H22.6313C22.6375 20.9815 22.6375 20.9877 22.6313 20.994Z" fill="black"/>
<path d="M22.6313 20.994C22.6313 20.9877 22.6376 20.9752 22.6376 20.969H22.5688V20.994L22.3188 21.4065L22.05 21.644L22.0938 21.694L22.1 21.7002L22.2626 21.6127C22.2563 21.6127 22.6188 21.0315 22.6313 20.994Z" fill="black"/>
<path d="M23.2312 17.1628L23.2875 17.244C23.275 17.1378 23.2562 17.0315 23.2187 16.9253H23.1062C23.175 17.0565 23.2312 17.1628 23.2312 17.1628Z" fill="black"/>
<path d="M23.6375 17.8627C23.6312 17.894 23.5562 18.144 23.5375 18.1815C23.5187 18.2252 22.9312 19.0315 22.9312 19.0315L23.0687 19.3127C23.0687 19.3127 23.0937 19.5127 23.075 19.544C23.0562 19.5752 22.5375 20.3815 22.5375 20.3815L22.6187 20.6065C22.6187 20.6065 22.6375 20.8877 22.6312 20.9752H22.6875V20.544L22.6187 20.3565L22.675 20.3127L23.0562 19.7252L23.1562 19.4065L23.0062 19.0377C23.0187 19.0252 23.025 19.019 23.025 19.019L23.5125 18.3502L23.7062 17.994L23.7 17.969C23.675 17.869 23.65 17.7627 23.6375 17.6565C23.6375 17.6315 23.6375 17.5627 23.3125 17.219L23.2875 17.244L23.4812 17.519C23.4812 17.519 23.6437 17.8315 23.6375 17.8627Z" fill="black"/>
<path d="M23.1063 16.9253H23.0875C23.1625 17.119 23.1875 17.3253 23.1625 17.5315L22.75 18.2378L22.325 18.744C22.0375 18.844 21.5688 19.0003 21.4875 19.0003C21.3563 19.0003 20.1438 19.019 20.0625 19.0253C19.9688 19.019 18.4813 18.9378 18.2875 18.9378C18.175 18.9378 17.625 18.8503 17.225 18.7815C16.8563 18.719 16.7 18.694 16.6625 18.694C16.5813 18.6878 15.425 18.4565 14.6625 18.3003L13.1063 17.819L12.3938 17.6565L12.0875 17.8815L11.9875 18.2253L12.0625 18.594L12.8313 19.1128L14.0875 19.8378L15.5188 20.4315H15.525L17.0188 20.6753L17.9438 20.8503L18.7625 20.9628H19.475L20.7438 20.8315L21.6188 20.8503H21.6313L22.2 20.6878L22.5188 20.4315L22.5688 20.5565V20.9628H22.6375C22.6438 20.8753 22.625 20.594 22.625 20.594L22.5438 20.369C22.5438 20.369 23.0625 19.5628 23.0813 19.5315C23.1 19.5003 23.075 19.3003 23.075 19.3003L22.9375 19.019C22.9375 19.019 23.5313 18.2128 23.5438 18.169C23.5625 18.1253 23.6313 17.8815 23.6438 17.8503C23.65 17.819 23.4875 17.5065 23.4875 17.5065L23.2938 17.2315L23.2375 17.1503C23.2313 17.1628 23.175 17.0565 23.1063 16.9253ZM23.2875 17.5628C23.2938 17.5065 23.3 17.4503 23.3 17.394C23.3813 17.4753 23.45 17.569 23.5125 17.669C23.525 17.7753 23.5438 17.8815 23.575 17.9815L23.4125 18.2878L22.9375 18.9378C22.925 18.9503 22.8875 18.9815 22.8438 19.0253C22.475 19.3628 22.3063 19.494 22.2688 19.5128L21.75 19.644L20.2688 19.7065L18.7188 19.619L17.1688 19.3378H17.1625L15.9125 19.3628L14.6313 19.0378L13.5 18.644L12.8938 18.2753L12.825 18.3815L13.4375 18.7565L14.5875 19.1565L15.8875 19.4878H15.8938L17.1438 19.4628L18.6938 19.744L20.2563 19.8315H20.2625L21.7563 19.7628L22.2938 19.6315C22.3188 19.6253 22.3813 19.6065 22.9063 19.1315L23.025 19.419L22.9438 19.6753L22.5813 20.2315L22.1375 20.5878L21.6125 20.7378L20.7438 20.719H20.7375L19.075 20.894L17.9688 20.744L17.0438 20.569L15.5625 20.3315L14.15 19.744L12.9063 19.0253L12.1813 18.5378L12.125 18.2503L12.2 17.9815L12.425 17.8128L13.075 17.9565L14.6313 18.4378H14.6375C14.9625 18.5065 16.575 18.8315 16.6688 18.8315C16.7 18.8315 16.9625 18.8753 17.2125 18.9128C17.6625 18.9878 18.1688 19.069 18.2938 19.069C18.4875 19.069 20.05 19.1565 20.0688 19.1565C20.0813 19.1565 21.3625 19.1315 21.4938 19.1315C21.6313 19.1315 22.2688 18.9065 22.3938 18.8628L22.4125 18.8565L22.8625 18.319L23.2938 17.5753L23.2875 17.5628Z" fill="black"/>
<path d="M12.5937 17.4191C12.7375 17.3878 12.8875 17.3878 13.0312 17.4191L13.0625 17.2941C13.0312 17.2878 12.2687 17.0941 11.575 17.9066L11.6687 17.9878C12.0062 17.5941 12.3562 17.4628 12.5937 17.4191Z" fill="black"/>
<path d="M12.3938 16.9252L12.8188 16.8252L12.7937 16.7002L12.1562 16.8502L12.175 16.9252H12.3938Z" fill="black"/>
<path d="M12.1875 16.9753L12.3938 16.9253H12.175L12.1875 16.9753Z" fill="black"/>
<path d="M19.9562 16.3628C20.2062 16.5253 20.4375 16.7128 20.6437 16.9253H20.8187C20.6437 16.7253 20.45 16.5503 20.2375 16.394L20.7312 16.4503L21.1562 16.3628L21.1312 16.2378L20.725 16.3253L20.0125 16.244C19.9 16.169 19.7812 16.1065 19.6562 16.0503L19.6 16.1628L19.9562 16.3628Z" fill="black"/>
<path d="M21.0375 17.4503L21.15 17.3878C21.0563 17.2253 20.9438 17.069 20.8188 16.9253H20.6438C20.7938 17.0878 20.925 17.2628 21.0375 17.4503Z" fill="black"/>
<path d="M13 14.1816L13.2187 14.3066L13.2312 14.3878L13.325 14.3691L14.0187 14.7753H14.025C14.2312 14.8753 14.475 15.0003 14.5062 15.0378C14.55 15.1003 15.0312 15.3691 15.425 15.5878L15.4312 15.5941H15.4375C15.7562 15.6628 16.3812 15.8003 16.4812 15.8316C16.5562 15.8566 16.7875 15.8628 16.9937 15.8628C17.175 15.8628 17.3437 15.8566 17.375 15.8566L18.125 15.7691L18.6687 15.5691L18.6625 15.5503L18.825 15.6566V15.8128L18.5937 16.0253L18.0687 16.2441L17.975 16.3253L17.9812 16.2816C17.7437 16.2628 17.4625 16.2253 17.4187 16.2066C17.3875 16.1878 17.3375 16.1503 16.1562 16.1503C15.9312 16.1503 15.3687 16.0253 15.3 16.0003C15.2375 15.9816 14.75 15.8316 14.6562 15.8066C14.575 15.7253 14.0812 15.2691 13.6875 15.0378L13.625 15.1503C14.0312 15.3878 14.575 15.9003 14.575 15.9066L14.5875 15.9191L14.6 15.9253C14.6062 15.9253 15.1937 16.1003 15.2562 16.1191C15.3312 16.1441 15.9062 16.2753 16.1562 16.2753C17.1375 16.2753 17.3187 16.3003 17.3562 16.3128C17.425 16.3503 17.6875 16.3816 17.8875 16.4003L17.8187 16.4566L17.5312 16.9253H17.6812L17.9187 16.5378L18.1437 16.3503L18.6687 16.1316L18.9625 15.8628V15.5816L18.6437 15.3753L18.425 14.6878L17.95 14.0566L17.4562 13.7628L16.2625 13.1441L15.3437 13.0566L14.2562 13.1691L13.4187 13.4878L12.9562 14.0628L12.675 14.2128L12.5625 14.1128L12.6187 13.7753L13.15 13.2628L13.6187 12.8816L14.275 12.7566L15.0125 12.7378H15.8L16.4437 12.7566L17.1125 13.1253C17.4 13.2753 17.7312 13.4628 17.7625 13.5128C17.8062 13.6003 18.2937 14.0628 18.45 14.2066L18.8937 14.7816L18.9562 15.2441L19.0812 15.2253L19.0125 14.7253L18.5437 14.1191L18.5375 14.1128C18.2312 13.8316 17.9 13.5066 17.8687 13.4503C17.825 13.3566 17.4062 13.1316 17.1625 13.0066L16.7062 12.7566L17.75 12.7753L18.125 13.0066L18.6187 13.4566L18.8875 13.7941L19.0187 14.5003L19.1437 14.4753L19.0062 13.7378L18.7125 13.3753L18.2 12.9066L17.7812 12.6503L16.45 12.6253L15.7937 12.6003H15L14.2562 12.6253L13.55 12.7628L13.0562 13.1691L12.4875 13.7128L12.4125 14.1628L12.65 14.3691L13 14.1816ZM17.875 14.1566L18.3187 14.7503L18.5437 15.4628L18.5687 15.4753L18.125 15.6441L17.3875 15.7316C17.1062 15.7378 16.625 15.7441 16.5375 15.7128C16.4125 15.6691 15.5875 15.4941 15.4875 15.4691C15.0937 15.2566 14.6625 15.0128 14.6187 14.9628C14.5687 14.8941 14.2687 14.7441 14.0937 14.6566L13.5312 14.3253L13.9437 14.2503C14.2 14.2191 14.875 14.1441 14.9625 14.1441C15 14.1441 15.1375 14.1566 15.2812 14.1691C15.7062 14.2066 15.9062 14.2191 15.9625 14.2066C16.025 14.1941 16.6187 14.1316 17.0062 14.1003L17.6187 14.0566L17.6125 13.9941L17.875 14.1566ZM13.5 13.5941L14.2875 13.2941L15.35 13.1878L16.2312 13.2753L17.4 13.8816L17.5062 13.9441L16.9875 13.9816C16.8875 13.9878 16.0125 14.0691 15.925 14.0941C15.8687 14.1066 15.5062 14.0691 15.2812 14.0503C15.1187 14.0378 14.9937 14.0253 14.95 14.0253C14.8375 14.0253 13.95 14.1316 13.9125 14.1378L13.35 14.2441L13.0937 14.0941L13.5 13.5941Z" fill="black"/>
<path d="M17.475 17.0189C17.3313 17.1002 17.1875 17.1627 17.0375 17.2252C16.9688 17.2252 16.5813 17.4064 16.2688 17.5564C16.2125 17.5752 15.7 17.7314 15.5813 17.7502L15.6 17.8752C15.7313 17.8502 16.2875 17.6814 16.3125 17.6752L16.3188 17.6689C16.6313 17.5189 16.9875 17.3564 17.0375 17.3439C17.1125 17.3377 17.3875 17.2002 17.5438 17.1189L17.5563 17.1127L17.675 16.9189H17.525L17.475 17.0189Z" fill="black"/>
<path d="M18.075 11.9004L17.9938 11.9566C18.0313 11.9504 18.0688 11.9504 18.1063 11.9441L18.075 11.9004Z" fill="black"/>
<path d="M18.3687 12.5439L18.5312 12.8252L18.45 13.1064L18.575 13.1439L18.6687 12.8127L18.4812 12.4814L18.1125 11.9502C18.075 11.9564 18.0375 11.9564 18 11.9627L17.975 11.9814L18.3687 12.5439Z" fill="black"/>
<path d="M22.1938 12.3941L22.75 12.3378C22.75 12.3378 24.1375 12.7503 24.1938 12.8066C24.25 12.8628 24.95 13.1691 24.95 13.1691L25.3625 13.2066L25.4188 12.8316L25.1125 12.3941L24.2313 11.7441L23.225 11.2566L22.5938 11.0378L22.3688 7.85034L21.8375 7.05659L21.0438 6.40659L20.0188 5.90034L18.9563 5.88159L16.9563 6.13159L15.1188 6.49409L15.0125 6.18159C14.8688 6.14409 14.725 6.11909 14.5813 6.10034C14.475 6.10034 13.5 6.40034 13.5 6.40034L12.9063 6.71284L12.7813 7.07534L11.9313 7.54409L11.2438 8.40659L10.85 9.23784C10.85 9.23784 10.65 10.0691 10.65 10.1191C10.65 10.1691 10.7563 10.6253 10.8313 10.6566C10.9063 10.6878 11.4625 10.8378 11.4625 10.8378L12.1938 11.2003L13.25 11.8128L14.5625 12.2441C14.5625 12.2441 15.8063 12.1566 15.9313 12.1566C16.0563 12.1566 17.9313 11.9566 18.0375 11.9566C18.1438 11.9566 20.2 11.7941 20.2563 11.7941C20.3125 11.7941 21.5375 11.7753 21.5375 11.7753L22.025 12.2066L22.1938 12.3941Z" fill="#C82727"/>
<path d="M21.7062 14.1627L21.8687 14.5065L21.9688 14.9002L21.9188 15.1502L21.7062 15.694L21.0312 15.8065L19.9438 15.6127L19.8125 15.2315L19.8625 14.8877L19.975 14.344L20.2563 14.0315L20.4375 14.1315L21.6375 14.1627" fill="black"/>
<path d="M16.7562 14.1127L16.9562 14.494L16.975 14.9565L16.875 15.369L16.6625 15.7002L16.3187 15.719L15 15.3252L14.475 14.8627L14.5437 14.569L14.725 14.2877L14.9687 14.094L15.8937 14.119C15.8812 14.1127 16.7187 14.1815 16.7562 14.1127Z" fill="black"/>
<path d="M25.25 12.444L24.7375 11.994L24 11.5003L22.7875 11.0565L22.6188 10.9878L22.5688 9.94404C22.5063 9.43154 22.4188 8.65654 22.4188 8.59404C22.4188 8.50654 22.375 7.86904 22.375 7.84404V7.83154L22.0125 7.17529L21.4063 6.55029L20.475 6.01904L19.7 5.80029H18.6375L17.5938 5.93154C17.175 6.00029 16.5188 6.10654 16.4438 6.10654C16.3313 6.10654 15.4563 6.30654 15.3563 6.32529L15.05 6.40654L15.1 6.38154L15 6.18154L14.675 6.05654L14.2 6.10029L13.4375 6.28779L12.8625 6.65654L12.7438 6.96279L12.825 6.99404L12.5063 7.07529H12.4938L11.8188 7.50029L11.35 8.03154L10.925 8.74404L10.5875 9.90654V10.3253L10.8063 10.7128L12.175 11.2003L12.6313 11.6128L13.65 12.0753L14.55 12.3003L16.2313 12.1878L18.6625 11.9253L20.3938 11.794L21.8313 11.8128L23.35 12.0315L24.55 12.6003L24.6063 12.4878L23.3938 11.9128L21.85 11.694L20.3938 11.669L18.6563 11.8003L16.225 12.0628L14.5688 12.169L13.7063 11.9565L12.7125 11.5003L12.25 11.0815L10.9 10.6003L10.725 10.2878V9.91904L11.05 8.79404L11.4625 8.10654L11.9125 7.59404L12.5563 7.18779L15.3938 6.44404C15.7625 6.36279 16.3813 6.22529 16.4563 6.22529C16.5688 6.22529 17.5188 6.06904 17.625 6.05029L18.65 5.91904H19.6875L20.4188 6.13154L21.325 6.65029L21.9063 7.25029L22.2438 7.86904C22.2563 8.10029 22.2875 8.53154 22.2875 8.59404C22.2875 8.68154 22.425 9.83154 22.4438 9.95654L22.4938 10.9378L21.7563 10.6565L20.3 10.5003L19.2 10.3878L18.1188 10.4753L16.8688 10.6065L15.4125 10.9378L14.3188 11.2003L13.5875 11.244L12.65 11.0565L13.125 11.4003L13.5125 11.6253L14.4 11.844L15.2688 11.869H15.275L16.05 11.7815L17.1438 11.6065L18.2125 11.4315L19.4125 11.344L20.2438 11.3003L21.2438 11.3628L22.6 11.5378L24.35 11.869L24.6563 12.069L25.1438 12.494L25.2813 12.8128L25.25 13.0503L24.9875 13.069L24.475 12.8315L23.5313 12.4565L22.7875 12.2315L22.1375 12.3003L22.15 12.4253L22.775 12.3628L23.4813 12.5753L24.4188 12.944L24.9625 13.194L25.3563 13.169L25.4125 12.794L25.25 12.444ZM12.875 6.97529L12.9688 6.73779L13.4875 6.40654L14.2188 6.23154L14.6625 6.18779L14.9125 6.28154L14.9813 6.41904L12.875 6.97529ZM22.6188 11.4378L21.25 11.2628L20.2375 11.194L19.4 11.2378L18.1938 11.3253L17.1125 11.5003L16.0188 11.6753L15.2563 11.7628L14.4125 11.744L13.55 11.5315L13.1875 11.319H13.1813L13.5625 11.394L14.3188 11.3503L15.425 11.0878L16.8688 10.7628L18.1125 10.6315L19.1813 10.544L20.2688 10.6503L21.7063 10.8003L22.7313 11.194L23.9313 11.6315L24.0688 11.7253L22.6188 11.4378Z" fill="black"/>
<path d="M16.3444 15.1487C16.5528 15.0867 16.6795 14.8943 16.6273 14.719C16.5752 14.5436 16.3639 14.4517 16.1555 14.5137C15.947 14.5757 15.8204 14.7681 15.8725 14.9435C15.9247 15.1188 16.1359 15.2107 16.3444 15.1487Z" fill="white"/>
<path d="M15.325 15.1128C15.4147 15.1128 15.4875 15.0401 15.4875 14.9503C15.4875 14.8606 15.4147 14.7878 15.325 14.7878C15.2352 14.7878 15.1625 14.8606 15.1625 14.9503C15.1625 15.0401 15.2352 15.1128 15.325 15.1128Z" fill="white"/>
<path d="M15.225 14.6065C15.3147 14.6065 15.3875 14.5337 15.3875 14.444C15.3875 14.3542 15.3147 14.2815 15.225 14.2815C15.1353 14.2815 15.0625 14.3542 15.0625 14.444C15.0625 14.5337 15.1353 14.6065 15.225 14.6065Z" fill="white"/>
<path d="M20.5188 15.319C20.6016 15.319 20.6688 15.2519 20.6688 15.169C20.6688 15.0862 20.6016 15.019 20.5188 15.019C20.4359 15.019 20.3688 15.0862 20.3688 15.169C20.3688 15.2519 20.4359 15.319 20.5188 15.319Z" fill="white"/>
<path d="M20.5 14.7503C20.5898 14.7503 20.6625 14.6775 20.6625 14.5878C20.6625 14.498 20.5898 14.4253 20.5 14.4253C20.4103 14.4253 20.3375 14.498 20.3375 14.5878C20.3375 14.6775 20.4103 14.7503 20.5 14.7503Z" fill="white"/>
<path d="M21.3937 15.2127C21.556 15.2127 21.6875 15.0812 21.6875 14.919C21.6875 14.7568 21.556 14.6252 21.3937 14.6252C21.2315 14.6252 21.1 14.7568 21.1 14.919C21.1 15.0812 21.2315 15.2127 21.3937 15.2127Z" fill="white"/>
</g>
<defs>
<clipPath id="clip0_542_6258">
<rect width="32" height="32" fill="white" transform="translate(0 0.487793)"/>
</clipPath>
</defs>
</svg>
